basic_regular.sfdir

StartChar: exclam
Encoding: 33 33 88
Width: 492
Flags: W
LayerCount: 2
Fore
SplineSet
98 138 m 0,0,1
 98 166 98 166 109.5 191 c 128,-1,2
 121 216 121 216 141 235 c 128,-1,3
 161 254 161 254 188 264.5 c 128,-1,4
 215 275 215 275 246 275 c 256,5,6
 277 275 277 275 304 264.5 c 128,-1,7
 331 254 331 254 351 235 c 128,-1,8
 371 216 371 216 382.5 191 c 128,-1,9
 394 166 394 166 394 138 c 0,10,11
 394 109 394 109 382.5 83.5 c 128,-1,12
 371 58 371 58 351 39.5 c 128,-1,13
 331 21 331 21 304 10 c 128,-1,14
 277 -1 277 -1 246 -1 c 256,15,16
 215 -1 215 -1 188 10 c 128,-1,17
 161 21 161 21 141 39.5 c 128,-1,18
 121 58 121 58 109.5 83.5 c 128,-1,19
 98 109 98 109 98 138 c 0,0,1
177 410 m 1,20,21
 163 578 163 578 152 750 c 0,22,23
 147 823 147 823 143 904 c 128,-1,24
 139 985 139 985 135.5 1068 c 128,-1,25
 132 1151 132 1151 130 1232.5 c 128,-1,26
 128 1314 128 1314 128 1388 c 1,27,28
 145 1390 145 1390 164 1392 c 0,29,30
 181 1394 181 1394 201 1395.5 c 128,-1,31
 221 1397 221 1397 243 1397 c 0,32,33
 266 1397 266 1397 287.5 1395.5 c 128,-1,34
 309 1394 309 1394 326 1392 c 0,35,36
 345 1390 345 1390 363 1388 c 1,37,38
 363 1308 363 1308 361 1223.5 c 128,-1,39
 359 1139 359 1139 356 1055 c 128,-1,40
 353 971 353 971 349 891 c 128,-1,41
 345 811 345 811 341 739 c 0,42,43
 331 570 331 570 319 409 c 1,44,45
 313 406 313 406 297.5 401.5 c 128,-1,46
 282 397 282 397 249 397 c 0,47,48
 232 397 232 397 211.5 401 c 128,-1,49
 191 405 191 405 177 410 c 1,20,21
EndSplineSet
EndChar

StartChar: numbersign
Encoding: 35 35 158
Width: 1364
Flags: W
LayerCount: 2
Fore
SplineSet
753 350 m 1,0,-1
 512 351 l 1,1,-1
 479 0 l 1,2,3
 467 -4 467 -4 454 -7 c 0,4,5
 443 -10 443 -10 428.5 -12 c 128,-1,6
 414 -14 414 -14 399 -14 c 0,7,8
 381 -14 381 -14 356.5 -9.5 c 128,-1,9
 332 -5 332 -5 302 8 c 1,10,-1
 335 351 l 1,11,-1
 129 351 l 1,12,13
 126 358 126 358 123 368 c 0,14,15
 118 386 118 386 118 413 c 0,16,17
 118 445 118 445 131 494 c 1,18,-1
 350 494 l 1,19,-1
 382 851 l 1,20,-1
 180 851 l 1,21,22
 177 861 177 861 174 872 c 0,23,24
 172 882 172 882 170 894 c 128,-1,25
 168 906 168 906 168 920 c 256,26,27
 168 934 168 934 171 954.5 c 128,-1,28
 174 975 174 975 182 1001 c 1,29,-1
 397 1001 l 1,30,-1
 431 1355 l 1,31,32
 444 1358 444 1358 459 1362 c 0,33,34
 472 1365 472 1365 487.5 1367.5 c 128,-1,35
 503 1370 503 1370 518 1370 c 0,36,37
 538 1370 538 1370 561.5 1365 c 128,-1,38
 585 1360 585 1360 608 1346 c 1,39,-1
 575 1001 l 1,40,-1
 811 1001 l 1,41,-1
 842 1355 l 1,42,43
 856 1358 856 1358 871 1362 c 0,44,45
 884 1365 884 1365 899 1367.5 c 128,-1,46
 914 1370 914 1370 930 1370 c 0,47,48
 950 1370 950 1370 973.5 1365 c 128,-1,49
 997 1360 997 1360 1020 1346 c 1,50,-1
 989 1001 l 1,51,-1
 1214 1001 l 1,52,53
 1217 989 1217 989 1221 975 c 1,54,55
 1223 963 1223 963 1225.5 948 c 128,-1,56
 1228 933 1228 933 1228 919 c 0,57,58
 1228 903 1228 903 1224 887 c 128,-1,59
 1220 871 1220 871 1210 850 c 1,60,-1
 975 850 l 1,61,-1
 946 494 l 1,62,-1
 1163 494 l 1,63,64
 1166 482 1166 482 1170 468 c 0,65,66
 1173 456 1173 456 1175.5 441 c 128,-1,67
 1178 426 1178 426 1178 412 c 0,68,69
 1178 397 1178 397 1173.5 384 c 128,-1,70
 1169 371 1169 371 1159 350 c 1,71,-1
 932 350 l 1,72,-1
 901 0 l 1,73,74
 889 -4 889 -4 876 -7 c 0,75,76
 865 -10 865 -10 850 -12 c 128,-1,77
 835 -14 835 -14 821 -14 c 0,78,79
 802 -14 802 -14 777.5 -9.5 c 128,-1,80
 753 -5 753 -5 723 8 c 1,81,-1
 753 350 l 1,0,-1
527 494 m 1,82,-1
 767 494 l 1,83,-1
 797 850 l 1,84,-1
 560 851 l 1,85,-1
 527 494 l 1,82,-1
EndSplineSet
EndChar

StartChar: dollar
Encoding: 36 36 139
Width: 1078
Flags: W
LayerCount: 2
Fore
SplineSet
133 49 m 1,0,1
 135 72 135 72 140 101 c 0,2,3
 145 125 145 125 153.5 158.5 c 128,-1,4
 162 192 162 192 179 231 c 1,5,6
 225 213 225 213 276 199 c 0,7,8
 320 187 320 187 374 177 c 128,-1,9
 428 167 428 167 483 167 c 0,10,11
 636 167 636 167 701.5 214.5 c 128,-1,12
 767 262 767 262 767 356 c 0,13,14
 767 409 767 409 754 445 c 128,-1,15
 741 481 741 481 711.5 507 c 128,-1,16
 682 533 682 533 634.5 551.5 c 128,-1,17
 587 570 587 570 519 588 c 0,18,19
 404 618 404 618 327 656.5 c 128,-1,20
 250 695 250 695 204 743 c 128,-1,21
 158 791 158 791 139 848 c 128,-1,22
 120 905 120 905 120 973 c 0,23,24
 120 1068 120 1068 145 1140 c 128,-1,25
 170 1212 170 1212 217.5 1261.5 c 128,-1,26
 265 1311 265 1311 334.5 1340 c 128,-1,27
 404 1369 404 1369 494 1379 c 1,28,-1
 494 1555 l 1,29,30
 507 1559 507 1559 523 1563 c 0,31,32
 536 1566 536 1566 553 1569 c 128,-1,33
 570 1572 570 1572 587 1572 c 0,34,35
 607 1572 607 1572 629.5 1567.5 c 128,-1,36
 652 1563 652 1563 678 1551 c 1,37,-1
 678 1380 l 1,38,39
 742 1373 742 1373 787.5 1360.5 c 128,-1,40
 833 1348 833 1348 863 1335 c 0,41,42
 897 1320 897 1320 921 1302 c 1,43,44
 918 1279 918 1279 909 1252 c 0,45,46
 901 1229 901 1229 887 1198 c 128,-1,47
 873 1167 873 1167 848 1131 c 1,48,49
 825 1151 825 1151 788 1167 c 0,50,51
 756 1181 756 1181 707 1192.5 c 128,-1,52
 658 1204 658 1204 589 1204 c 0,53,54
 461 1204 461 1204 394 1156.5 c 128,-1,55
 327 1109 327 1109 327 1010 c 0,56,57
 327 955 327 955 340 918.5 c 128,-1,58
 353 882 353 882 383.5 856.5 c 128,-1,59
 414 831 414 831 465 812 c 128,-1,60
 516 793 516 793 591 773 c 0,61,62
 701 744 701 744 775.5 709 c 128,-1,63
 850 674 850 674 895.5 629 c 128,-1,64
 941 584 941 584 960.5 525 c 128,-1,65
 980 466 980 466 980 389 c 0,66,67
 980 302 980 302 963 234 c 128,-1,68
 946 166 946 166 907.5 115.5 c 128,-1,69
 869 65 869 65 808 33 c 128,-1,70
 747 1 747 1 659 -14 c 1,71,-1
 659 -206 l 1,72,73
 645 -210 645 -210 631 -213 c 0,74,75
 619 -215 619 -215 603.5 -217 c 128,-1,76
 588 -219 588 -219 573 -219 c 0,77,78
 553 -219 553 -219 528.5 -216 c 128,-1,79
 504 -213 504 -213 475 -202 c 1,80,-1
 475 -26 l 1,81,82
 396 -24 396 -24 333.5 -12.5 c 128,-1,83
 271 -1 271 -1 226 13 c 0,84,85
 174 29 174 29 133 49 c 1,0,1
EndSplineSet
EndChar

StartChar: percent
Encoding: 37 37 141
Width: 1787
Flags: W
LayerCount: 2
Fore
SplineSet
1204 1385 m 1,0,1
 1235 1377 1235 1377 1264 1366 c 1,2,3
 1289 1355 1289 1355 1314 1339 c 128,-1,4
 1339 1323 1339 1323 1354 1298 c 1,5,-1
 576 -21 l 1,6,7
 547 -14 547 -14 520 -3 c 0,8,9
 497 7 497 7 470.5 23.5 c 128,-1,10
 444 40 444 40 423 66 c 1,11,-1
 1204 1385 l 1,0,1
454 604 m 0,12,13
 382 604 382 604 322.5 632.5 c 128,-1,14
 263 661 263 661 220.5 712.5 c 128,-1,15
 178 764 178 764 154 836 c 128,-1,16
 130 908 130 908 130 994 c 256,17,18
 130 1080 130 1080 154.5 1152 c 128,-1,19
 179 1224 179 1224 222.5 1275.5 c 128,-1,20
 266 1327 266 1327 325.5 1355.5 c 128,-1,21
 385 1384 385 1384 454 1384 c 0,22,23
 526 1384 526 1384 585 1356.5 c 128,-1,24
 644 1329 644 1329 686 1279 c 128,-1,25
 728 1229 728 1229 751 1158.5 c 128,-1,26
 774 1088 774 1088 774 1001 c 0,27,28
 774 915 774 915 750 842.5 c 128,-1,29
 726 770 726 770 683.5 717 c 128,-1,30
 641 664 641 664 582.5 634 c 128,-1,31
 524 604 524 604 454 604 c 0,12,13
454 744 m 0,32,33
 494 744 494 744 522.5 767 c 128,-1,34
 551 790 551 790 569 827 c 128,-1,35
 587 864 587 864 595.5 909 c 128,-1,36
 604 954 604 954 604 999 c 0,37,38
 604 1047 604 1047 595.5 1091 c 128,-1,39
 587 1135 587 1135 569 1169 c 128,-1,40
 551 1203 551 1203 522.5 1223 c 128,-1,41
 494 1243 494 1243 454 1243 c 0,42,43
 415 1243 415 1243 385.5 1221 c 128,-1,44
 356 1199 356 1199 337 1164 c 128,-1,45
 318 1129 318 1129 308.5 1084.5 c 128,-1,46
 299 1040 299 1040 299 994 c 256,47,48
 299 948 299 948 308.5 903 c 128,-1,49
 318 858 318 858 337 823 c 128,-1,50
 356 788 356 788 385.5 766 c 128,-1,51
 415 744 415 744 454 744 c 0,32,33
1013 371 m 256,52,53
 1013 457 1013 457 1037.5 529 c 128,-1,54
 1062 601 1062 601 1105.5 652.5 c 128,-1,55
 1149 704 1149 704 1208 732.5 c 128,-1,56
 1267 761 1267 761 1337 761 c 0,57,58
 1409 761 1409 761 1468 733.5 c 128,-1,59
 1527 706 1527 706 1569 656 c 128,-1,60
 1611 606 1611 606 1634 535.5 c 128,-1,61
 1657 465 1657 465 1657 378 c 0,62,63
 1657 292 1657 292 1633 219 c 128,-1,64
 1609 146 1609 146 1566.5 93 c 128,-1,65
 1524 40 1524 40 1465.5 10 c 128,-1,66
 1407 -20 1407 -20 1337 -20 c 0,67,68
 1265 -20 1265 -20 1205.5 8.5 c 128,-1,69
 1146 37 1146 37 1103.5 89 c 128,-1,70
 1061 141 1061 141 1037 213 c 128,-1,71
 1013 285 1013 285 1013 371 c 256,52,53
1181 371 m 256,72,73
 1181 325 1181 325 1189 280 c 128,-1,74
 1197 235 1197 235 1215.5 200 c 128,-1,75
 1234 165 1234 165 1264 143 c 128,-1,76
 1294 121 1294 121 1337 121 c 0,77,78
 1377 121 1377 121 1405.5 144 c 128,-1,79
 1434 167 1434 167 1452 203.5 c 128,-1,80
 1470 240 1470 240 1478 285.5 c 128,-1,81
 1486 331 1486 331 1486 375 c 0,82,83
 1486 423 1486 423 1478 467.5 c 128,-1,84
 1470 512 1470 512 1452 546 c 128,-1,85
 1434 580 1434 580 1405.5 600 c 128,-1,86
 1377 620 1377 620 1337 620 c 0,87,88
 1298 620 1298 620 1268.5 598 c 128,-1,89
 1239 576 1239 576 1219.5 541 c 128,-1,90
 1200 506 1200 506 1190.5 461.5 c 128,-1,91
 1181 417 1181 417 1181 371 c 256,72,73
EndSplineSet
EndChar

StartChar: ampersand
Encoding: 38 38 157
Width: 1291
Flags: W
LayerCount: 2
Fore
SplineSet
752 602 m 1,0,1
 745 627 745 627 744 657 c 128,-1,2
 743 687 743 687 743 702 c 0,3,4
 743 719 743 719 748 747 c 128,-1,5
 753 775 753 775 760 798 c 1,6,-1
 1259 798 l 1,7,8
 1259 772 1259 772 1256 742 c 128,-1,9
 1253 712 1253 712 1248 684 c 128,-1,10
 1243 656 1243 656 1237 633.5 c 128,-1,11
 1231 611 1231 611 1225 602 c 1,12,-1
 1138 602 l 1,13,14
 1134 555 1134 555 1126 504.5 c 128,-1,15
 1118 454 1118 454 1105.5 405 c 128,-1,16
 1093 356 1093 356 1076.5 311.5 c 128,-1,17
 1060 267 1060 267 1039 233 c 1,18,19
 1081 205 1081 205 1126.5 177 c 128,-1,20
 1172 149 1172 149 1223 120 c 1,21,22
 1215 90 1215 90 1204 62 c 1,23,24
 1193 38 1193 38 1177 11.5 c 128,-1,25
 1161 -15 1161 -15 1135 -33 c 1,26,-1
 1110 -33 l 1,27,28
 1055 -3 1055 -3 1005.5 27 c 128,-1,29
 956 57 956 57 909 86 c 1,30,31
 832 26 832 26 730.5 -6.5 c 128,-1,32
 629 -39 629 -39 498 -39 c 0,33,34
 447 -39 447 -39 392 -29 c 128,-1,35
 337 -19 337 -19 283.5 2 c 128,-1,36
 230 23 230 23 182 54.5 c 128,-1,37
 134 86 134 86 98 128.5 c 128,-1,38
 62 171 62 171 40.5 225 c 128,-1,39
 19 279 19 279 19 344 c 0,40,41
 19 404 19 404 36.5 457.5 c 128,-1,42
 54 511 54 511 87.5 555.5 c 128,-1,43
 121 600 121 600 170 632.5 c 128,-1,44
 219 665 219 665 282 682 c 1,45,46
 238 764 238 764 223 830.5 c 128,-1,47
 208 897 208 897 208 945 c 0,48,49
 208 1044 208 1044 242.5 1114.5 c 128,-1,50
 277 1185 277 1185 334 1230 c 128,-1,51
 391 1275 391 1275 463.5 1296 c 128,-1,52
 536 1317 536 1317 612 1317 c 256,53,54
 688 1317 688 1317 751 1301 c 128,-1,55
 814 1285 814 1285 859.5 1253 c 128,-1,56
 905 1221 905 1221 930.5 1171 c 128,-1,57
 956 1121 956 1121 956 1054 c 1,58,59
 928 1049 928 1049 895 1045 c 0,60,61
 867 1041 867 1041 830.5 1038 c 128,-1,62
 794 1035 794 1035 754 1034 c 1,63,64
 752 1059 752 1059 740 1078.5 c 128,-1,65
 728 1098 728 1098 707 1111.5 c 128,-1,66
 686 1125 686 1125 658 1131.5 c 128,-1,67
 630 1138 630 1138 597 1138 c 0,68,69
 516 1138 516 1138 475.5 1091 c 128,-1,70
 435 1044 435 1044 435 953 c 0,71,72
 435 920 435 920 440.5 881.5 c 128,-1,73
 446 843 446 843 463 798.5 c 128,-1,74
 480 754 480 754 511 703 c 128,-1,75
 542 652 542 652 593 594 c 128,-1,76
 644 536 644 536 718.5 470 c 128,-1,77
 793 404 793 404 896 330 c 1,78,79
 911 353 911 353 922.5 385 c 128,-1,80
 934 417 934 417 943 453.5 c 128,-1,81
 952 490 952 490 958 528.5 c 128,-1,82
 964 567 964 567 966 602 c 1,83,-1
 752 602 l 1,0,1
525 140 m 0,84,85
 584 140 584 140 641 153 c 128,-1,86
 698 166 698 166 750 194 c 1,87,88
 601 302 601 302 502.5 400 c 128,-1,89
 404 498 404 498 342 586 c 1,90,91
 297 551 297 551 271.5 495.5 c 128,-1,92
 246 440 246 440 246 372 c 0,93,94
 246 319 246 319 269 276 c 128,-1,95
 292 233 292 233 331 203 c 128,-1,96
 370 173 370 173 420.5 156.5 c 128,-1,97
 471 140 471 140 525 140 c 0,84,85
EndSplineSet
EndChar

StartChar: quotesingle
Encoding: 39 39 134
Width: 398
Flags: W
LayerCount: 2
Fore
SplineSet
197 1030 m 0,0,1
 177 1030 177 1030 161.5 1034 c 128,-1,2
 146 1038 146 1038 136 1043 c 0,3,4
 124 1049 124 1049 116 1057 c 1,5,-1
 80 1608 l 1,6,7
 93 1615 93 1615 111 1621 c 0,8,9
 126 1626 126 1626 148 1630 c 128,-1,10
 170 1634 170 1634 199 1634 c 256,11,12
 228 1634 228 1634 250.5 1629 c 128,-1,13
 273 1624 273 1624 288 1618 c 0,14,15
 306 1611 306 1611 318 1602 c 1,16,-1
 278 1049 l 1,17,18
 269 1043 269 1043 257 1039 c 0,19,20
 246 1035 246 1035 231 1032.5 c 128,-1,21
 216 1030 216 1030 197 1030 c 0,0,1
EndSplineSet
EndChar

StartChar: parenleft
Encoding: 40 40 163
Width: 604
Flags: W
LayerCount: 2
Fore
SplineSet
465 -281 m 1,0,1
 364 -183 364 -183 292.5 -70 c 128,-1,2
 221 43 221 43 175.5 164 c 128,-1,3
 130 285 130 285 109 411 c 128,-1,4
 88 537 88 537 88 662 c 256,5,6
 88 787 88 787 109 906 c 128,-1,7
 130 1025 130 1025 175.5 1136.5 c 128,-1,8
 221 1248 221 1248 292.5 1353.5 c 128,-1,9
 364 1459 364 1459 465 1557 c 1,10,11
 493 1547 493 1547 518 1533 c 0,12,13
 539 1521 539 1521 558 1503.5 c 128,-1,14
 577 1486 577 1486 584 1463 c 1,15,16
 500 1356 500 1356 443.5 1258 c 128,-1,17
 387 1160 387 1160 353.5 1064 c 128,-1,18
 320 968 320 968 306 869.5 c 128,-1,19
 292 771 292 771 292 663 c 256,20,21
 292 555 292 555 306 450.5 c 128,-1,22
 320 346 320 346 353.5 241 c 128,-1,23
 387 136 387 136 443.5 30 c 128,-1,24
 500 -76 500 -76 584 -186 c 1,25,26
 577 -209 577 -209 558 -227 c 128,-1,27
 539 -245 539 -245 518 -257 c 0,28,29
 493 -271 493 -271 465 -281 c 1,0,1
EndSplineSet
EndChar

StartChar: asterisk
Encoding: 42 42 160
Width: 942
Flags: W
LayerCount: 2
Fore
SplineSet
166 579 m 1,0,1
 148 588 148 588 133 601 c 0,2,3
 120 612 120 612 107 629 c 128,-1,4
 94 646 94 646 89 669 c 1,5,6
 123 699 123 699 157 733 c 0,7,8
 186 762 186 762 221 801 c 128,-1,9
 256 840 256 840 288 882 c 1,10,11
 228 914 228 914 182 949.5 c 128,-1,12
 136 985 136 985 104 1015 c 0,13,14
 66 1050 66 1050 37 1084 c 1,15,16
 40 1097 40 1097 49 1112 c 0,17,18
 57 1125 57 1125 71 1140.5 c 128,-1,19
 85 1156 85 1156 110 1173 c 1,20,21
 145 1153 145 1153 186 1132 c 0,22,23
 221 1114 221 1114 266.5 1093 c 128,-1,24
 312 1072 312 1072 362 1054 c 1,25,26
 375 1117 375 1117 394.5 1170.5 c 128,-1,27
 414 1224 414 1224 433 1264 c 0,28,29
 455 1311 455 1311 478 1349 c 1,30,31
 498 1352 498 1352 519 1349 c 0,32,33
 537 1347 537 1347 559 1340 c 128,-1,34
 581 1333 581 1333 602 1317 c 1,35,36
 593 1275 593 1275 586 1227 c 0,37,38
 580 1186 580 1186 574 1135 c 128,-1,39
 568 1084 568 1084 566 1031 c 1,40,41
 592 1034 592 1034 620 1035.5 c 128,-1,42
 648 1037 648 1037 673 1037 c 0,43,44
 719 1037 719 1037 758 1033 c 128,-1,45
 797 1029 797 1029 826 1024 c 0,46,47
 859 1019 859 1019 887 1012 c 1,48,49
 891 1003 891 1003 895 993 c 0,50,51
 898 985 898 985 901 973.5 c 128,-1,52
 904 962 904 962 904 951 c 1,53,54
 904 956 904 956 885 903 c 1,55,56
 842 898 842 898 794 891 c 1,57,58
 753 884 753 884 703 874 c 128,-1,59
 653 864 653 864 602 849 c 1,60,61
 632 787 632 787 649 732 c 128,-1,62
 666 677 666 677 675 634 c 0,63,64
 686 584 686 584 689 541 c 1,65,66
 675 528 675 528 658 518 c 0,67,68
 644 510 644 510 624 503 c 128,-1,69
 604 496 604 496 580 498 c 1,70,-1
 560 506 l 1,71,72
 544 543 544 543 525 583 c 0,73,74
 508 618 508 618 484.5 660 c 128,-1,75
 461 702 461 702 432 747 c 1,76,77
 385 705 385 705 337.5 673.5 c 128,-1,78
 290 642 290 642 252 621 c 0,79,80
 207 596 207 596 166 579 c 1,0,1
EndSplineSet
EndChar

StartChar: plus
Encoding: 43 43 115
Width: 1535
Flags: W
LayerCount: 2
Fore
SplineSet
660 1166 m 1,0,-1
 856 1166 l 1,1,-1
 856 20 l 1,2,-1
 660 20 l 1,3,-1
 660 1166 l 1,0,-1
203 685 m 1,4,-1
 1313 685 l 1,5,-1
 1313 510 l 1,6,-1
 203 510 l 1,7,-1
 203 685 l 1,4,-1
EndSplineSet
EndChar

StartChar: comma
Encoding: 44 44 7
Width: 432
Flags: W
LayerCount: 2
Fore
SplineSet
-23 -339 m 1,0,1
 14 -266 14 -266 44 -181 c 0,2,3
 69 -108 69 -108 90 -11.5 c 128,-1,4
 111 85 111 85 111 195 c 1,5,6
 116 196 116 196 133.5 198 c 128,-1,7
 151 200 151 200 175 200 c 0,8,9
 194 200 194 200 216.5 197.5 c 128,-1,10
 239 195 239 195 261 188 c 128,-1,11
 283 181 283 181 302.5 169.5 c 128,-1,12
 322 158 322 158 337 139 c 1,13,14
 337 86 337 86 327 35 c 128,-1,15
 317 -16 317 -16 301 -64.5 c 128,-1,16
 285 -113 285 -113 264.5 -157.5 c 128,-1,17
 244 -202 244 -202 223 -240 c 0,18,19
 173 -330 173 -330 110 -408 c 1,20,21
 83 -406 83 -406 58 -400 c 0,22,23
 37 -395 37 -395 14 -384.5 c 128,-1,24
 -9 -374 -9 -374 -23 -354 c 1,25,-1
 -23 -339 l 1,26,-1
 -23 -339 l 1,0,1
EndSplineSet
EndChar

StartChar: hyphen
Encoding: 45 45 49
Width: 952
Flags: W
LayerCount: 2
Fore
SplineSet
180 685 m 1,0,-1
 772 685 l 1,1,-1
 772 510 l 1,2,-1
 180 510 l 1,3,-1
 180 685 l 1,0,-1
EndSplineSet
EndChar

StartChar: period
Encoding: 46 46 8
Width: 392
Flags: W
LayerCount: 2
Fore
SplineSet
48 138 m 0,0,1
 48 166 48 166 59.5 191 c 128,-1,2
 71 216 71 216 91 235 c 128,-1,3
 111 254 111 254 138 264.5 c 128,-1,4
 165 275 165 275 196 275 c 256,5,6
 227 275 227 275 254 264.5 c 128,-1,7
 281 254 281 254 301 235 c 128,-1,8
 321 216 321 216 332.5 191 c 128,-1,9
 344 166 344 166 344 138 c 0,10,11
 344 109 344 109 332.5 83.5 c 128,-1,12
 321 58 321 58 301 39.5 c 128,-1,13
 281 21 281 21 254 10 c 128,-1,14
 227 -1 227 -1 196 -1 c 256,15,16
 165 -1 165 -1 138 10 c 128,-1,17
 111 21 111 21 91 39.5 c 128,-1,18
 71 58 71 58 59.5 83.5 c 128,-1,19
 48 109 48 109 48 138 c 0,0,1
EndSplineSet
EndChar

StartChar: zero
Encoding: 48 48 73
Width: 1146
Flags: W
LayerCount: 2
Fore
SplineSet
576 -20 m 0,0,1
 447 -20 447 -20 354 28 c 128,-1,2
 261 76 261 76 201 166.5 c 128,-1,3
 141 257 141 257 112 387 c 128,-1,4
 83 517 83 517 83 680 c 0,5,6
 83 839 83 839 113.5 968.5 c 128,-1,7
 144 1098 144 1098 205.5 1189.5 c 128,-1,8
 267 1281 267 1281 359.5 1330.5 c 128,-1,9
 452 1380 452 1380 576 1380 c 0,10,11
 707 1380 707 1380 799.5 1334.5 c 128,-1,12
 892 1289 892 1289 950.5 1202 c 128,-1,13
 1009 1115 1009 1115 1036 988 c 128,-1,14
 1063 861 1063 861 1063 698 c 0,15,16
 1063 539 1063 539 1034 407 c 128,-1,17
 1005 275 1005 275 945.5 180 c 128,-1,18
 886 85 886 85 794 32.5 c 128,-1,19
 702 -20 702 -20 576 -20 c 0,0,1
575 141 m 0,20,21
 643 141 643 141 691 185.5 c 128,-1,22
 739 230 739 230 769.5 305.5 c 128,-1,23
 800 381 800 381 814 482.5 c 128,-1,24
 828 584 828 584 828 698 c 0,25,26
 828 821 828 821 814 918 c 128,-1,27
 800 1015 800 1015 770 1082 c 128,-1,28
 740 1149 740 1149 692 1184.5 c 128,-1,29
 644 1220 644 1220 576 1220 c 0,30,31
 506 1220 506 1220 456.5 1180 c 128,-1,32
 407 1140 407 1140 376 1068 c 128,-1,33
 345 996 345 996 331 897 c 128,-1,34
 317 798 317 798 317 680 c 256,35,36
 317 562 317 562 331 463 c 128,-1,37
 345 364 345 364 376 292.5 c 128,-1,38
 407 221 407 221 456 181 c 128,-1,39
 505 141 505 141 575 141 c 0,20,21
EndSplineSet
EndChar

StartChar: one
Encoding: 49 49 70
Width: 717
Flags: W
LayerCount: 2
Fore
SplineSet
300 1162 m 1,0,1
 276 1151 276 1151 241.5 1139 c 128,-1,2
 207 1127 207 1127 173 1118 c 1,3,-1
 155 1120 l 1,4,5
 132 1133 132 1133 118.5 1155.5 c 128,-1,6
 105 1178 105 1178 97 1200 c 0,7,8
 88 1226 88 1226 85 1254 c 1,9,10
 142 1276 142 1276 190 1296.5 c 128,-1,11
 238 1317 238 1317 273 1334 c 0,12,13
 314 1353 314 1353 349 1371 c 1,14,-1
 515 1371 l 1,15,-1
 515 0 l 1,16,-1
 300 0 l 1,17,-1
 300 1162 l 1,0,1
EndSplineSet
EndChar

StartChar: two
Encoding: 50 50 71
Width: 961
Flags: W
LayerCount: 2
Fore
SplineSet
72 193 m 1,0,1
 205 303 205 303 301 391.5 c 128,-1,2
 397 480 397 480 463.5 552 c 128,-1,3
 530 624 530 624 570.5 681 c 128,-1,4
 611 738 611 738 633 786 c 128,-1,5
 655 834 655 834 662.5 874.5 c 128,-1,6
 670 915 670 915 670 953 c 0,7,8
 670 1013 670 1013 651 1060.5 c 128,-1,9
 632 1108 632 1108 599.5 1141.5 c 128,-1,10
 567 1175 567 1175 524 1192.5 c 128,-1,11
 481 1210 481 1210 434 1210 c 0,12,13
 389 1210 389 1210 347.5 1196.5 c 128,-1,14
 306 1183 306 1183 269.5 1162.5 c 128,-1,15
 233 1142 233 1142 202.5 1117 c 128,-1,16
 172 1092 172 1092 149 1068 c 1,17,18
 125 1105 125 1105 109 1136 c 128,-1,19
 93 1167 93 1167 83 1190 c 0,20,21
 72 1216 72 1216 66 1238 c 1,22,23
 81 1252 81 1252 114.5 1276 c 128,-1,24
 148 1300 148 1300 198.5 1323 c 128,-1,25
 249 1346 249 1346 315.5 1363 c 128,-1,26
 382 1380 382 1380 464 1380 c 0,27,28
 557 1380 557 1380 633 1352 c 128,-1,29
 709 1324 709 1324 762.5 1272.5 c 128,-1,30
 816 1221 816 1221 845 1148 c 128,-1,31
 874 1075 874 1075 874 985 c 0,32,33
 874 928 874 928 866 874 c 128,-1,34
 858 820 858 820 836 764 c 128,-1,35
 814 708 814 708 775.5 648 c 128,-1,36
 737 588 737 588 676 518.5 c 128,-1,37
 615 449 615 449 529 369 c 128,-1,38
 443 289 443 289 326 193 c 1,39,40
 374 193 374 193 424.5 194 c 128,-1,41
 475 195 475 195 525 196.5 c 128,-1,42
 575 198 575 198 623 199 c 128,-1,43
 671 200 671 200 713 202 c 0,44,45
 812 206 812 206 908 209 c 1,46,47
 908 195 908 195 909 182 c 0,48,49
 910 171 910 171 910.5 158 c 128,-1,50
 911 145 911 145 911 134 c 0,51,52
 911 104 911 104 905 67.5 c 128,-1,53
 899 31 899 31 881 0 c 1,54,-1
 72 0 l 1,55,-1
 72 193 l 1,0,1
EndSplineSet
EndChar

StartChar: three
Encoding: 51 51 72
Width: 1011
Flags: W
LayerCount: 2
Fore
SplineSet
44 62 m 1,0,1
 48 85 48 85 57 112 c 0,2,3
 65 135 65 135 78.5 165.5 c 128,-1,4
 92 196 92 196 115 231 c 1,5,6
 159 209 159 209 207 191 c 0,7,8
 249 176 249 176 302 164 c 128,-1,9
 355 152 355 152 412 152 c 0,10,11
 472 152 472 152 523 172 c 128,-1,12
 574 192 574 192 611.5 228 c 128,-1,13
 649 264 649 264 670 314.5 c 128,-1,14
 691 365 691 365 691 427 c 0,15,16
 691 463 691 463 676 499.5 c 128,-1,17
 661 536 661 536 630 565.5 c 128,-1,18
 599 595 599 595 550.5 613.5 c 128,-1,19
 502 632 502 632 435 632 c 2,20,-1
 321 632 l 1,21,22
 315 659 315 659 311.5 682.5 c 128,-1,23
 308 706 308 706 308 725 c 0,24,25
 308 752 308 752 311 773 c 0,26,27
 313 784 313 784 315 796 c 1,28,-1
 435 796 l 2,29,30
 474 796 474 796 509 812 c 128,-1,31
 544 828 544 828 570.5 857.5 c 128,-1,32
 597 887 597 887 612 928.5 c 128,-1,33
 627 970 627 970 627 1021 c 0,34,35
 627 1066 627 1066 611.5 1101 c 128,-1,36
 596 1136 596 1136 567.5 1160 c 128,-1,37
 539 1184 539 1184 500 1196.5 c 128,-1,38
 461 1209 461 1209 414 1209 c 0,39,40
 361 1209 361 1209 313.5 1196.5 c 128,-1,41
 266 1184 266 1184 231 1169 c 0,42,43
 189 1151 189 1151 154 1130 c 1,44,45
 131 1164 131 1164 117 1194 c 128,-1,46
 103 1224 103 1224 95 1247 c 0,47,48
 86 1273 86 1273 83 1297 c 1,49,50
 131 1320 131 1320 187 1338 c 0,51,52
 235 1354 235 1354 298 1367 c 128,-1,53
 361 1380 361 1380 433 1380 c 0,54,55
 637 1380 637 1380 749.5 1295 c 128,-1,56
 862 1210 862 1210 862 1038 c 0,57,58
 862 978 862 978 846 927 c 128,-1,59
 830 876 830 876 801 835.5 c 128,-1,60
 772 795 772 795 731 766 c 128,-1,61
 690 737 690 737 640 720 c 1,62,63
 700 706 700 706 752 677.5 c 128,-1,64
 804 649 804 649 841.5 608.5 c 128,-1,65
 879 568 879 568 900.5 517 c 128,-1,66
 922 466 922 466 922 406 c 0,67,68
 922 305 922 305 886 226 c 128,-1,69
 850 147 850 147 784 92 c 128,-1,70
 718 37 718 37 624.5 8.5 c 128,-1,71
 531 -20 531 -20 415 -20 c 0,72,73
 340 -20 340 -20 272.5 -7.5 c 128,-1,74
 205 5 205 5 154 21 c 0,75,76
 94 39 94 39 44 62 c 1,0,1
EndSplineSet
EndChar

StartChar: four
Encoding: 52 52 74
Width: 1102
Flags: W
LayerCount: 2
Fore
SplineSet
92 366 m 1,0,1
 71 390 71 390 58.5 417.5 c 128,-1,2
 46 445 46 445 39 468 c 0,3,4
 31 495 31 495 28 522 c 1,5,-1
 497 1426 l 1,6,7
 545 1415 545 1415 587 1402 c 0,8,9
 623 1391 623 1391 657.5 1375 c 128,-1,10
 692 1359 692 1359 708 1340 c 1,11,-1
 709 1325 l 1,12,13
 649 1224 649 1224 585 1112 c 0,14,15
 558 1064 558 1064 526.5 1009 c 128,-1,16
 495 954 495 954 461 895 c 128,-1,17
 427 836 427 836 392 773.5 c 128,-1,18
 357 711 357 711 323 648 c 1,19,-1
 224 520 l 1,20,-1
 643 520 l 1,21,-1
 643 792 l 1,22,23
 678 818 678 818 717.5 832.5 c 128,-1,24
 757 847 757 847 791 855 c 1,25,26
 831 863 831 863 869 865 c 1,27,-1
 869 520 l 1,28,-1
 1034 520 l 1,29,30
 1035 513 1035 513 1036 505 c 0,31,32
 1037 498 1037 498 1037.5 490.5 c 128,-1,33
 1038 483 1038 483 1038 476 c 0,34,35
 1038 454 1038 454 1032.5 427.5 c 128,-1,36
 1027 401 1027 401 1009 366 c 1,37,-1
 869 366 l 1,38,-1
 869 0 l 1,39,-1
 643 0 l 1,40,-1
 643 366 l 1,41,-1
 92 366 l 1,42,-1
 92 366 l 1,0,1
EndSplineSet
EndChar

StartChar: five
Encoding: 53 53 75
Width: 993
Flags: W
LayerCount: 2
Fore
SplineSet
67 62 m 1,0,1
 71 85 71 85 80 112 c 0,2,3
 88 135 88 135 101.5 166 c 128,-1,4
 115 197 115 197 138 232 c 1,5,6
 170 210 170 210 210 192 c 0,7,8
 244 177 244 177 289 164.5 c 128,-1,9
 334 152 334 152 385 152 c 0,10,11
 473 152 473 152 531.5 176.5 c 128,-1,12
 590 201 590 201 625 240.5 c 128,-1,13
 660 280 660 280 674 329 c 128,-1,14
 688 378 688 378 688 428 c 0,15,16
 688 558 688 558 619.5 619 c 128,-1,17
 551 680 551 680 420 680 c 0,18,19
 380 680 380 680 344 672 c 128,-1,20
 308 664 308 664 280 655 c 0,21,22
 247 644 247 644 220 631 c 1,23,24
 197 651 197 651 182 671 c 128,-1,25
 167 691 167 691 158 707 c 0,26,27
 147 725 147 725 141 741 c 1,28,29
 148 848 148 848 155 956 c 0,30,31
 158 1002 158 1002 161.5 1053 c 128,-1,32
 165 1104 165 1104 168 1156.5 c 128,-1,33
 171 1209 171 1209 174 1260.5 c 128,-1,34
 177 1312 177 1312 179 1360 c 1,35,-1
 868 1360 l 1,36,37
 868 1353 868 1353 869 1345 c 0,38,39
 870 1338 870 1338 870.5 1329 c 128,-1,40
 871 1320 871 1320 871 1310 c 0,41,42
 871 1287 871 1287 864 1248 c 128,-1,43
 857 1209 857 1209 833 1164 c 1,44,45
 769 1166 769 1166 694 1169 c 0,46,47
 630 1171 630 1171 547 1173 c 128,-1,48
 464 1175 464 1175 373 1175 c 1,49,-1
 348 803 l 1,50,51
 386 818 386 818 425.5 823 c 128,-1,52
 465 828 465 828 501 828 c 0,53,54
 596 828 596 828 672.5 801 c 128,-1,55
 749 774 749 774 802.5 724.5 c 128,-1,56
 856 675 856 675 885 605 c 128,-1,57
 914 535 914 535 914 448 c 0,58,59
 914 341 914 341 880.5 254.5 c 128,-1,60
 847 168 847 168 783 107 c 128,-1,61
 719 46 719 46 626 13 c 128,-1,62
 533 -20 533 -20 415 -20 c 0,63,64
 343 -20 343 -20 280.5 -7.5 c 128,-1,65
 218 5 218 5 170 21 c 0,66,67
 115 39 115 39 67 62 c 1,0,1
EndSplineSet
EndChar

StartChar: six
Encoding: 54 54 76
Width: 1169
Flags: W
LayerCount: 2
Fore
SplineSet
144 613 m 0,0,1
 144 805 144 805 179.5 949 c 128,-1,2
 215 1093 215 1093 282.5 1189 c 128,-1,3
 350 1285 350 1285 447.5 1332.5 c 128,-1,4
 545 1380 545 1380 669 1380 c 0,5,6
 746 1380 746 1380 803.5 1370 c 128,-1,7
 861 1360 861 1360 901 1348 c 0,8,9
 947 1334 947 1334 981 1317 c 1,10,11
 980 1296 980 1296 972 1270 c 0,12,13
 965 1247 965 1247 950 1215.5 c 128,-1,14
 935 1184 935 1184 906 1146 c 1,15,16
 879 1161 879 1161 844 1172 c 0,17,18
 814 1182 814 1182 770 1190.5 c 128,-1,19
 726 1199 726 1199 669 1199 c 0,20,21
 588 1199 588 1199 532 1165.5 c 128,-1,22
 476 1132 476 1132 440 1076.5 c 128,-1,23
 404 1021 404 1021 386.5 950.5 c 128,-1,24
 369 880 369 880 365 805 c 1,25,26
 380 816 380 816 409 829.5 c 128,-1,27
 438 843 438 843 477.5 855 c 128,-1,28
 517 867 517 867 564.5 875 c 128,-1,29
 612 883 612 883 663 883 c 0,30,31
 747 883 747 883 819 857.5 c 128,-1,32
 891 832 891 832 943 778 c 128,-1,33
 995 724 995 724 1024.5 640.5 c 128,-1,34
 1054 557 1054 557 1054 440 c 0,35,36
 1054 335 1054 335 1021 251.5 c 128,-1,37
 988 168 988 168 928 110 c 128,-1,38
 868 52 868 52 784 21 c 128,-1,39
 700 -10 700 -10 598 -10 c 0,40,41
 463 -10 463 -10 375.5 39 c 128,-1,42
 288 88 288 88 236.5 172.5 c 128,-1,43
 185 257 185 257 164.5 370.5 c 128,-1,44
 144 484 144 484 144 613 c 0,0,1
365 638 m 1,45,46
 362 600 362 600 363 550.5 c 128,-1,47
 364 501 364 501 372 448 c 128,-1,48
 380 395 380 395 396 344 c 128,-1,49
 412 293 412 293 438.5 253 c 128,-1,50
 465 213 465 213 503.5 188.5 c 128,-1,51
 542 164 542 164 594 164 c 0,52,53
 657 164 657 164 701.5 186.5 c 128,-1,54
 746 209 746 209 774.5 248 c 128,-1,55
 803 287 803 287 816 339 c 128,-1,56
 829 391 829 391 829 450 c 0,57,58
 829 583 829 583 766.5 651.5 c 128,-1,59
 704 720 704 720 599 720 c 0,60,61
 566 720 566 720 532 714 c 128,-1,62
 498 708 498 708 467.5 697.5 c 128,-1,63
 437 687 437 687 410.5 672 c 128,-1,64
 384 657 384 657 365 638 c 1,45,46
EndSplineSet
EndChar

StartChar: seven
Encoding: 55 55 81
Width: 985
Flags: W
LayerCount: 2
Fore
SplineSet
210 44 m 1,0,1
 261 156 261 156 310 264 c 128,-1,2
 359 372 359 372 403 471 c 128,-1,3
 447 570 447 570 487 659 c 128,-1,4
 527 748 527 748 560 824 c 0,5,6
 638 1002 638 1002 704 1153 c 1,7,8
 590 1152 590 1152 486.5 1151 c 128,-1,9
 383 1150 383 1150 303 1148 c 0,10,11
 210 1146 210 1146 128 1145 c 1,12,13
 108 1173 108 1173 102 1205.5 c 128,-1,14
 96 1238 96 1238 96 1265 c 0,15,16
 96 1277 96 1277 96.5 1293.5 c 128,-1,17
 97 1310 97 1310 99 1324 c 1,18,19
 100 1341 100 1341 102 1358 c 1,20,-1
 911 1358 l 1,21,-1
 950 1283 l 1,22,23
 903 1191 903 1191 848 1059.5 c 128,-1,24
 793 928 793 928 730.5 762.5 c 128,-1,25
 668 597 668 597 597 400.5 c 128,-1,26
 526 204 526 204 446 -18 c 1,27,-1
 422 -26 l 1,28,29
 379 -24 379 -24 340.5 -13.5 c 128,-1,30
 302 -3 302 -3 273 10 c 0,31,32
 239 25 239 25 210 44 c 1,0,1
EndSplineSet
EndChar

StartChar: eight
Encoding: 56 56 82
Width: 1157
Flags: W
LayerCount: 2
Fore
SplineSet
108 367 m 0,0,1
 108 425 108 425 127 479.5 c 128,-1,2
 146 534 146 534 179.5 579.5 c 128,-1,3
 213 625 213 625 259 658.5 c 128,-1,4
 305 692 305 692 358 708 c 1,5,6
 264 745 264 745 209 822 c 128,-1,7
 154 899 154 899 154 1012 c 0,8,9
 154 1093 154 1093 183.5 1161 c 128,-1,10
 213 1229 213 1229 268 1277.5 c 128,-1,11
 323 1326 323 1326 402 1353 c 128,-1,12
 481 1380 481 1380 580 1380 c 0,13,14
 674 1380 674 1380 751.5 1353 c 128,-1,15
 829 1326 829 1326 884.5 1277.5 c 128,-1,16
 940 1229 940 1229 971 1161 c 128,-1,17
 1002 1093 1002 1093 1002 1012 c 0,18,19
 1002 959 1002 959 987.5 912 c 128,-1,20
 973 865 973 865 946 825.5 c 128,-1,21
 919 786 919 786 880.5 756.5 c 128,-1,22
 842 727 842 727 794 710 c 1,23,24
 848 694 848 694 894.5 662.5 c 128,-1,25
 941 631 941 631 975 587 c 128,-1,26
 1009 543 1009 543 1028.5 487 c 128,-1,27
 1048 431 1048 431 1048 367 c 0,28,29
 1048 277 1048 277 1012 205.5 c 128,-1,30
 976 134 976 134 913 84 c 128,-1,31
 850 34 850 34 764.5 7 c 128,-1,32
 679 -20 679 -20 580 -20 c 0,33,34
 476 -20 476 -20 389.5 7.5 c 128,-1,35
 303 35 303 35 240.5 85.5 c 128,-1,36
 178 136 178 136 143 207.5 c 128,-1,37
 108 279 108 279 108 367 c 0,0,1
341 369 m 0,38,39
 341 315 341 315 361 272 c 128,-1,40
 381 229 381 229 414 198 c 128,-1,41
 447 167 447 167 490 150.5 c 128,-1,42
 533 134 533 134 580 134 c 0,43,44
 623 134 623 134 665.5 150.5 c 128,-1,45
 708 167 708 167 741 198 c 128,-1,46
 774 229 774 229 794.5 272 c 128,-1,47
 815 315 815 315 815 369 c 0,48,49
 815 413 815 413 800.5 458.5 c 128,-1,50
 786 504 786 504 756.5 541 c 128,-1,51
 727 578 727 578 683 601.5 c 128,-1,52
 639 625 639 625 580 625 c 0,53,54
 515 625 515 625 469.5 603 c 128,-1,55
 424 581 424 581 395.5 545 c 128,-1,56
 367 509 367 509 354 463 c 128,-1,57
 341 417 341 417 341 369 c 0,38,39
580 782 m 0,58,59
 618 782 618 782 654 796 c 128,-1,60
 690 810 690 810 717.5 838 c 128,-1,61
 745 866 745 866 761.5 907.5 c 128,-1,62
 778 949 778 949 778 1003 c 256,63,64
 778 1057 778 1057 761.5 1099 c 128,-1,65
 745 1141 745 1141 717.5 1169 c 128,-1,66
 690 1197 690 1197 654 1211.5 c 128,-1,67
 618 1226 618 1226 580 1226 c 0,68,69
 535 1226 535 1226 498 1210.5 c 128,-1,70
 461 1195 461 1195 434.5 1166.5 c 128,-1,71
 408 1138 408 1138 393.5 1096.5 c 128,-1,72
 379 1055 379 1055 379 1003 c 256,73,74
 379 951 379 951 393.5 910 c 128,-1,75
 408 869 408 869 434 840.5 c 128,-1,76
 460 812 460 812 497.5 797 c 128,-1,77
 535 782 535 782 580 782 c 0,58,59
EndSplineSet
EndChar

StartChar: nine
Encoding: 57 57 77
Width: 1161
Flags: W
LayerCount: 2
Fore
SplineSet
1036 767 m 0,0,1
 1036 382 1036 382 900.5 186 c 128,-1,2
 765 -10 765 -10 501 -10 c 0,3,4
 426 -10 426 -10 370 -0.5 c 128,-1,5
 314 9 314 9 276 21 c 0,6,7
 231 35 231 35 199 53 c 1,8,9
 199 82 199 82 205 114 c 0,10,11
 210 140 210 140 221 172.5 c 128,-1,12
 232 205 232 205 254 234 c 1,13,14
 284 216 284 216 323 202 c 0,15,16
 356 190 356 190 401 180.5 c 128,-1,17
 446 171 446 171 501 171 c 0,18,19
 590 171 590 171 647.5 206.5 c 128,-1,20
 705 242 705 242 739.5 300 c 128,-1,21
 774 358 774 358 789 432.5 c 128,-1,22
 804 507 804 507 808 585 c 1,23,24
 794 571 794 571 766.5 554 c 128,-1,25
 739 537 739 537 702.5 522 c 128,-1,26
 666 507 666 507 621 497 c 128,-1,27
 576 487 576 487 527 487 c 0,28,29
 445 487 445 487 375 512.5 c 128,-1,30
 305 538 305 538 254 592 c 128,-1,31
 203 646 203 646 174.5 729.5 c 128,-1,32
 146 813 146 813 146 930 c 0,33,34
 146 1035 146 1035 177.5 1118.5 c 128,-1,35
 209 1202 209 1202 266.5 1260 c 128,-1,36
 324 1318 324 1318 404.5 1349 c 128,-1,37
 485 1380 485 1380 582 1380 c 0,38,39
 717 1380 717 1380 804.5 1332.5 c 128,-1,40
 892 1285 892 1285 943.5 1202.5 c 128,-1,41
 995 1120 995 1120 1015.5 1008 c 128,-1,42
 1036 896 1036 896 1036 767 c 0,0,1
806 930 m 0,43,44
 801 982 801 982 788 1031.5 c 128,-1,45
 775 1081 775 1081 749.5 1120 c 128,-1,46
 724 1159 724 1159 684 1182.5 c 128,-1,47
 644 1206 644 1206 586 1206 c 0,48,49
 529 1206 529 1206 488 1183.5 c 128,-1,50
 447 1161 447 1161 421 1122 c 128,-1,51
 395 1083 395 1083 383 1031 c 128,-1,52
 371 979 371 979 371 920 c 0,53,54
 371 786 371 786 430.5 718 c 128,-1,55
 490 650 490 650 591 650 c 0,56,57
 623 650 623 650 654 658.5 c 128,-1,58
 685 667 685 667 713.5 681.5 c 128,-1,59
 742 696 742 696 766 714 c 128,-1,60
 790 732 790 732 808 751 c 1,61,62
 811 789 811 789 810.5 834 c 128,-1,63
 810 879 810 879 806 930 c 0,43,44
EndSplineSet
EndChar

StartChar: less
Encoding: 60 60 138
Width: 1435
Flags: W
LayerCount: 2
Fore
SplineSet
215 653 m 1,0,-1
 1090 1118 l 1,1,-1
 1163 959 l 1,2,-1
 530 604 l 1,3,-1
 468 585 l 1,4,-1
 533 564 l 1,5,-1
 1163 211 l 1,6,-1
 1090 52 l 1,7,-1
 215 518 l 1,8,-1
 215 653 l 1,0,-1
EndSplineSet
EndChar

StartChar: equal
Encoding: 61 61 117
Width: 1362
Flags: W
LayerCount: 2
Fore
SplineSet
235 515 m 1,0,-1
 1109 515 l 1,1,-1
 1109 341 l 1,2,-1
 235 341 l 1,3,-1
 235 515 l 1,0,-1
235 1020 m 1,4,-1
 1109 1020 l 1,5,-1
 1109 846 l 1,6,-1
 235 846 l 1,7,-1
 235 1020 l 1,4,-1
EndSplineSet
EndChar

StartChar: question
Encoding: 63 63 128
Width: 851
Flags: W
LayerCount: 2
Fore
SplineSet
271 416 m 1,0,1
 269 431 269 431 268 460.5 c 128,-1,2
 267 490 267 490 266.5 522 c 128,-1,3
 266 554 266 554 265.5 582 c 128,-1,4
 265 610 265 610 265 621 c 0,5,6
 265 666 265 666 273.5 699.5 c 128,-1,7
 282 733 282 733 300 759 c 128,-1,8
 318 785 318 785 346 805 c 128,-1,9
 374 825 374 825 413 844 c 0,10,11
 500 886 500 886 540 938 c 128,-1,12
 580 990 580 990 580 1047 c 0,13,14
 580 1146 580 1146 521.5 1188.5 c 128,-1,15
 463 1231 463 1231 361 1231 c 0,16,17
 305 1231 305 1231 258.5 1215.5 c 128,-1,18
 212 1200 212 1200 177 1182 c 0,19,20
 137 1161 137 1161 104 1134 c 1,21,22
 79 1170 79 1170 65.5 1199.5 c 128,-1,23
 52 1229 52 1229 45 1250 c 0,24,25
 37 1275 37 1275 36 1294 c 1,26,27
 73 1325 73 1325 125 1350 c 0,28,29
 170 1371 170 1371 236 1388.5 c 128,-1,30
 302 1406 302 1406 391 1406 c 0,31,32
 482 1406 482 1406 559 1384.5 c 128,-1,33
 636 1363 636 1363 692 1321 c 128,-1,34
 748 1279 748 1279 779.5 1217.5 c 128,-1,35
 811 1156 811 1156 811 1077 c 0,36,37
 811 1009 811 1009 787 953.5 c 128,-1,38
 763 898 763 898 724 853.5 c 128,-1,39
 685 809 685 809 634.5 774 c 128,-1,40
 584 739 584 739 532 711 c 0,41,42
 497 693 497 693 477.5 671 c 128,-1,43
 458 649 458 649 448 615.5 c 128,-1,44
 438 582 438 582 435.5 532.5 c 128,-1,45
 433 483 433 483 433 409 c 1,46,47
 409 403 409 403 393.5 400 c 128,-1,48
 378 397 378 397 359 397 c 0,49,50
 321 397 321 397 289 405 c 1,51,-1
 271 416 l 1,0,1
206 138 m 0,52,53
 206 166 206 166 217.5 191 c 128,-1,54
 229 216 229 216 249 235 c 128,-1,55
 269 254 269 254 296 264.5 c 128,-1,56
 323 275 323 275 354 275 c 256,57,58
 385 275 385 275 412 264.5 c 128,-1,59
 439 254 439 254 459 235 c 128,-1,60
 479 216 479 216 490.5 191 c 128,-1,61
 502 166 502 166 502 138 c 0,62,63
 502 109 502 109 490.5 83.5 c 128,-1,64
 479 58 479 58 459 39.5 c 128,-1,65
 439 21 439 21 412 10 c 128,-1,66
 385 -1 385 -1 354 -1 c 256,67,68
 323 -1 323 -1 296 10 c 128,-1,69
 269 21 269 21 249 39.5 c 128,-1,70
 229 58 229 58 217.5 83.5 c 128,-1,71
 206 109 206 109 206 138 c 0,52,53
EndSplineSet
EndChar

StartChar: at
Encoding: 64 64 165
Width: 1853
Flags: W
LayerCount: 2
Fore
SplineSet
60 437 m 0,0,1
 60 604 60 604 101.5 739.5 c 128,-1,2
 143 875 143 875 214.5 980 c 128,-1,3
 286 1085 286 1085 381 1161.5 c 128,-1,4
 476 1238 476 1238 582.5 1287.5 c 128,-1,5
 689 1337 689 1337 801 1361 c 128,-1,6
 913 1385 913 1385 1019 1385 c 0,7,8
 1178 1385 1178 1385 1318 1348.5 c 128,-1,9
 1458 1312 1458 1312 1562 1237 c 128,-1,10
 1666 1162 1666 1162 1726 1046.5 c 128,-1,11
 1786 931 1786 931 1786 773 c 0,12,13
 1786 682 1786 682 1766 599 c 128,-1,14
 1746 516 1746 516 1710 444.5 c 128,-1,15
 1674 373 1674 373 1622.5 314.5 c 128,-1,16
 1571 256 1571 256 1509 215 c 128,-1,17
 1447 174 1447 174 1375 151.5 c 128,-1,18
 1303 129 1303 129 1225 129 c 0,19,20
 1164 129 1164 129 1124.5 141.5 c 128,-1,21
 1085 154 1085 154 1062 176 c 128,-1,22
 1039 198 1039 198 1029.5 229 c 128,-1,23
 1020 260 1020 260 1020 298 c 1,24,25
 1005 276 1005 276 981.5 249 c 128,-1,26
 958 222 958 222 926 199 c 128,-1,27
 894 176 894 176 854.5 160 c 128,-1,28
 815 144 815 144 769 144 c 0,29,30
 713 144 713 144 663 165 c 128,-1,31
 613 186 613 186 575.5 228 c 128,-1,32
 538 270 538 270 516.5 333.5 c 128,-1,33
 495 397 495 397 495 483 c 0,34,35
 495 563 495 563 513 635 c 128,-1,36
 531 707 531 707 563 768 c 128,-1,37
 595 829 595 829 637.5 878.5 c 128,-1,38
 680 928 680 928 729.5 962.5 c 128,-1,39
 779 997 779 997 832 1015.5 c 128,-1,40
 885 1034 885 1034 937 1034 c 0,41,42
 959 1034 959 1034 982 1030.5 c 128,-1,43
 1005 1027 1005 1027 1024 1022 c 0,44,45
 1046 1017 1046 1017 1067 1010 c 1,46,-1
 1070 1034 l 1,47,-1
 1273 1034 l 1,48,-1
 1201 433 l 2,49,50
 1194 374 1194 374 1192.5 337 c 128,-1,51
 1191 300 1191 300 1198.5 279.5 c 128,-1,52
 1206 259 1206 259 1224 252 c 128,-1,53
 1242 245 1242 245 1272 245 c 0,54,55
 1328 245 1328 245 1388 273.5 c 128,-1,56
 1448 302 1448 302 1498 363 c 128,-1,57
 1548 424 1548 424 1580.5 520 c 128,-1,58
 1613 616 1613 616 1613 750 c 0,59,60
 1613 879 1613 879 1566.5 974 c 128,-1,61
 1520 1069 1520 1069 1438.5 1132 c 128,-1,62
 1357 1195 1357 1195 1246 1226 c 128,-1,63
 1135 1257 1135 1257 1007 1257 c 0,64,65
 837 1257 837 1257 695 1203 c 128,-1,66
 553 1149 553 1149 451 1051 c 128,-1,67
 349 953 349 953 292.5 814 c 128,-1,68
 236 675 236 675 236 506 c 0,69,70
 236 363 236 363 282.5 251.5 c 128,-1,71
 329 140 329 140 414.5 63.5 c 128,-1,72
 500 -13 500 -13 620.5 -53 c 128,-1,73
 741 -93 741 -93 889 -93 c 0,74,75
 948 -93 948 -93 996.5 -86 c 128,-1,76
 1045 -79 1045 -79 1081 -71 c 0,77,78
 1122 -61 1122 -61 1157 -48 c 1,79,80
 1167 -64 1167 -64 1177 -82 c 0,81,82
 1185 -97 1185 -97 1193 -116.5 c 128,-1,83
 1201 -136 1201 -136 1205 -156 c 1,84,85
 1159 -177 1159 -177 1105 -193 c 0,86,87
 1058 -207 1058 -207 997 -218.5 c 128,-1,88
 936 -230 936 -230 867 -230 c 0,89,90
 673 -230 673 -230 523 -182.5 c 128,-1,91
 373 -135 373 -135 270 -48 c 128,-1,92
 167 39 167 39 113.5 162 c 128,-1,93
 60 285 60 285 60 437 c 0,0,1
708 505 m 0,94,95
 708 288 708 288 843 288 c 0,96,97
 885 288 885 288 915 306.5 c 128,-1,98
 945 325 945 325 965 348 c 0,99,100
 988 374 988 374 1003 408 c 1,101,-1
 1054 900 l 1,102,103
 1041 904 1041 904 1022.5 912 c 128,-1,104
 1004 920 1004 920 968 920 c 0,105,106
 908 920 908 920 860 885 c 128,-1,107
 812 850 812 850 778.5 792.5 c 128,-1,108
 745 735 745 735 726.5 660 c 128,-1,109
 708 585 708 585 708 505 c 0,94,95
EndSplineSet
EndChar

StartChar: A
Encoding: 65 65 46
Width: 1121
Flags: W
LayerCount: 2
Fore
SplineSet
384 1358 m 1,0,-1
 725 1358 l 1,1,-1
 1131 0 l 1,2,-1
 904 0 l 1,3,-1
 780 415 l 1,4,-1
 341 415 l 1,5,-1
 223 0 l 1,6,-1
 -10 0 l 1,7,-1
 384 1358 l 1,0,-1
733 589 m 1,8,-1
 550 1255 l 1,9,-1
 385 589 l 1,10,-1
 733 589 l 1,8,-1
EndSplineSet
EndChar

StartChar: B
Encoding: 66 66 1
Width: 1172
Flags: W
LayerCount: 2
Fore
SplineSet
158 1358 m 1,0,-1
 658 1358 l 2,1,2
 737 1358 737 1358 806 1336.5 c 128,-1,3
 875 1315 875 1315 925 1271.5 c 128,-1,4
 975 1228 975 1228 1004 1163.5 c 128,-1,5
 1033 1099 1033 1099 1033 1014 c 0,6,7
 1033 969 1033 969 1017.5 925 c 128,-1,8
 1002 881 1002 881 974.5 842.5 c 128,-1,9
 947 804 947 804 910 774.5 c 128,-1,10
 873 745 873 745 830 730 c 1,11,12
 875 722 875 722 920 696 c 128,-1,13
 965 670 965 670 1001 627 c 128,-1,14
 1037 584 1037 584 1059.5 526.5 c 128,-1,15
 1082 469 1082 469 1082 400 c 0,16,17
 1082 305 1082 305 1053.5 231 c 128,-1,18
 1025 157 1025 157 968 105.5 c 128,-1,19
 911 54 911 54 827 27 c 128,-1,20
 743 0 743 0 632 0 c 2,21,-1
 158 0 l 1,22,-1
 158 1358 l 1,0,-1
608 170 m 2,23,24
 663 170 663 170 707.5 182 c 128,-1,25
 752 194 752 194 784 221 c 128,-1,26
 816 248 816 248 833.5 291 c 128,-1,27
 851 334 851 334 851 396 c 0,28,29
 851 459 851 459 833.5 501.5 c 128,-1,30
 816 544 816 544 785.5 570.5 c 128,-1,31
 755 597 755 597 713.5 608 c 128,-1,32
 672 619 672 619 624 619 c 2,33,-1
 385 619 l 1,34,-1
 385 170 l 1,35,-1
 608 170 l 2,23,24
667 770 m 1,36,37
 737 791 737 791 769.5 850.5 c 128,-1,38
 802 910 802 910 802 1010 c 0,39,40
 802 1095 802 1095 752 1142.5 c 128,-1,41
 702 1190 702 1190 614 1190 c 2,42,-1
 385 1190 l 1,43,-1
 385 770 l 1,44,-1
 667 770 l 1,36,37
EndSplineSet
EndChar

StartChar: C
Encoding: 67 67 2
Width: 1069
Flags: W
LayerCount: 2
Fore
SplineSet
51 667 m 0,0,1
 51 838 51 838 91 971.5 c 128,-1,2
 131 1105 131 1105 209 1196.5 c 128,-1,3
 287 1288 287 1288 401 1336 c 128,-1,4
 515 1384 515 1384 663 1384 c 0,5,6
 722 1384 722 1384 779 1375.5 c 128,-1,7
 836 1367 836 1367 883 1356 c 0,8,9
 937 1344 937 1344 987 1329 c 1,10,11
 984 1303 984 1303 978 1274 c 0,12,13
 973 1248 973 1248 962.5 1215.5 c 128,-1,14
 952 1183 952 1183 935 1148 c 1,15,16
 898 1163 898 1163 854 1174 c 0,17,18
 816 1184 816 1184 767 1192 c 128,-1,19
 718 1200 718 1200 663 1200 c 0,20,21
 574 1200 574 1200 502.5 1164 c 128,-1,22
 431 1128 431 1128 380.5 1059.5 c 128,-1,23
 330 991 330 991 303 892 c 128,-1,24
 276 793 276 793 276 667 c 0,25,26
 276 542 276 542 303 447 c 128,-1,27
 330 352 330 352 380.5 288 c 128,-1,28
 431 224 431 224 502.5 191.5 c 128,-1,29
 574 159 574 159 663 159 c 0,30,31
 719 159 719 159 770 167 c 128,-1,32
 821 175 821 175 860 185 c 0,33,34
 906 196 906 196 945 212 c 1,35,36
 956 189 956 189 964 161 c 0,37,38
 971 137 971 137 976.5 103.5 c 128,-1,39
 982 70 982 70 980 28 c 1,40,41
 933 12 933 12 880 1 c 1,42,43
 835 -10 835 -10 778.5 -18 c 128,-1,44
 722 -26 722 -26 663 -26 c 0,45,46
 359 -26 359 -26 205 148.5 c 128,-1,47
 51 323 51 323 51 667 c 0,0,1
EndSplineSet
EndChar

StartChar: D
Encoding: 68 68 52
Width: 1255
Flags: W
LayerCount: 2
Fore
SplineSet
158 1357 m 1,0,1
 209 1359 209 1359 271 1362 c 0,2,3
 325 1364 325 1364 397.5 1366 c 128,-1,4
 470 1368 470 1368 557 1368 c 0,5,6
 713 1368 713 1368 833 1326.5 c 128,-1,7
 953 1285 953 1285 1035.5 1201 c 128,-1,8
 1118 1117 1118 1117 1160.5 990 c 128,-1,9
 1203 863 1203 863 1203 692 c 256,10,11
 1203 521 1203 521 1157 391.5 c 128,-1,12
 1111 262 1111 262 1025.5 175 c 128,-1,13
 940 88 940 88 818 44 c 128,-1,14
 696 0 696 0 543 0 c 2,15,-1
 158 0 l 1,16,-1
 158 1357 l 1,0,1
577 175 m 2,17,18
 670 175 670 175 743 214.5 c 128,-1,19
 816 254 816 254 867 323.5 c 128,-1,20
 918 393 918 393 945 486.5 c 128,-1,21
 972 580 972 580 972 688 c 0,22,23
 972 813 972 813 945 907.5 c 128,-1,24
 918 1002 918 1002 867 1066 c 128,-1,25
 816 1130 816 1130 743 1162 c 128,-1,26
 670 1194 670 1194 577 1194 c 0,27,28
 526 1194 526 1194 489 1193 c 128,-1,29
 452 1192 452 1192 429 1191 c 0,30,31
 402 1189 402 1189 384 1188 c 1,32,-1
 384 175 l 1,33,-1
 577 175 l 2,17,18
EndSplineSet
EndChar

StartChar: E
Encoding: 69 69 51
Width: 1019
Flags: W
LayerCount: 2
Fore
SplineSet
158 1358 m 1,0,-1
 937 1358 l 1,1,2
 937 1351 937 1351 938 1343 c 0,3,4
 939 1336 939 1336 939.5 1327.5 c 128,-1,5
 940 1319 940 1319 940 1309 c 0,6,7
 940 1292 940 1292 933.5 1257.5 c 128,-1,8
 927 1223 927 1223 905 1178 c 1,9,10
 822 1181 822 1181 733 1184 c 0,11,12
 657 1186 657 1186 565 1188.5 c 128,-1,13
 473 1191 473 1191 385 1191 c 1,14,-1
 385 781 l 1,15,16
 414 781 414 781 450.5 781.5 c 128,-1,17
 487 782 487 782 526.5 783 c 128,-1,18
 566 784 566 784 606 785 c 128,-1,19
 646 786 646 786 684 787 c 0,20,21
 772 790 772 790 865 792 c 1,22,23
 865 784 865 784 866 775 c 0,24,25
 867 767 867 767 867.5 756.5 c 128,-1,26
 868 746 868 746 868 735 c 0,27,28
 868 730 868 730 866.5 715.5 c 128,-1,29
 865 701 865 701 861.5 683 c 128,-1,30
 858 665 858 665 853.5 647 c 128,-1,31
 849 629 849 629 843 617 c 1,32,33
 750 617 750 617 664 618 c 0,34,35
 627 618 627 618 588 618 c 128,-1,36
 549 618 549 618 512.5 618.5 c 128,-1,37
 476 619 476 619 443 619 c 128,-1,38
 410 619 410 619 385 619 c 1,39,-1
 385 171 l 1,40,41
 473 171 473 171 570.5 174 c 128,-1,42
 668 177 668 177 752 180 c 0,43,44
 850 184 850 184 945 189 c 1,45,46
 945 180 945 180 946 170 c 0,47,48
 947 162 947 162 947.5 150.5 c 128,-1,49
 948 139 948 139 948 128 c 0,50,51
 948 107 948 107 945 73 c 128,-1,52
 942 39 942 39 932 0 c 1,53,-1
 158 0 l 1,54,-1
 158 1358 l 1,0,-1
EndSplineSet
EndChar

StartChar: F
Encoding: 70 70 50
Width: 991
Flags: W
LayerCount: 2
Fore
SplineSet
158 1358 m 1,0,-1
 937 1358 l 1,1,2
 937 1351 937 1351 938 1343 c 0,3,4
 939 1336 939 1336 939.5 1327.5 c 128,-1,5
 940 1319 940 1319 940 1309 c 0,6,7
 940 1292 940 1292 933.5 1257.5 c 128,-1,8
 927 1223 927 1223 905 1178 c 1,9,10
 823 1181 823 1181 735 1184 c 0,11,12
 660 1186 660 1186 567.5 1188.5 c 128,-1,13
 475 1191 475 1191 385 1191 c 1,14,-1
 385 748 l 1,15,16
 412 748 412 748 448 748.5 c 128,-1,17
 484 749 484 749 524 750 c 128,-1,18
 564 751 564 751 606.5 752.5 c 128,-1,19
 649 754 649 754 689 755 c 0,20,21
 783 758 783 758 885 761 c 1,22,23
 885 753 885 753 886 744 c 0,24,25
 887 736 887 736 887.5 725.5 c 128,-1,26
 888 715 888 715 888 704 c 0,27,28
 888 695 888 695 883.5 666 c 128,-1,29
 879 637 879 637 863 583 c 1,30,31
 757 583 757 583 663 584 c 0,32,33
 623 584 623 584 581.5 584 c 128,-1,34
 540 584 540 584 503 584.5 c 128,-1,35
 466 585 466 585 435 585 c 128,-1,36
 404 585 404 585 385 585 c 1,37,-1
 385 0 l 1,38,-1
 158 0 l 1,39,-1
 158 1358 l 1,0,-1
EndSplineSet
EndChar

StartChar: G
Encoding: 71 71 53
Width: 1151
Flags: W
LayerCount: 2
Fore
SplineSet
53 667 m 256,0,1
 53 838 53 838 94.5 971.5 c 128,-1,2
 136 1105 136 1105 216.5 1196.5 c 128,-1,3
 297 1288 297 1288 414.5 1336 c 128,-1,4
 532 1384 532 1384 685 1384 c 0,5,6
 743 1384 743 1384 803.5 1375.5 c 128,-1,7
 864 1367 864 1367 914 1356 c 0,8,9
 972 1344 972 1344 1026 1329 c 1,10,11
 1024 1304 1024 1304 1018 1276 c 0,12,13
 1013 1252 1013 1252 1003 1220.5 c 128,-1,14
 993 1189 993 1189 976 1154 c 1,15,16
 934 1169 934 1169 886 1180 c 0,17,18
 845 1190 845 1190 792.5 1198 c 128,-1,19
 740 1206 740 1206 685 1206 c 0,20,21
 592 1206 592 1206 517.5 1168 c 128,-1,22
 443 1130 443 1130 391.5 1059.5 c 128,-1,23
 340 989 340 989 312.5 889.5 c 128,-1,24
 285 790 285 790 285 667 c 0,25,26
 285 545 285 545 311 449 c 128,-1,27
 337 353 337 353 388 287 c 128,-1,28
 439 221 439 221 513.5 186 c 128,-1,29
 588 151 588 151 685 151 c 0,30,31
 701 151 701 151 721 151 c 128,-1,32
 741 151 741 151 761 152 c 128,-1,33
 781 153 781 153 800 153.5 c 128,-1,34
 819 154 819 154 834 156 c 1,35,36
 834 188 834 188 833 225 c 128,-1,37
 832 262 832 262 831 300.5 c 128,-1,38
 830 339 830 339 828.5 377 c 128,-1,39
 827 415 827 415 826 450 c 0,40,41
 822 532 822 532 819 615 c 1,42,43
 855 625 855 625 884.5 628 c 128,-1,44
 914 631 914 631 935 631 c 256,45,46
 956 631 956 631 976.5 628 c 128,-1,47
 997 625 997 625 1014 622 c 0,48,49
 1033 618 1033 618 1050 614 c 1,50,51
 1050 496 1050 496 1048.5 387.5 c 128,-1,52
 1047 279 1047 279 1045 195 c 0,53,54
 1042 96 1042 96 1040 11 c 1,55,-1
 1021 -2 l 1,56,57
 968 -9 968 -9 912 -14 c 0,58,59
 864 -19 864 -19 804 -22.5 c 128,-1,60
 744 -26 744 -26 685 -26 c 0,61,62
 532 -26 532 -26 414.5 18 c 128,-1,63
 297 62 297 62 216.5 149.5 c 128,-1,64
 136 237 136 237 94.5 366.5 c 128,-1,65
 53 496 53 496 53 667 c 256,0,1
EndSplineSet
EndChar

StartChar: H
Encoding: 72 72 3
Width: 1299
Flags: W
LayerCount: 2
Fore
SplineSet
158 1358 m 1,0,-1
 385 1358 l 1,1,-1
 385 781 l 1,2,-1
 915 781 l 1,3,-1
 915 1358 l 1,4,-1
 1141 1358 l 1,5,-1
 1141 0 l 1,6,-1
 915 0 l 1,7,-1
 915 607 l 1,8,-1
 385 607 l 1,9,-1
 385 0 l 1,10,-1
 158 0 l 1,11,-1
 158 1358 l 1,0,-1
EndSplineSet
EndChar

StartChar: I
Encoding: 73 73 4
Width: 542
Flags: W
LayerCount: 2
Fore
SplineSet
158 1358 m 1,0,-1
 384 1358 l 1,1,-1
 384 0 l 1,2,-1
 158 0 l 1,3,-1
 158 1358 l 1,0,-1
EndSplineSet
EndChar

StartChar: J
Encoding: 74 74 5
Width: 633
Flags: W
LayerCount: 2
Fore
SplineSet
223 1358 m 1,0,-1
 450 1358 l 1,1,-1
 450 123 l 2,2,3
 450 42 450 42 431.5 -22 c 128,-1,4
 413 -86 413 -86 372.5 -134 c 128,-1,5
 332 -182 332 -182 268.5 -215 c 128,-1,6
 205 -248 205 -248 116 -268 c 1,7,8
 97 -239 97 -239 83 -209.5 c 128,-1,9
 69 -180 69 -180 59 -156 c 0,10,11
 48 -128 48 -128 40 -102 c 1,12,13
 84 -93 84 -93 118 -75 c 128,-1,14
 152 -57 152 -57 175.5 -25.5 c 128,-1,15
 199 6 199 6 211 54 c 128,-1,16
 223 102 223 102 223 172 c 2,17,-1
 223 1358 l 1,0,-1
EndSplineSet
EndChar

StartChar: K
Encoding: 75 75 54
Width: 1128
Flags: W
LayerCount: 2
Fore
SplineSet
158 1358 m 1,0,-1
 385 1358 l 1,1,-1
 385 763 l 1,2,-1
 405 763 l 1,3,-1
 832 1358 l 1,4,-1
 1104 1358 l 1,5,-1
 590 695 l 1,6,-1
 1132 0 l 1,7,-1
 854 0 l 1,8,-1
 397 627 l 1,9,-1
 385 627 l 1,10,-1
 385 0 l 1,11,-1
 158 0 l 1,12,-1
 158 1358 l 1,0,-1
EndSplineSet
EndChar

StartChar: L
Encoding: 76 76 55
Width: 993
Flags: W
LayerCount: 2
Fore
SplineSet
158 1358 m 1,0,-1
 385 1358 l 1,1,-1
 385 188 l 1,2,3
 427 188 427 188 472.5 189 c 128,-1,4
 518 190 518 190 563.5 191 c 128,-1,5
 609 192 609 192 652.5 193.5 c 128,-1,6
 696 195 696 195 735 197 c 0,7,8
 827 201 827 201 915 205 c 1,9,10
 915 188 915 188 910.5 154 c 128,-1,11
 906 120 906 120 900 85.5 c 128,-1,12
 894 51 894 51 888.5 25.5 c 128,-1,13
 883 0 883 0 880 0 c 2,14,-1
 158 0 l 1,15,-1
 158 1358 l 1,0,-1
EndSplineSet
EndChar

StartChar: M
Encoding: 77 77 59
Width: 1573
Flags: W
LayerCount: 2
Fore
SplineSet
179 1358 m 1,0,-1
 520 1358 l 1,1,-1
 716 680 l 1,2,-1
 789 388 l 1,3,-1
 862 680 l 1,4,-1
 1053 1358 l 1,5,-1
 1394 1358 l 1,6,-1
 1468 0 l 1,7,-1
 1251 0 l 1,8,-1
 1210 982 l 1,9,-1
 1215 1245 l 1,10,11
 1192 1176 1192 1176 1167.5 1093 c 128,-1,12
 1143 1010 1143 1010 1117.5 920.5 c 128,-1,13
 1092 831 1092 831 1066.5 738.5 c 128,-1,14
 1041 646 1041 646 1015.5 556.5 c 128,-1,15
 990 467 990 467 965.5 384.5 c 128,-1,16
 941 302 941 302 918 234 c 1,17,-1
 661 234 l 1,18,-1
 355 1248 l 1,19,-1
 359 978 l 1,20,-1
 325 0 l 1,21,-1
 108 0 l 1,22,-1
 179 1358 l 1,0,-1
EndSplineSet
EndChar

StartChar: N
Encoding: 78 78 60
Width: 1351
Flags: W
LayerCount: 2
Fore
SplineSet
158 1358 m 1,0,-1
 517 1358 l 1,1,-1
 860 510 l 1,2,-1
 997 124 l 1,3,-1
 984 510 l 1,4,-1
 977 1358 l 1,5,-1
 1193 1358 l 1,6,-1
 1193 0 l 1,7,-1
 843 0 l 1,8,-1
 492 850 l 1,9,-1
 355 1242 l 1,10,-1
 368 850 l 1,11,-1
 375 0 l 1,12,-1
 158 0 l 1,13,-1
 158 1358 l 1,0,-1
EndSplineSet
EndChar

StartChar: O
Encoding: 79 79 57
Width: 1290
Flags: W
LayerCount: 2
Fore
SplineSet
649 -26 m 0,0,1
 499 -26 499 -26 391.5 22.5 c 128,-1,2
 284 71 284 71 215.5 162.5 c 128,-1,3
 147 254 147 254 115 384.5 c 128,-1,4
 83 515 83 515 83 679 c 256,5,6
 83 843 83 843 116.5 974 c 128,-1,7
 150 1105 150 1105 219.5 1196 c 128,-1,8
 289 1287 289 1287 396 1335.5 c 128,-1,9
 503 1384 503 1384 649 1384 c 0,10,11
 802 1384 802 1384 908 1338.5 c 128,-1,12
 1014 1293 1014 1293 1080.5 1205 c 128,-1,13
 1147 1117 1147 1117 1177 989.5 c 128,-1,14
 1207 862 1207 862 1207 698 c 0,15,16
 1207 533 1207 533 1175 399.5 c 128,-1,17
 1143 266 1143 266 1075 171.5 c 128,-1,18
 1007 77 1007 77 901.5 25.5 c 128,-1,19
 796 -26 796 -26 649 -26 c 0,0,1
649 149 m 256,20,21
 744 149 744 149 807.5 189 c 128,-1,22
 871 229 871 229 909.5 301.5 c 128,-1,23
 948 374 948 374 964.5 475 c 128,-1,24
 981 576 981 576 981 698 c 0,25,26
 981 829 981 829 964.5 925.5 c 128,-1,27
 948 1022 948 1022 909.5 1085.5 c 128,-1,28
 871 1149 871 1149 807.5 1180 c 128,-1,29
 744 1211 744 1211 649 1211 c 256,30,31
 554 1211 554 1211 488.5 1175.5 c 128,-1,32
 423 1140 423 1140 383 1071.5 c 128,-1,33
 343 1003 343 1003 325.5 904 c 128,-1,34
 308 805 308 805 308 679 c 256,35,36
 308 553 308 553 325.5 454 c 128,-1,37
 343 355 343 355 383 287.5 c 128,-1,38
 423 220 423 220 488.5 184.5 c 128,-1,39
 554 149 554 149 649 149 c 256,20,21
EndSplineSet
EndChar

StartChar: P
Encoding: 80 80 61
Width: 1096
Flags: W
LayerCount: 2
Fore
SplineSet
158 1358 m 1,0,-1
 623 1358 l 2,1,2
 723 1358 723 1358 802 1330.5 c 128,-1,3
 881 1303 881 1303 936 1250.5 c 128,-1,4
 991 1198 991 1198 1019.5 1122.5 c 128,-1,5
 1048 1047 1048 1047 1048 951 c 0,6,7
 1048 864 1048 864 1017.5 784.5 c 128,-1,8
 987 705 987 705 926.5 643.5 c 128,-1,9
 866 582 866 582 776 545.5 c 128,-1,10
 686 509 686 509 567 509 c 0,11,12
 529 509 529 509 496 510 c 128,-1,13
 463 511 463 511 438 513 c 0,14,15
 409 515 409 515 385 518 c 1,16,-1
 385 0 l 1,17,-1
 158 0 l 1,18,-1
 158 1358 l 1,0,-1
385 687 m 1,19,20
 400 685 400 685 430 682.5 c 128,-1,21
 460 680 460 680 502 680 c 0,22,23
 570 680 570 680 627.5 694 c 128,-1,24
 685 708 685 708 727 738.5 c 128,-1,25
 769 769 769 769 792.5 818 c 128,-1,26
 816 867 816 867 816 937 c 0,27,28
 816 993 816 993 804.5 1038.5 c 128,-1,29
 793 1084 793 1084 768.5 1116.5 c 128,-1,30
 744 1149 744 1149 705 1166.5 c 128,-1,31
 666 1184 666 1184 611 1184 c 2,32,-1
 385 1184 l 1,33,-1
 385 687 l 1,19,20
EndSplineSet
EndChar

StartChar: Q
Encoding: 81 81 63
Width: 1290
Flags: W
LayerCount: 2
Fore
SplineSet
659 -26 m 0,0,1
 505 -26 505 -26 395.5 22.5 c 128,-1,2
 286 71 286 71 216.5 162.5 c 128,-1,3
 147 254 147 254 115 384.5 c 128,-1,4
 83 515 83 515 83 679 c 256,5,6
 83 843 83 843 117 974 c 128,-1,7
 151 1105 151 1105 221 1196 c 128,-1,8
 291 1287 291 1287 398.5 1335.5 c 128,-1,9
 506 1384 506 1384 652 1384 c 0,10,11
 805 1384 805 1384 910.5 1338.5 c 128,-1,12
 1016 1293 1016 1293 1082 1205 c 128,-1,13
 1148 1117 1148 1117 1177.5 989.5 c 128,-1,14
 1207 862 1207 862 1207 698 c 0,15,16
 1207 467 1207 467 1147.5 307 c 128,-1,17
 1088 147 1088 147 962 60 c 1,18,-1
 962 43 l 1,19,20
 1010 14 1010 14 1060 -13 c 128,-1,21
 1110 -40 1110 -40 1152 -62 c 0,22,23
 1200 -88 1200 -88 1246 -110 c 1,24,25
 1233 -148 1233 -148 1210 -178.5 c 128,-1,26
 1187 -209 1187 -209 1164 -232 c 0,27,28
 1137 -258 1137 -258 1107 -280 c 1,29,30
 1048 -246 1048 -246 996.5 -210.5 c 128,-1,31
 945 -175 945 -175 899 -141 c 128,-1,32
 853 -107 853 -107 812.5 -76.5 c 128,-1,33
 772 -46 772 -46 736 -21 c 1,34,35
 729 -22 729 -22 718.5 -23 c 128,-1,36
 708 -24 708 -24 696.5 -24.5 c 128,-1,37
 685 -25 685 -25 675 -25.5 c 128,-1,38
 665 -26 665 -26 659 -26 c 0,0,1
652 149 m 256,39,40
 747 149 747 149 809.5 189 c 128,-1,41
 872 229 872 229 909 301.5 c 128,-1,42
 946 374 946 374 961 475 c 128,-1,43
 976 576 976 576 976 698 c 0,44,45
 976 829 976 829 961 926 c 128,-1,46
 946 1023 946 1023 909 1086.5 c 128,-1,47
 872 1150 872 1150 809.5 1181 c 128,-1,48
 747 1212 747 1212 652 1212 c 256,49,50
 557 1212 557 1212 492 1177.5 c 128,-1,51
 427 1143 427 1143 387 1075.5 c 128,-1,52
 347 1008 347 1008 330 908.5 c 128,-1,53
 313 809 313 809 313 679 c 0,54,55
 313 553 313 553 330 454 c 128,-1,56
 347 355 347 355 387 287.5 c 128,-1,57
 427 220 427 220 492 184.5 c 128,-1,58
 557 149 557 149 652 149 c 256,39,40
EndSplineSet
EndChar

StartChar: R
Encoding: 82 82 62
Width: 1140
Flags: W
LayerCount: 2
Fore
SplineSet
158 1358 m 1,0,-1
 634 1358 l 2,1,2
 734 1358 734 1358 811 1330.5 c 128,-1,3
 888 1303 888 1303 939.5 1252.5 c 128,-1,4
 991 1202 991 1202 1017.5 1130.5 c 128,-1,5
 1044 1059 1044 1059 1044 971 c 0,6,7
 1044 907 1044 907 1028 849.5 c 128,-1,8
 1012 792 1012 792 979.5 743.5 c 128,-1,9
 947 695 947 695 896.5 657 c 128,-1,10
 846 619 846 619 777 595 c 1,11,12
 815 522 815 522 858 447 c 128,-1,13
 901 372 901 372 944.5 297 c 128,-1,14
 988 222 988 222 1031 147 c 128,-1,15
 1074 72 1074 72 1112 0 c 1,16,-1
 868 0 l 1,17,-1
 571 561 l 1,18,-1
 557 561 l 2,19,20
 528 561 528 561 496.5 563.5 c 128,-1,21
 465 566 465 566 438 569 c 0,22,23
 406 573 406 573 376 578 c 1,24,-1
 376 0 l 1,25,-1
 158 0 l 1,26,-1
 158 1358 l 1,0,-1
376 739 m 1,27,28
 385 738 385 738 405.5 736.5 c 128,-1,29
 426 735 426 735 451.5 734 c 128,-1,30
 477 733 477 733 506.5 732.5 c 128,-1,31
 536 732 536 732 563 732 c 0,32,33
 690 732 690 732 752.5 789.5 c 128,-1,34
 815 847 815 847 815 967 c 0,35,36
 815 1072 815 1072 758.5 1128 c 128,-1,37
 702 1184 702 1184 598 1184 c 2,38,-1
 376 1184 l 1,39,-1
 376 739 l 1,27,28
EndSplineSet
EndChar

StartChar: S
Encoding: 83 83 64
Width: 1081
Flags: W
LayerCount: 2
Fore
SplineSet
107 49 m 1,0,1
 109 72 109 72 114 101 c 0,2,3
 119 125 119 125 127.5 158.5 c 128,-1,4
 136 192 136 192 153 231 c 1,5,6
 207 213 207 213 263 199 c 0,7,8
 311 187 311 187 368 177 c 128,-1,9
 425 167 425 167 477 167 c 0,10,11
 556 167 556 167 609.5 179 c 128,-1,12
 663 191 663 191 695.5 214.5 c 128,-1,13
 728 238 728 238 742 273.5 c 128,-1,14
 756 309 756 309 756 356 c 0,15,16
 756 409 756 409 741.5 446 c 128,-1,17
 727 483 727 483 697.5 510 c 128,-1,18
 668 537 668 537 622 556 c 128,-1,19
 576 575 576 575 513 593 c 0,20,21
 403 623 403 623 327 658.5 c 128,-1,22
 251 694 251 694 203.5 740 c 128,-1,23
 156 786 156 786 135 844.5 c 128,-1,24
 114 903 114 903 114 978 c 0,25,26
 114 1086 114 1086 147.5 1163 c 128,-1,27
 181 1240 181 1240 242.5 1289 c 128,-1,28
 304 1338 304 1338 391.5 1361 c 128,-1,29
 479 1384 479 1384 587 1384 c 0,30,31
 670 1384 670 1384 732.5 1371 c 128,-1,32
 795 1358 795 1358 838 1343 c 0,33,34
 888 1325 888 1325 925 1302 c 1,35,36
 922 1279 922 1279 913 1252 c 0,37,38
 905 1229 905 1229 891 1198 c 128,-1,39
 877 1167 877 1167 852 1131 c 1,40,41
 822 1151 822 1151 782 1167 c 0,42,43
 747 1181 747 1181 697.5 1192.5 c 128,-1,44
 648 1204 648 1204 583 1204 c 0,45,46
 512 1204 512 1204 463.5 1193 c 128,-1,47
 415 1182 415 1182 384 1158.5 c 128,-1,48
 353 1135 353 1135 339.5 1099.5 c 128,-1,49
 326 1064 326 1064 326 1015 c 0,50,51
 326 960 326 960 340 923.5 c 128,-1,52
 354 887 354 887 385 861.5 c 128,-1,53
 416 836 416 836 465.5 817 c 128,-1,54
 515 798 515 798 585 778 c 0,55,56
 690 749 690 749 764 716 c 128,-1,57
 838 683 838 683 884.5 639 c 128,-1,58
 931 595 931 595 952.5 534.5 c 128,-1,59
 974 474 974 474 974 389 c 0,60,61
 974 284 974 284 947 206.5 c 128,-1,62
 920 129 920 129 861 77 c 128,-1,63
 802 25 802 25 709 -0.5 c 128,-1,64
 616 -26 616 -26 485 -26 c 0,65,66
 407 -26 407 -26 338 -14.5 c 128,-1,67
 269 -3 269 -3 218 11 c 0,68,69
 157 28 157 28 107 49 c 1,0,1
EndSplineSet
EndChar

StartChar: T
Encoding: 84 84 56
Width: 963
Flags: W
LayerCount: 2
Fore
SplineSet
362 1190 m 1,0,1
 287 1189 287 1189 226.5 1188 c 128,-1,2
 166 1187 166 1187 123 1185 c 0,3,4
 73 1183 73 1183 34 1181 c 1,5,6
 32 1193 32 1193 31 1205 c 0,7,8
 28 1226 28 1226 28 1257 c 0,9,10
 28 1275 28 1275 30.5 1300.5 c 128,-1,11
 33 1326 33 1326 40 1358 c 1,12,-1
 930 1358 l 1,13,14
 931 1348 931 1348 932 1337 c 0,15,16
 933 1328 933 1328 934 1316.5 c 128,-1,17
 935 1305 935 1305 935 1294 c 0,18,19
 935 1274 935 1274 931.5 1242 c 128,-1,20
 928 1210 928 1210 919 1182 c 1,21,22
 911 1183 911 1183 877.5 1184.5 c 128,-1,23
 844 1186 844 1186 797 1187 c 128,-1,24
 750 1188 750 1188 695 1189 c 128,-1,25
 640 1190 640 1190 588 1190 c 1,26,-1
 588 0 l 1,27,-1
 362 0 l 1,28,-1
 362 1190 l 1,0,1
EndSplineSet
EndChar

StartChar: U
Encoding: 85 85 58
Width: 1241
Flags: W
LayerCount: 2
Fore
SplineSet
117 530 m 0,0,1
 117 561 117 561 117 613.5 c 128,-1,2
 117 666 117 666 117.5 730 c 128,-1,3
 118 794 118 794 118.5 865.5 c 128,-1,4
 119 937 119 937 119 1007 c 0,5,6
 120 1171 120 1171 121 1358 c 1,7,-1
 343 1358 l 1,8,-1
 343 497 l 2,9,10
 343 420 343 420 358 358 c 128,-1,11
 373 296 373 296 406.5 252 c 128,-1,12
 440 208 440 208 493 184 c 128,-1,13
 546 160 546 160 623 160 c 0,14,15
 699 160 699 160 753 184 c 128,-1,16
 807 208 807 208 841 252 c 128,-1,17
 875 296 875 296 890.5 358 c 128,-1,18
 906 420 906 420 906 497 c 0,19,20
 906 519 906 519 906 568 c 128,-1,21
 906 617 906 617 905.5 681.5 c 128,-1,22
 905 746 905 746 904.5 821.5 c 128,-1,23
 904 897 904 897 904 972 c 0,24,25
 903 1148 903 1148 902 1358 c 1,26,-1
 1123 1358 l 1,27,-1
 1123 530 l 2,28,29
 1123 394 1123 394 1097.5 291 c 128,-1,30
 1072 188 1072 188 1014 119 c 128,-1,31
 956 50 956 50 860 15 c 128,-1,32
 764 -20 764 -20 623 -20 c 0,33,34
 484 -20 484 -20 387.5 15.5 c 128,-1,35
 291 51 291 51 231 120.5 c 128,-1,36
 171 190 171 190 144 293 c 128,-1,37
 117 396 117 396 117 530 c 0,0,1
EndSplineSet
EndChar

StartChar: V
Encoding: 86 86 65
Width: 1078
Flags: W
LayerCount: 2
Fore
SplineSet
-30 1358 m 1,0,-1
 203 1358 l 1,1,-1
 476 390 l 1,2,-1
 537 135 l 1,3,-1
 599 390 l 1,4,-1
 877 1358 l 1,5,-1
 1108 1358 l 1,6,-1
 703 0 l 1,7,-1
 368 0 l 1,8,-1
 -30 1358 l 1,0,-1
EndSplineSet
EndChar

StartChar: W
Encoding: 87 87 66
Width: 1735
Flags: W
LayerCount: 2
Fore
SplineSet
-20 1358 m 1,0,-1
 214 1358 l 1,1,-1
 468 192 l 1,2,-1
 734 1358 l 1,3,-1
 1014 1358 l 1,4,-1
 1276 188 l 1,5,-1
 1531 1358 l 1,6,-1
 1755 1358 l 1,7,-1
 1435 0 l 1,8,-1
 1125 0 l 1,9,-1
 904 981 l 1,10,-1
 868 1232 l 1,11,-1
 831 981 l 1,12,-1
 609 0 l 1,13,-1
 298 0 l 1,14,-1
 -20 1358 l 1,0,-1
EndSplineSet
EndChar

StartChar: X
Encoding: 88 88 67
Width: 1130
Flags: W
LayerCount: 2
Fore
SplineSet
423 695 m 1,0,-1
 11 1358 l 1,1,-1
 268 1358 l 1,2,-1
 465 1020 l 1,3,-1
 555 832 l 1,4,-1
 562 832 l 1,5,-1
 653 1020 l 1,6,-1
 845 1358 l 1,7,-1
 1109 1358 l 1,8,-1
 685 673 l 1,9,-1
 1125 0 l 1,10,-1
 856 0 l 1,11,-1
 624 390 l 1,12,-1
 553 532 l 1,13,-1
 549 532 l 1,14,-1
 481 390 l 1,15,-1
 265 0 l 1,16,-1
 5 0 l 1,17,-1
 423 695 l 1,0,-1
EndSplineSet
EndChar

StartChar: Y
Encoding: 89 89 68
Width: 1001
Flags: W
LayerCount: 2
Fore
SplineSet
388 510 m 1,0,-1
 -20 1358 l 1,1,-1
 224 1358 l 1,2,-1
 441 850 l 1,3,-1
 499 674 l 1,4,-1
 557 849 l 1,5,-1
 777 1358 l 1,6,-1
 1021 1358 l 1,7,-1
 615 510 l 1,8,-1
 615 0 l 1,9,-1
 388 0 l 1,10,-1
 388 510 l 1,0,-1
EndSplineSet
EndChar

StartChar: Z
Encoding: 90 90 69
Width: 1050
Flags: W
LayerCount: 2
Fore
SplineSet
42 163 m 1,0,-1
 634 1058 l 1,1,-1
 744 1184 l 1,2,3
 623 1183 623 1183 512.5 1183 c 128,-1,4
 402 1183 402 1183 316 1183 c 2,5,-1
 129 1183 l 1,6,7
 121 1216 121 1216 117.5 1238.5 c 128,-1,8
 114 1261 114 1261 114 1277 c 256,9,10
 114 1293 114 1293 116.5 1308 c 128,-1,11
 119 1323 119 1323 122 1334 c 0,12,13
 126 1347 126 1347 131 1358 c 1,14,-1
 957 1358 l 1,15,-1
 977 1196 l 1,16,-1
 383 302 l 1,17,-1
 261 177 l 1,18,19
 321 177 321 177 384 177 c 128,-1,20
 447 177 447 177 508.5 177.5 c 128,-1,21
 570 178 570 178 628.5 178 c 128,-1,22
 687 178 687 178 738 178 c 2,23,-1
 972 178 l 1,24,25
 973 170 973 170 975 162 c 0,26,27
 976 155 976 155 977 146 c 128,-1,28
 978 137 978 137 978 129 c 0,29,30
 978 108 978 108 972 75.5 c 128,-1,31
 966 43 966 43 949 0 c 1,32,-1
 82 0 l 1,33,-1
 42 163 l 1,0,-1
EndSplineSet
EndChar

StartChar: bracketleft
Encoding: 91 91 83
Width: 587
Flags: W
LayerCount: 2
Fore
SplineSet
90 1538 m 1,0,-1
 537 1538 l 1,1,-1
 537 1403 l 1,2,-1
 294 1403 l 1,3,-1
 294 -196 l 1,4,-1
 537 -196 l 1,5,-1
 537 -331 l 1,6,-1
 90 -331 l 1,7,-1
 90 1538 l 1,0,-1
EndSplineSet
EndChar

StartChar: backslash
Encoding: 92 92 126
Width: 861
Flags: W
LayerCount: 2
Fore
SplineSet
374 484 m 1,0,-1
 53 1309 l 1,1,2
 72 1332 72 1332 101 1344.5 c 128,-1,3
 130 1357 130 1357 159 1365 c 0,4,5
 192 1373 192 1373 228 1377 c 1,6,-1
 528 547 l 1,7,-1
 808 -153 l 1,8,9
 782 -176 782 -176 751.5 -191 c 128,-1,10
 721 -206 721 -206 693 -215 c 0,11,12
 660 -226 660 -226 628 -232 c 1,13,-1
 374 484 l 1,0,-1
EndSplineSet
EndChar

StartChar: asciicircum
Encoding: 94 94 156
Width: 1196
Flags: W
LayerCount: 2
Fore
SplineSet
512 1358 m 1,0,-1
 671 1358 l 1,1,-1
 1056 220 l 1,2,-1
 885 142 l 1,3,-1
 601 1065 l 1,4,-1
 591 1117 l 1,5,-1
 580 1065 l 1,6,-1
 295 142 l 1,7,-1
 124 220 l 1,8,-1
 512 1358 l 1,0,-1
EndSplineSet
EndChar

StartChar: underscore
Encoding: 95 95 125
Width: 1364
Flags: W
LayerCount: 2
Fore
SplineSet
1373 -177 m 1,0,-1
 1373 -332 l 1,1,-1
 -9 -332 l 1,2,-1
 -9 -177 l 1,3,-1
 1373 -177 l 1,0,-1
EndSplineSet
EndChar

StartChar: grave
Encoding: 96 96 9
Width: 551
Flags: W
LayerCount: 2
Fore
SplineSet
-118 1468 m 1,0,1
 -111 1483 -111 1483 -89.5 1504.5 c 128,-1,2
 -68 1526 -68 1526 -41 1546.5 c 128,-1,3
 -14 1567 -14 1567 13.5 1583.5 c 128,-1,4
 41 1600 41 1600 59 1605 c 1,5,-1
 304 1259 l 1,6,7
 299 1247 299 1247 288 1233.5 c 128,-1,8
 277 1220 277 1220 262 1208 c 128,-1,9
 247 1196 247 1196 230.5 1185.5 c 128,-1,10
 214 1175 214 1175 199 1169 c 1,11,-1
 -118 1468 l 1,0,1
EndSplineSet
EndChar

StartChar: a
Encoding: 97 97 10
Width: 992
Flags: W
LayerCount: 2
Fore
SplineSet
64 292 m 0,0,1
 64 375 64 375 88 433 c 128,-1,2
 112 491 112 491 158.5 528 c 128,-1,3
 205 565 205 565 271.5 583.5 c 128,-1,4
 338 602 338 602 424 607 c 2,5,-1
 647 619 l 1,6,-1
 647 699 l 2,7,8
 647 753 647 753 637.5 788 c 128,-1,9
 628 823 628 823 606 844 c 128,-1,10
 584 865 584 865 547.5 873.5 c 128,-1,11
 511 882 511 882 457 882 c 256,12,13
 403 882 403 882 354.5 870 c 128,-1,14
 306 858 306 858 270 844 c 0,15,16
 227 827 227 827 191 806 c 1,17,18
 169 837 169 837 156 865.5 c 128,-1,19
 143 894 143 894 136 917 c 0,20,21
 127 943 127 943 124 967 c 1,22,23
 172 991 172 991 227 1009 c 0,24,25
 275 1025 275 1025 337.5 1038 c 128,-1,26
 400 1051 400 1051 469 1051 c 0,27,28
 583 1051 583 1051 658 1031 c 128,-1,29
 733 1011 733 1011 777.5 970.5 c 128,-1,30
 822 930 822 930 839.5 868.5 c 128,-1,31
 857 807 857 807 857 723 c 2,32,-1
 857 165 l 1,33,-1
 941 63 l 1,34,-1
 941 0 l 1,35,-1
 756 0 l 1,36,-1
 679 89 l 1,37,-1
 643 89 l 1,38,39
 638 84 638 84 616.5 66.5 c 128,-1,40
 595 49 595 49 561.5 29.5 c 128,-1,41
 528 10 528 10 485.5 -5 c 128,-1,42
 443 -20 443 -20 395 -20 c 0,43,44
 320 -20 320 -20 259 2.5 c 128,-1,45
 198 25 198 25 154.5 66.5 c 128,-1,46
 111 108 111 108 87.5 165.5 c 128,-1,47
 64 223 64 223 64 292 c 0,0,1
282 310 m 0,48,49
 282 264 282 264 295 233.5 c 128,-1,50
 308 203 308 203 331.5 185 c 128,-1,51
 355 167 355 167 388.5 160 c 128,-1,52
 422 153 422 153 463 153 c 0,53,54
 501 153 501 153 534.5 162.5 c 128,-1,55
 568 172 568 172 593 184 c 0,56,57
 622 197 622 197 647 215 c 1,58,-1
 647 484 l 1,59,-1
 446 471 l 2,60,61
 399 468 399 468 367.5 455 c 128,-1,62
 336 442 336 442 317 421 c 128,-1,63
 298 400 298 400 290 371.5 c 128,-1,64
 282 343 282 343 282 310 c 0,48,49
EndSplineSet
EndChar

StartChar: b
Encoding: 98 98 11
Width: 1089
Flags: W
LayerCount: 2
Fore
SplineSet
136 1439 m 1,0,-1
 348 1439 l 1,1,-1
 348 962 l 1,2,-1
 354 962 l 1,3,4
 361 968 361 968 382 983 c 128,-1,5
 403 998 403 998 436.5 1013 c 128,-1,6
 470 1028 470 1028 514.5 1039.5 c 128,-1,7
 559 1051 559 1051 615 1051 c 0,8,9
 691 1051 691 1051 762.5 1027 c 128,-1,10
 834 1003 834 1003 889 944 c 128,-1,11
 944 885 944 885 977 784.5 c 128,-1,12
 1010 684 1010 684 1010 531 c 0,13,14
 1010 393 1010 393 970 290 c 128,-1,15
 930 187 930 187 862 118 c 128,-1,16
 794 49 794 49 703.5 14.5 c 128,-1,17
 613 -20 613 -20 512 -20 c 0,18,19
 421 -20 421 -20 351.5 -13 c 128,-1,20
 282 -6 282 -6 234 3 c 0,21,22
 178 13 178 13 136 26 c 1,23,-1
 136 1439 l 1,0,-1
348 157 m 1,24,25
 362 151 362 151 391.5 143 c 128,-1,26
 421 135 421 135 467 135 c 0,27,28
 622 135 622 135 703.5 238 c 128,-1,29
 785 341 785 341 785 531 c 0,30,31
 785 637 785 637 765.5 706 c 128,-1,32
 746 775 746 775 710 815.5 c 128,-1,33
 674 856 674 856 622.5 872 c 128,-1,34
 571 888 571 888 506 888 c 0,35,36
 479 888 479 888 451 879.5 c 128,-1,37
 423 871 423 871 400 860 c 0,38,39
 373 848 373 848 348 833 c 1,40,-1
 348 157 l 1,24,25
EndSplineSet
EndChar

StartChar: c
Encoding: 99 99 12
Width: 858
Flags: W
LayerCount: 2
Fore
SplineSet
79 513 m 0,0,1
 79 645 79 645 111 745.5 c 128,-1,2
 143 846 143 846 204.5 914 c 128,-1,3
 266 982 266 982 355.5 1016.5 c 128,-1,4
 445 1051 445 1051 560 1051 c 0,5,6
 602 1051 602 1051 645 1043 c 128,-1,7
 688 1035 688 1035 723 1026 c 0,8,9
 763 1015 763 1015 801 1001 c 1,10,11
 798 973 798 973 792 943 c 0,12,13
 787 917 787 917 777.5 886.5 c 128,-1,14
 768 856 768 856 754 827 c 1,15,16
 727 838 727 838 696 848 c 0,17,18
 669 856 669 856 634 863 c 128,-1,19
 599 870 599 870 560 870 c 0,20,21
 493 870 493 870 443.5 845.5 c 128,-1,22
 394 821 394 821 361 774.5 c 128,-1,23
 328 728 328 728 312 662 c 128,-1,24
 296 596 296 596 296 514 c 0,25,26
 296 334 296 334 365.5 241 c 128,-1,27
 435 148 435 148 570 148 c 0,28,29
 610 148 610 148 646 154.5 c 128,-1,30
 682 161 682 161 711 169 c 0,31,32
 744 179 744 179 773 191 c 1,33,34
 783 169 783 169 791 143 c 0,35,36
 798 120 798 120 803.5 90.5 c 128,-1,37
 809 61 809 61 808 27 c 1,38,39
 771 14 771 14 731 3 c 0,40,41
 697 -6 697 -6 654.5 -13 c 128,-1,42
 612 -20 612 -20 570 -20 c 0,43,44
 335 -20 335 -20 207 114 c 128,-1,45
 79 248 79 248 79 513 c 0,0,1
EndSplineSet
EndChar

StartChar: e
Encoding: 101 101 14
Width: 1043
Flags: W
LayerCount: 2
Fore
SplineSet
77 501 m 0,0,1
 77 645 77 645 112 749 c 128,-1,2
 147 853 147 853 210 920 c 128,-1,3
 273 987 273 987 360.5 1018.5 c 128,-1,4
 448 1050 448 1050 553 1050 c 0,5,6
 650 1050 650 1050 726.5 1017.5 c 128,-1,7
 803 985 803 985 856 926 c 128,-1,8
 909 867 909 867 937 785 c 128,-1,9
 965 703 965 703 965 604 c 0,10,11
 965 570 965 570 962 541 c 128,-1,12
 959 512 959 512 955 491 c 0,13,14
 951 466 951 466 946 446 c 1,15,-1
 290 449 l 1,16,17
 291 360 291 360 309 301.5 c 128,-1,18
 327 243 327 243 362.5 209 c 128,-1,19
 398 175 398 175 452 161.5 c 128,-1,20
 506 148 506 148 580 148 c 0,21,22
 643 148 643 148 693 156 c 128,-1,23
 743 164 743 164 778 175 c 0,24,25
 818 187 818 187 850 203 c 1,26,27
 865 168 865 168 873.5 138 c 128,-1,28
 882 108 882 108 886 86 c 0,29,30
 890 60 890 60 892 40 c 1,31,32
 859 23 859 23 812 10 c 0,33,34
 772 -1 772 -1 714 -10.5 c 128,-1,35
 656 -20 656 -20 580 -20 c 0,36,37
 460 -20 460 -20 366.5 7 c 128,-1,38
 273 34 273 34 208.5 95.5 c 128,-1,39
 144 157 144 157 110.5 256.5 c 128,-1,40
 77 356 77 356 77 501 c 0,0,1
751 595 m 1,41,-1
 751 629 l 2,42,43
 751 692 751 692 735.5 740.5 c 128,-1,44
 720 789 720 789 693 822 c 128,-1,45
 666 855 666 855 629 872 c 128,-1,46
 592 889 592 889 549 889 c 0,47,48
 486 889 486 889 438 872.5 c 128,-1,49
 390 856 390 856 357.5 820.5 c 128,-1,50
 325 785 325 785 309 729 c 128,-1,51
 293 673 293 673 293 595 c 1,52,-1
 751 595 l 1,41,-1
EndSplineSet
EndChar

StartChar: f
Encoding: 102 102 15
Width: 696
Flags: W
LayerCount: 2
Fore
SplineSet
206 867 m 1,0,-1
 58 867 l 1,1,2
 55 891 55 891 54 912 c 128,-1,3
 53 933 53 933 53 950 c 0,4,5
 53 981 53 981 56 1001 c 0,6,7
 57 1012 57 1012 59 1022 c 1,8,-1
 206 1022 l 1,9,-1
 206 1132 l 2,10,11
 206 1195 206 1195 225.5 1254.5 c 128,-1,12
 245 1314 245 1314 285.5 1359.5 c 128,-1,13
 326 1405 326 1405 388 1432.5 c 128,-1,14
 450 1460 450 1460 536 1460 c 0,15,16
 578 1460 578 1460 609 1456 c 128,-1,17
 640 1452 640 1452 662 1447 c 0,18,19
 688 1441 688 1441 706 1434 c 1,20,21
 704 1409 704 1409 699 1382 c 0,22,23
 694 1359 694 1359 684.5 1329.5 c 128,-1,24
 675 1300 675 1300 659 1270 c 1,25,26
 644 1274 644 1274 626 1278 c 0,27,28
 611 1281 611 1281 591 1284 c 128,-1,29
 571 1287 571 1287 551 1287 c 0,30,31
 483 1287 483 1287 449.5 1249.5 c 128,-1,32
 416 1212 416 1212 416 1126 c 2,33,-1
 416 1022 l 1,34,-1
 641 1022 l 1,35,36
 642 1018 642 1018 643 1012 c 0,37,38
 644 1007 644 1007 645 999.5 c 128,-1,39
 646 992 646 992 646 982 c 0,40,41
 646 962 646 962 640.5 933 c 128,-1,42
 635 904 635 904 617 867 c 1,43,-1
 416 867 l 1,44,-1
 416 0 l 1,45,-1
 206 0 l 1,46,-1
 206 867 l 1,0,-1
EndSplineSet
EndChar

StartChar: g
Encoding: 103 103 16
Width: 1107
Flags: W
LayerCount: 2
Fore
SplineSet
213 41 m 1,0,1
 190 69 190 69 178 107.5 c 128,-1,2
 166 146 166 146 166 188 c 0,3,4
 166 234 166 234 172.5 268.5 c 128,-1,5
 179 303 179 303 187 326 c 0,6,7
 196 353 196 353 208 372 c 1,8,-1
 208 418 l 1,9,10
 160 466 160 466 131.5 531 c 128,-1,11
 103 596 103 596 103 689 c 0,12,13
 103 773 103 773 132 839.5 c 128,-1,14
 161 906 161 906 214.5 952.5 c 128,-1,15
 268 999 268 999 344 1024 c 128,-1,16
 420 1049 420 1049 514 1049 c 2,17,-1
 515 1049 l 2,18,19
 581 1049 581 1049 624.5 1044 c 128,-1,20
 668 1039 668 1039 695 1033 c 0,21,22
 727 1026 727 1026 745 1017 c 1,23,-1
 1027 1047 l 1,24,-1
 1027 885 l 1,25,-1
 864 885 l 1,26,27
 877 872 877 872 891 851 c 128,-1,28
 905 830 905 830 916.5 804 c 128,-1,29
 928 778 928 778 935.5 748.5 c 128,-1,30
 943 719 943 719 943 689 c 0,31,32
 943 606 943 606 911 538.5 c 128,-1,33
 879 471 879 471 822 422 c 128,-1,34
 765 373 765 373 686.5 346 c 128,-1,35
 608 319 608 319 515 319 c 2,36,-1
 514 319 l 2,37,38
 493 319 493 319 469 320.5 c 128,-1,39
 445 322 445 322 420 324.5 c 128,-1,40
 395 327 395 327 372 330.5 c 128,-1,41
 349 334 349 334 330 339 c 1,42,-1
 330 201 l 2,43,44
 330 190 330 190 337 182 c 128,-1,45
 344 174 344 174 354.5 168.5 c 128,-1,46
 365 163 365 163 378 160 c 128,-1,47
 391 157 391 157 403 157 c 2,48,-1
 798 157 l 2,49,50
 869 157 869 157 917.5 137 c 128,-1,51
 966 117 966 117 996 81.5 c 128,-1,52
 1026 46 1026 46 1039 -4 c 128,-1,53
 1052 -54 1052 -54 1052 -114 c 0,54,55
 1052 -190 1052 -190 1018.5 -259 c 128,-1,56
 985 -328 985 -328 920 -380 c 128,-1,57
 855 -432 855 -432 758.5 -462.5 c 128,-1,58
 662 -493 662 -493 536 -493 c 2,59,-1
 535 -493 l 2,60,61
 431 -493 431 -493 349 -470.5 c 128,-1,62
 267 -448 267 -448 210.5 -408.5 c 128,-1,63
 154 -369 154 -369 124 -315 c 128,-1,64
 94 -261 94 -261 94 -198 c 0,65,66
 94 -156 94 -156 112 -117 c 128,-1,67
 130 -78 130 -78 153 -48 c 0,68,69
 179 -13 179 -13 213 18 c 1,70,-1
 213 41 l 1,0,1
515 468 m 2,71,72
 574 468 574 468 616 479.5 c 128,-1,73
 658 491 658 491 685 517 c 128,-1,74
 712 543 712 543 724.5 585 c 128,-1,75
 737 627 737 627 737 689 c 0,76,77
 737 802 737 802 685 851 c 128,-1,78
 633 900 633 900 515 900 c 2,79,-1
 514 900 l 2,80,81
 454 900 454 900 414 888.5 c 128,-1,82
 374 877 374 877 351 851.5 c 128,-1,83
 328 826 328 826 318.5 786 c 128,-1,84
 309 746 309 746 309 689 c 0,85,86
 309 633 309 633 318 591.5 c 128,-1,87
 327 550 327 550 350.5 522.5 c 128,-1,88
 374 495 374 495 413.5 481.5 c 128,-1,89
 453 468 453 468 514 468 c 2,90,-1
 515 468 l 2,71,72
290 -161 m 0,91,92
 290 -187 290 -187 298 -216 c 128,-1,93
 306 -245 306 -245 332.5 -269 c 128,-1,94
 359 -293 359 -293 408 -308.5 c 128,-1,95
 457 -324 457 -324 540 -324 c 2,96,-1
 541 -324 l 2,97,98
 620 -324 620 -324 679 -305.5 c 128,-1,99
 738 -287 738 -287 776.5 -257 c 128,-1,100
 815 -227 815 -227 834 -190 c 128,-1,101
 853 -153 853 -153 853 -116 c 0,102,103
 853 -69 853 -69 834.5 -43.5 c 128,-1,104
 816 -18 816 -18 780 -18 c 2,105,-1
 333 -18 l 1,106,107
 321 -31 321 -31 305.5 -69 c 128,-1,108
 290 -107 290 -107 290 -161 c 0,91,92
EndSplineSet
EndChar

StartChar: h
Encoding: 104 104 17
Width: 1127
Flags: W
LayerCount: 2
Fore
SplineSet
136 1440 m 1,0,-1
 351 1440 l 1,1,-1
 351 1104 l 1,2,-1
 341 951 l 1,3,-1
 347 951 l 1,4,5
 354 957 354 957 380.5 973.5 c 128,-1,6
 407 990 407 990 446.5 1007 c 128,-1,7
 486 1024 486 1024 535.5 1037 c 128,-1,8
 585 1050 585 1050 638 1050 c 0,9,10
 722 1050 722 1050 786.5 1025 c 128,-1,11
 851 1000 851 1000 895 953.5 c 128,-1,12
 939 907 939 907 961.5 842 c 128,-1,13
 984 777 984 777 984 696 c 2,14,-1
 984 0 l 1,15,-1
 769 0 l 1,16,-1
 769 675 l 2,17,18
 769 784 769 784 725.5 835.5 c 128,-1,19
 682 887 682 887 582 887 c 0,20,21
 534 887 534 887 492.5 878.5 c 128,-1,22
 451 870 451 870 419 859 c 0,23,24
 382 847 382 847 351 831 c 1,25,-1
 351 0 l 1,26,-1
 136 0 l 1,27,-1
 136 1440 l 1,0,-1
EndSplineSet
EndChar

StartChar: i
Encoding: 105 105 18
Width: 521
Flags: W
LayerCount: 2
Fore
SplineSet
256 1195 m 256,0,1
 228 1195 228 1195 203.5 1205 c 128,-1,2
 179 1215 179 1215 160.5 1232 c 128,-1,3
 142 1249 142 1249 131 1271.5 c 128,-1,4
 120 1294 120 1294 120 1320 c 0,5,6
 120 1347 120 1347 131 1370 c 128,-1,7
 142 1393 142 1393 160.5 1410 c 128,-1,8
 179 1427 179 1427 203.5 1436.5 c 128,-1,9
 228 1446 228 1446 256 1446 c 256,10,11
 284 1446 284 1446 309 1436.5 c 128,-1,12
 334 1427 334 1427 352.5 1410 c 128,-1,13
 371 1393 371 1393 382 1370 c 128,-1,14
 393 1347 393 1347 393 1320 c 0,15,16
 393 1294 393 1294 382 1271.5 c 128,-1,17
 371 1249 371 1249 352.5 1232 c 128,-1,18
 334 1215 334 1215 309 1205 c 128,-1,19
 284 1195 284 1195 256 1195 c 256,0,1
141 1022 m 1,20,-1
 349 1022 l 1,21,-1
 349 168 l 1,22,-1
 408 126 l 1,23,-1
 408 0 l 1,24,-1
 351 0 l 1,25,-1
 349 2 l 1,26,-1
 349 0 l 1,27,28
 250 0 250 0 195.5 40 c 128,-1,29
 141 80 141 80 141 172 c 2,30,-1
 141 1022 l 1,20,-1
EndSplineSet
EndChar

StartChar: j
Encoding: 106 106 19
Width: 521
Flags: W
LayerCount: 2
Fore
SplineSet
158 1020 m 1,0,-1
 374 1020 l 1,1,-1
 374 -98 l 2,2,3
 374 -161 374 -161 358 -210.5 c 128,-1,4
 342 -260 342 -260 306.5 -298.5 c 128,-1,5
 271 -337 271 -337 214.5 -364.5 c 128,-1,6
 158 -392 158 -392 77 -410 c 1,7,8
 58 -381 58 -381 47.5 -356 c 128,-1,9
 37 -331 37 -331 32 -314 c 0,10,11
 26 -294 26 -294 23 -278 c 1,12,13
 89 -263 89 -263 123.5 -215 c 128,-1,14
 158 -167 158 -167 158 -80 c 2,15,-1
 158 1020 l 1,0,-1
270 1195 m 256,16,17
 242 1195 242 1195 217.5 1205 c 128,-1,18
 193 1215 193 1215 174.5 1232 c 128,-1,19
 156 1249 156 1249 145.5 1271.5 c 128,-1,20
 135 1294 135 1294 135 1320 c 0,21,22
 135 1347 135 1347 145.5 1370 c 128,-1,23
 156 1393 156 1393 174.5 1410 c 128,-1,24
 193 1427 193 1427 217.5 1436.5 c 128,-1,25
 242 1446 242 1446 270 1446 c 256,26,27
 298 1446 298 1446 323 1436.5 c 128,-1,28
 348 1427 348 1427 367 1410 c 128,-1,29
 386 1393 386 1393 397 1370 c 128,-1,30
 408 1347 408 1347 408 1320 c 0,31,32
 408 1294 408 1294 397 1271.5 c 128,-1,33
 386 1249 386 1249 367 1232 c 128,-1,34
 348 1215 348 1215 323 1205 c 128,-1,35
 298 1195 298 1195 270 1195 c 256,16,17
EndSplineSet
EndChar

StartChar: k
Encoding: 107 107 20
Width: 985
Flags: W
LayerCount: 2
Fore
SplineSet
136 1440 m 1,0,-1
 340 1440 l 1,1,-1
 340 679 l 1,2,-1
 330 534 l 1,3,-1
 383 597 l 1,4,-1
 704 1022 l 1,5,-1
 946 1022 l 1,6,-1
 621 610 l 1,7,-1
 538 531 l 1,8,-1
 603 472 l 1,9,-1
 964 0 l 1,10,-1
 721 0 l 1,11,-1
 377 462 l 1,12,-1
 330 522 l 1,13,-1
 340 340 l 1,14,-1
 340 0 l 1,15,-1
 136 0 l 1,16,-1
 136 1440 l 1,0,-1
EndSplineSet
EndChar

StartChar: l
Encoding: 108 108 21
Width: 483
Flags: W
LayerCount: 2
Fore
SplineSet
124 1439 m 1,0,-1
 331 1439 l 1,1,-1
 331 168 l 1,2,-1
 390 126 l 1,3,-1
 390 0 l 1,4,-1
 333 0 l 1,5,-1
 331 2 l 1,6,-1
 331 0 l 1,7,8
 232 0 232 0 178 40 c 128,-1,9
 124 80 124 80 124 172 c 2,10,-1
 124 1439 l 1,0,-1
EndSplineSet
EndChar

StartChar: m
Encoding: 109 109 22
Width: 1707
Flags: W
LayerCount: 2
Fore
SplineSet
73 920 m 1,0,-1
 73 1033 l 1,1,-1
 257 1033 l 1,2,-1
 343 946 l 1,3,-1
 370 962 l 1,4,5
 375 967 375 967 399.5 981.5 c 128,-1,6
 424 996 424 996 461 1011.5 c 128,-1,7
 498 1027 498 1027 544.5 1039 c 128,-1,8
 591 1051 591 1051 639 1051 c 0,9,10
 728 1051 728 1051 785.5 1025 c 128,-1,11
 843 999 843 999 886 950 c 1,12,13
 902 963 902 963 933 980.5 c 128,-1,14
 964 998 964 998 1004.5 1014 c 128,-1,15
 1045 1030 1045 1030 1092 1040.5 c 128,-1,16
 1139 1051 1139 1051 1187 1051 c 0,17,18
 1271 1051 1271 1051 1340.5 1026 c 128,-1,19
 1410 1001 1410 1001 1459.5 954.5 c 128,-1,20
 1509 908 1509 908 1536.5 843 c 128,-1,21
 1564 778 1564 778 1564 697 c 2,22,-1
 1564 0 l 1,23,-1
 1349 0 l 1,24,-1
 1349 676 l 2,25,26
 1349 784 1349 784 1291 836 c 128,-1,27
 1233 888 1233 888 1133 888 c 0,28,29
 1074 888 1074 888 1022.5 878.5 c 128,-1,30
 971 869 971 869 946 858 c 1,31,32
 960 826 960 826 968 790 c 128,-1,33
 976 754 976 754 976 717 c 2,34,-1
 976 0 l 1,35,-1
 761 0 l 1,36,-1
 761 696 l 2,37,38
 761 793 761 793 721 840.5 c 128,-1,39
 681 888 681 888 584 888 c 0,40,41
 538 888 538 888 498 879.5 c 128,-1,42
 458 871 458 871 429 860 c 0,43,44
 395 848 395 848 366 833 c 1,45,-1
 366 0 l 1,46,-1
 152 0 l 1,47,-1
 152 839 l 1,48,-1
 73 920 l 1,0,-1
EndSplineSet
EndChar

StartChar: n
Encoding: 110 110 23
Width: 1148
Flags: W
LayerCount: 2
Fore
SplineSet
152 839 m 1,0,-1
 73 920 l 1,1,-1
 73 1033 l 1,2,-1
 257 1033 l 1,3,-1
 343 955 l 1,4,-1
 372 961 l 1,5,6
 379 967 379 967 404.5 982 c 128,-1,7
 430 997 430 997 467.5 1012 c 128,-1,8
 505 1027 505 1027 553 1038.5 c 128,-1,9
 601 1050 601 1050 654 1050 c 0,10,11
 738 1050 738 1050 803.5 1025 c 128,-1,12
 869 1000 869 1000 914 953.5 c 128,-1,13
 959 907 959 907 982 842 c 128,-1,14
 1005 777 1005 777 1005 696 c 2,15,-1
 1005 0 l 1,16,-1
 790 0 l 1,17,-1
 790 675 l 2,18,19
 790 784 790 784 744.5 835.5 c 128,-1,20
 699 887 699 887 600 887 c 0,21,22
 551 887 551 887 509 878.5 c 128,-1,23
 467 870 467 870 435 859 c 0,24,25
 398 847 398 847 366 831 c 1,26,-1
 366 0 l 1,27,-1
 152 0 l 1,28,-1
 152 839 l 1,0,-1
EndSplineSet
EndChar

StartChar: o
Encoding: 111 111 24
Width: 1118
Flags: W
LayerCount: 2
Fore
SplineSet
76 511 m 256,0,1
 76 643 76 643 111.5 744 c 128,-1,2
 147 845 147 845 211.5 913 c 128,-1,3
 276 981 276 981 365.5 1016 c 128,-1,4
 455 1051 455 1051 563 1051 c 0,5,6
 674 1051 674 1051 763 1018.5 c 128,-1,7
 852 986 852 986 914 920 c 128,-1,8
 976 854 976 854 1009 755.5 c 128,-1,9
 1042 657 1042 657 1042 525 c 256,10,11
 1042 393 1042 393 1008.5 291 c 128,-1,12
 975 189 975 189 912.5 120 c 128,-1,13
 850 51 850 51 761.5 15.5 c 128,-1,14
 673 -20 673 -20 563 -20 c 0,15,16
 449 -20 449 -20 358.5 13.5 c 128,-1,17
 268 47 268 47 205.5 113.5 c 128,-1,18
 143 180 143 180 109.5 279.5 c 128,-1,19
 76 379 76 379 76 511 c 256,0,1
563 145 m 0,20,21
 629 145 629 145 677.5 173.5 c 128,-1,22
 726 202 726 202 757 252.5 c 128,-1,23
 788 303 788 303 803 372.5 c 128,-1,24
 818 442 818 442 818 525 c 0,25,26
 818 704 818 704 757 798 c 128,-1,27
 696 892 696 892 563 892 c 0,28,29
 496 892 496 892 446.5 863.5 c 128,-1,30
 397 835 397 835 364.5 784 c 128,-1,31
 332 733 332 733 316 663 c 128,-1,32
 300 593 300 593 300 511 c 0,33,34
 300 330 300 330 364.5 237.5 c 128,-1,35
 429 145 429 145 563 145 c 0,20,21
EndSplineSet
EndChar

StartChar: p
Encoding: 112 112 25
Width: 1089
Flags: W
LayerCount: 2
Fore
SplineSet
347 -405 m 1,0,-1
 133 -405 l 1,1,-1
 133 889 l 1,2,-1
 54 970 l 1,3,-1
 54 1033 l 1,4,-1
 237 1033 l 1,5,-1
 316 964 l 1,6,-1
 353 962 l 1,7,8
 359 968 359 968 379.5 982.5 c 128,-1,9
 400 997 400 997 434 1012.5 c 128,-1,10
 468 1028 468 1028 515 1039.5 c 128,-1,11
 562 1051 562 1051 620 1051 c 0,12,13
 694 1051 694 1051 764.5 1027 c 128,-1,14
 835 1003 835 1003 889.5 944 c 128,-1,15
 944 885 944 885 977 784.5 c 128,-1,16
 1010 684 1010 684 1010 531 c 0,17,18
 1010 399 1010 399 969.5 296 c 128,-1,19
 929 193 929 193 861 123 c 128,-1,20
 793 53 793 53 702.5 16.5 c 128,-1,21
 612 -20 612 -20 512 -20 c 0,22,23
 486 -20 486 -20 456.5 -18 c 128,-1,24
 427 -16 427 -16 403 -13 c 0,25,26
 374 -10 374 -10 347 -6 c 1,27,-1
 347 -405 l 1,0,-1
347 148 m 1,28,29
 364 143 364 143 393 139 c 128,-1,30
 422 135 422 135 457 135 c 0,31,32
 532 135 532 135 593 163.5 c 128,-1,33
 654 192 654 192 696.5 243.5 c 128,-1,34
 739 295 739 295 762.5 368 c 128,-1,35
 786 441 786 441 786 531 c 0,36,37
 786 642 786 642 766.5 711.5 c 128,-1,38
 747 781 747 781 710.5 820.5 c 128,-1,39
 674 860 674 860 622 874 c 128,-1,40
 570 888 570 888 506 888 c 0,41,42
 478 888 478 888 450 879.5 c 128,-1,43
 422 871 422 871 399 860 c 0,44,45
 372 848 372 848 347 833 c 1,46,-1
 347 148 l 1,28,29
EndSplineSet
EndChar

StartChar: q
Encoding: 113 113 26
Width: 1099
Flags: W
LayerCount: 2
Fore
SplineSet
79 497 m 0,0,1
 79 635 79 635 121 738.5 c 128,-1,2
 163 842 163 842 235 911.5 c 128,-1,3
 307 981 307 981 403.5 1016 c 128,-1,4
 500 1051 500 1051 608 1051 c 0,5,6
 654 1051 654 1051 696 1048.5 c 128,-1,7
 738 1046 738 1046 779.5 1040.5 c 128,-1,8
 821 1035 821 1035 864 1027 c 128,-1,9
 907 1019 907 1019 956 1008 c 1,10,-1
 956 -405 l 1,11,-1
 741 -405 l 1,12,-1
 741 69 l 1,13,-1
 736 69 l 1,14,15
 731 65 731 65 714 50.5 c 128,-1,16
 697 36 697 36 669 20.5 c 128,-1,17
 641 5 641 5 602.5 -7.5 c 128,-1,18
 564 -20 564 -20 517 -20 c 0,19,20
 428 -20 428 -20 348.5 8.5 c 128,-1,21
 269 37 269 37 209 99.5 c 128,-1,22
 149 162 149 162 114 260 c 128,-1,23
 79 358 79 358 79 497 c 0,0,1
304 515 m 0,24,25
 304 416 304 416 323.5 346 c 128,-1,26
 343 276 343 276 379 231 c 128,-1,27
 415 186 415 186 466.5 165 c 128,-1,28
 518 144 518 144 583 144 c 0,29,30
 608 144 608 144 636 152 c 128,-1,31
 664 160 664 160 687 171 c 1,32,33
 714 182 714 182 741 198 c 1,34,-1
 741 868 l 1,35,36
 730 875 730 875 702 886.5 c 128,-1,37
 674 898 674 898 622 898 c 0,38,39
 551 898 551 898 492.5 872.5 c 128,-1,40
 434 847 434 847 392 798 c 128,-1,41
 350 749 350 749 327 677.5 c 128,-1,42
 304 606 304 606 304 515 c 0,24,25
EndSplineSet
EndChar

StartChar: r
Encoding: 114 114 27
Width: 702
Flags: W
LayerCount: 2
Fore
SplineSet
264 1033 m 1,0,-1
 367 925 l 1,1,2
 378 950 378 950 395.5 972.5 c 128,-1,3
 413 995 413 995 436.5 1012 c 128,-1,4
 460 1029 460 1029 489.5 1039 c 128,-1,5
 519 1049 519 1049 554 1049 c 0,6,7
 583 1049 583 1049 610 1044.5 c 128,-1,8
 637 1040 637 1040 669 1029 c 1,9,10
 670 1027 670 1027 671.5 1013 c 128,-1,11
 673 999 673 999 673 978 c 0,12,13
 673 962 673 962 671 940.5 c 128,-1,14
 669 919 669 919 664.5 896.5 c 128,-1,15
 660 874 660 874 651.5 852 c 128,-1,16
 643 830 643 830 630 814 c 1,17,-1
 611 809 l 1,18,19
 591 819 591 819 566.5 826 c 128,-1,20
 542 833 542 833 516 833 c 0,21,22
 476 833 476 833 449 827.5 c 128,-1,23
 422 822 422 822 405 816 c 0,24,25
 385 809 385 809 373 800 c 1,26,-1
 373 0 l 1,27,-1
 159 0 l 1,28,-1
 159 839 l 1,29,-1
 80 920 l 1,30,-1
 80 1033 l 1,31,-1
 264 1033 l 1,0,-1
EndSplineSet
EndChar

StartChar: s
Encoding: 115 115 28
Width: 911
Flags: W
LayerCount: 2
Fore
SplineSet
86 46 m 1,0,1
 86 69 86 69 90 96 c 0,2,3
 93 119 93 119 99.5 148.5 c 128,-1,4
 106 178 106 178 119 210 c 1,5,6
 163 193 163 193 211 180 c 0,7,8
 252 169 252 169 300 159.5 c 128,-1,9
 348 150 348 150 395 150 c 0,10,11
 437 150 437 150 473 153 c 128,-1,12
 509 156 509 156 535.5 169.5 c 128,-1,13
 562 183 562 183 577 210.5 c 128,-1,14
 592 238 592 238 592 287 c 0,15,16
 592 346 592 346 555.5 380 c 128,-1,17
 519 414 519 414 429 431 c 0,18,19
 336 449 336 449 272.5 479 c 128,-1,20
 209 509 209 509 169.5 548.5 c 128,-1,21
 130 588 130 588 112.5 637 c 128,-1,22
 95 686 95 686 95 742 c 0,23,24
 95 826 95 826 122 885 c 128,-1,25
 149 944 149 944 200.5 980.5 c 128,-1,26
 252 1017 252 1017 328.5 1033.5 c 128,-1,27
 405 1050 405 1050 504 1050 c 0,28,29
 573 1050 573 1050 626.5 1040.5 c 128,-1,30
 680 1031 680 1031 716 1020 c 0,31,32
 758 1007 758 1007 789 990 c 1,33,34
 786 968 786 968 778 942 c 0,35,36
 771 920 771 920 759.5 892 c 128,-1,37
 748 864 748 864 729 835 c 1,38,39
 702 851 702 851 667 863 c 0,40,41
 637 874 637 874 595 882.5 c 128,-1,42
 553 891 553 891 499 891 c 0,43,44
 457 891 457 891 421.5 887 c 128,-1,45
 386 883 386 883 360.5 869 c 128,-1,46
 335 855 335 855 321 826.5 c 128,-1,47
 307 798 307 798 307 749 c 0,48,49
 307 725 307 725 313.5 705.5 c 128,-1,50
 320 686 320 686 339.5 670 c 128,-1,51
 359 654 359 654 394.5 640.5 c 128,-1,52
 430 627 430 627 489 614 c 0,53,54
 581 594 581 594 642.5 568 c 128,-1,55
 704 542 704 542 740.5 505 c 128,-1,56
 777 468 777 468 792.5 418.5 c 128,-1,57
 808 369 808 369 808 301 c 0,58,59
 808 228 808 228 785 169 c 128,-1,60
 762 110 762 110 713 68 c 128,-1,61
 664 26 664 26 587 3 c 128,-1,62
 510 -20 510 -20 401 -20 c 0,63,64
 331 -20 331 -20 273.5 -10 c 128,-1,65
 216 0 216 0 174 13 c 0,66,67
 125 27 125 27 86 46 c 1,0,1
EndSplineSet
EndChar

StartChar: t
Encoding: 116 116 29
Width: 743
Flags: W
LayerCount: 2
Fore
SplineSet
182 867 m 1,0,-1
 51 867 l 1,1,2
 50 878 50 878 49 891 c 0,3,4
 48 902 48 902 47.5 917 c 128,-1,5
 47 932 47 932 47 950 c 256,6,7
 47 968 47 968 48 983.5 c 128,-1,8
 49 999 49 999 51 1022 c 1,9,-1
 182 1022 l 1,10,-1
 182 1181 l 1,11,-1
 297 1311 l 1,12,-1
 386 1311 l 1,13,-1
 386 1022 l 1,14,-1
 669 1022 l 1,15,16
 671 1012 671 1012 672.5 998 c 128,-1,17
 674 984 674 984 674 971 c 0,18,19
 674 948 674 948 669.5 929 c 128,-1,20
 665 910 665 910 660 896 c 0,21,22
 654 880 654 880 646 867 c 1,23,-1
 386 867 l 1,24,-1
 386 287 l 2,25,26
 386 214 386 214 410.5 181 c 128,-1,27
 435 148 435 148 489 148 c 0,28,29
 512 148 512 148 537.5 153.5 c 128,-1,30
 563 159 563 159 586 167 c 0,31,32
 612 176 612 176 639 187 c 1,33,34
 659 161 659 161 670.5 136 c 128,-1,35
 682 111 682 111 687 91 c 0,36,37
 693 68 693 68 694 48 c 1,38,39
 666 29 666 29 631 14 c 0,40,41
 600 1 600 1 557 -9.5 c 128,-1,42
 514 -20 514 -20 458 -20 c 0,43,44
 380 -20 380 -20 327.5 -0.5 c 128,-1,45
 275 19 275 19 242.5 57.5 c 128,-1,46
 210 96 210 96 196 153.5 c 128,-1,47
 182 211 182 211 182 286 c 2,48,-1
 182 867 l 1,0,-1
EndSplineSet
EndChar

StartChar: u
Encoding: 117 117 30
Width: 1096
Flags: W
LayerCount: 2
Fore
SplineSet
112 1022 m 1,0,-1
 326 1022 l 1,1,-1
 326 354 l 2,2,3
 326 247 326 247 368 195.5 c 128,-1,4
 410 144 410 144 509 144 c 0,5,6
 557 144 557 144 596 152 c 128,-1,7
 635 160 635 160 664 171 c 0,8,9
 697 183 697 183 723 199 c 1,10,-1
 723 1022 l 1,11,-1
 938 1022 l 1,12,-1
 938 165 l 1,13,-1
 1027 63 l 1,14,-1
 1027 0 l 1,15,-1
 834 0 l 1,16,-1
 755 79 l 1,17,-1
 717 79 l 1,18,19
 709 73 709 73 687 57 c 128,-1,20
 665 41 665 41 630.5 23.5 c 128,-1,21
 596 6 596 6 551 -7 c 128,-1,22
 506 -20 506 -20 453 -20 c 0,23,24
 369 -20 369 -20 305 5 c 128,-1,25
 241 30 241 30 198 76.5 c 128,-1,26
 155 123 155 123 133.5 188.5 c 128,-1,27
 112 254 112 254 112 335 c 2,28,-1
 112 1022 l 1,0,-1
EndSplineSet
EndChar

StartChar: v
Encoding: 118 118 31
Width: 981
Flags: W
LayerCount: 2
Fore
SplineSet
28 1022 m 1,0,-1
 243 1022 l 1,1,-1
 470 211 l 1,2,-1
 496 99 l 1,3,-1
 521 211 l 1,4,-1
 741 1022 l 1,5,-1
 953 1022 l 1,6,-1
 649 0 l 1,7,-1
 335 0 l 1,8,-1
 28 1022 l 1,0,-1
EndSplineSet
EndChar

StartChar: w
Encoding: 119 119 32
Width: 1541
Flags: W
LayerCount: 2
Fore
SplineSet
17 1022 m 1,0,-1
 232 1022 l 1,1,-1
 420 233 l 1,2,-1
 443 105 l 1,3,-1
 463 232 l 1,4,-1
 637 1022 l 1,5,-1
 908 1022 l 1,6,-1
 1091 233 l 1,7,-1
 1115 105 l 1,8,-1
 1137 233 l 1,9,-1
 1315 1022 l 1,10,-1
 1523 1022 l 1,11,-1
 1265 0 l 1,12,-1
 960 0 l 1,13,-1
 796 730 l 1,14,-1
 769 878 l 1,15,-1
 744 730 l 1,16,-1
 595 0 l 1,17,-1
 284 0 l 1,18,-1
 17 1022 l 1,0,-1
EndSplineSet
EndChar

StartChar: x
Encoding: 120 120 33
Width: 1000
Flags: W
LayerCount: 2
Fore
SplineSet
383 524 m 1,0,1
 342 582 342 582 301 645.5 c 128,-1,2
 260 709 260 709 219 773.5 c 128,-1,3
 178 838 178 838 137 901 c 128,-1,4
 96 964 96 964 55 1022 c 1,5,-1
 284 1022 l 1,6,-1
 482 702 l 1,7,-1
 521 630 l 1,8,-1
 539 702 l 1,9,10
 591 780 591 780 639 862 c 128,-1,11
 687 944 687 944 738 1022 c 1,12,-1
 965 1022 l 1,13,-1
 624 507 l 1,14,-1
 959 0 l 1,15,-1
 730 0 l 1,16,-1
 521 334 l 1,17,-1
 484 403 l 1,18,-1
 467 334 l 1,19,-1
 265 0 l 1,20,-1
 40 0 l 1,21,-1
 383 524 l 1,0,1
EndSplineSet
EndChar

StartChar: y
Encoding: 121 121 34
Width: 978
Flags: W
LayerCount: 2
Fore
SplineSet
25 1022 m 1,0,-1
 250 1022 l 1,1,-1
 445 275 l 1,2,-1
 488 75 l 1,3,-1
 532 275 l 1,4,-1
 733 1022 l 1,5,-1
 965 1022 l 1,6,-1
 510 -466 l 1,7,-1
 293 -466 l 1,8,-1
 460 0 l 1,9,-1
 332 0 l 1,10,-1
 25 1022 l 1,0,-1
EndSplineSet
EndChar

StartChar: z
Encoding: 122 122 35
Width: 884
Flags: W
LayerCount: 2
Fore
SplineSet
66 138 m 1,0,-1
 452 714 l 1,1,-1
 597 860 l 1,2,-1
 130 859 l 1,3,4
 123 885 123 885 118 907.5 c 128,-1,5
 113 930 113 930 113 959 c 0,6,7
 113 976 113 976 114.5 987.5 c 128,-1,8
 116 999 116 999 118 1007 c 0,9,10
 121 1016 121 1016 124 1023 c 1,11,-1
 812 1023 l 1,12,-1
 822 878 l 1,13,-1
 440 335 l 1,14,-1
 289 163 l 1,15,-1
 831 163 l 1,16,17
 831 155 831 155 832 147 c 0,18,19
 833 140 833 140 833.5 131.5 c 128,-1,20
 834 123 834 123 834 116 c 0,21,22
 834 95 834 95 829.5 66 c 128,-1,23
 825 37 825 37 809 0 c 1,24,-1
 76 0 l 1,25,-1
 66 138 l 1,0,-1
EndSplineSet
EndChar

StartChar: braceleft
Encoding: 123 123 161
Width: 627
Flags: W
LayerCount: 2
Fore
SplineSet
192 127 m 0,0,1
 192 166 192 166 198 204.5 c 128,-1,2
 204 243 204 243 212 281 c 0,3,4
 220 320 220 320 225.5 359 c 128,-1,5
 231 398 231 398 231 439 c 0,6,7
 231 496 231 496 217 527.5 c 128,-1,8
 203 559 203 559 180 574 c 128,-1,9
 157 589 157 589 128 592.5 c 128,-1,10
 99 596 99 596 69 596 c 1,11,12
 60 638 60 638 60 667 c 0,13,14
 60 695 60 695 63 715 c 0,15,16
 65 726 65 726 67 736 c 1,17,-1
 90 746 l 1,18,19
 115 746 115 746 140.5 749 c 128,-1,20
 166 752 166 752 185.5 766.5 c 128,-1,21
 205 781 205 781 217.5 810 c 128,-1,22
 230 839 230 839 230 890 c 0,23,24
 230 926 230 926 224.5 963.5 c 128,-1,25
 219 1001 219 1001 212 1038 c 0,26,27
 204 1075 204 1075 198.5 1115 c 128,-1,28
 193 1155 193 1155 193 1197 c 0,29,30
 193 1286 193 1286 219.5 1354 c 128,-1,31
 246 1422 246 1422 293 1470 c 128,-1,32
 340 1518 340 1518 406 1546 c 128,-1,33
 472 1574 472 1574 550 1583 c 1,34,35
 565 1569 565 1569 576 1551 c 0,36,37
 586 1535 586 1535 595 1511.5 c 128,-1,38
 604 1488 604 1488 607 1456 c 1,39,40
 559 1448 559 1448 520 1430 c 128,-1,41
 481 1412 481 1412 453.5 1382.5 c 128,-1,42
 426 1353 426 1353 411 1310.5 c 128,-1,43
 396 1268 396 1268 396 1211 c 0,44,45
 396 1182 396 1182 400 1151.5 c 128,-1,46
 404 1121 404 1121 409 1089 c 0,47,48
 414 1055 414 1055 418.5 1020 c 128,-1,49
 423 985 423 985 423 943 c 0,50,51
 423 863 423 863 406 815 c 128,-1,52
 389 767 389 767 365 739.5 c 128,-1,53
 341 712 341 712 316.5 701 c 128,-1,54
 292 690 292 690 277 684 c 1,55,-1
 285 657 l 1,56,57
 312 643 312 643 337 623 c 128,-1,58
 362 603 362 603 381.5 573 c 128,-1,59
 401 543 401 543 412.5 501 c 128,-1,60
 424 459 424 459 424 399 c 0,61,62
 424 362 424 362 420 326.5 c 128,-1,63
 416 291 416 291 411 256 c 0,64,65
 406 220 406 220 401.5 183.5 c 128,-1,66
 397 147 397 147 397 109 c 0,67,68
 397 50 397 50 412 5.5 c 128,-1,69
 427 -39 427 -39 454.5 -69.5 c 128,-1,70
 482 -100 482 -100 520.5 -119 c 128,-1,71
 559 -138 559 -138 606 -146 c 1,72,73
 605 -176 605 -176 596.5 -199 c 128,-1,74
 588 -222 588 -222 577 -238 c 0,75,76
 565 -256 565 -256 549 -270 c 1,77,78
 471 -261 471 -261 405.5 -232.5 c 128,-1,79
 340 -204 340 -204 292.5 -155 c 128,-1,80
 245 -106 245 -106 218.5 -36 c 128,-1,81
 192 34 192 34 192 127 c 0,0,1
EndSplineSet
EndChar

StartChar: bar
Encoding: 124 124 113
Width: 518
Flags: W
LayerCount: 2
Fore
SplineSet
152 1517 m 1,0,-1
 366 1517 l 1,1,-1
 366 -166 l 1,2,-1
 152 -166 l 1,3,-1
 152 1517 l 1,0,-1
EndSplineSet
EndChar

StartChar: asciitilde
Encoding: 126 126 145
Width: 1196
Flags: W
LayerCount: 2
Fore
SplineSet
230 452 m 1,0,1
 195 466 195 466 170 483.5 c 128,-1,2
 145 501 145 501 128 515 c 0,3,4
 109 532 109 532 95 549 c 1,5,6
 123 617 123 617 167 672 c 0,7,8
 186 695 186 695 210 717.5 c 128,-1,9
 234 740 234 740 264.5 757.5 c 128,-1,10
 295 775 295 775 331 785.5 c 128,-1,11
 367 796 367 796 410 796 c 0,12,13
 452 796 452 796 487 784.5 c 128,-1,14
 522 773 522 773 552 755.5 c 128,-1,15
 582 738 582 738 607 718 c 128,-1,16
 632 698 632 698 653 681 c 0,17,18
 691 651 691 651 723.5 626.5 c 128,-1,19
 756 602 756 602 789 602 c 0,20,21
 828 602 828 602 857.5 625 c 128,-1,22
 887 648 887 648 907 677 c 0,23,24
 930 710 930 710 947 752 c 1,25,26
 985 736 985 736 1011 719 c 128,-1,27
 1037 702 1037 702 1054 688 c 0,28,29
 1073 671 1073 671 1085 654 c 1,30,31
 1060 588 1060 588 1018 536 c 0,32,33
 1000 514 1000 514 976.5 492.5 c 128,-1,34
 953 471 953 471 924 454.5 c 128,-1,35
 895 438 895 438 859 428 c 128,-1,36
 823 418 823 418 781 418 c 0,37,38
 740 418 740 418 705 429 c 128,-1,39
 670 440 670 440 640.5 457 c 128,-1,40
 611 474 611 474 586.5 493 c 128,-1,41
 562 512 562 512 542 529 c 0,42,43
 504 561 504 561 469.5 581.5 c 128,-1,44
 435 602 435 602 397 602 c 0,45,46
 358 602 358 602 327 578.5 c 128,-1,47
 296 555 296 555 274 527 c 0,48,49
 248 494 248 494 230 452 c 1,0,1
EndSplineSet
EndChar

StartChar: cent
Encoding: 162 162 148
Width: 970
Flags: W
LayerCount: 2
Fore
SplineSet
90 513 m 0,0,1
 90 746 90 746 183.5 884.5 c 128,-1,2
 277 1023 277 1023 457 1054 c 1,3,-1
 457 1240 l 1,4,5
 470 1244 470 1244 486 1248 c 0,6,7
 499 1251 499 1251 516 1254 c 128,-1,8
 533 1257 533 1257 550 1257 c 0,9,10
 569 1257 569 1257 592 1252.5 c 128,-1,11
 615 1248 615 1248 641 1236 c 1,12,-1
 641 1057 l 1,13,14
 679 1052 679 1052 715 1044.5 c 128,-1,15
 751 1037 751 1037 780 1030 c 0,16,17
 813 1022 813 1022 842 1013 c 1,18,19
 839 991 839 991 833 965 c 0,20,21
 828 943 828 943 818.5 915.5 c 128,-1,22
 809 888 809 888 795 859 c 1,23,24
 760 870 760 870 721 880 c 0,25,26
 688 888 688 888 646 895 c 128,-1,27
 604 902 604 902 561 902 c 0,28,29
 494 902 494 902 447 872 c 128,-1,30
 400 842 400 842 370.5 790 c 128,-1,31
 341 738 341 738 327.5 666.5 c 128,-1,32
 314 595 314 595 314 513 c 0,33,34
 314 423 314 423 327.5 355 c 128,-1,35
 341 287 341 287 370.5 241 c 128,-1,36
 400 195 400 195 447 171.5 c 128,-1,37
 494 148 494 148 561 148 c 0,38,39
 605 148 605 148 649.5 154.5 c 128,-1,40
 694 161 694 161 730 169 c 0,41,42
 772 179 772 179 812 191 c 1,43,44
 822 169 822 169 830 143 c 0,45,46
 837 120 837 120 842.5 90.5 c 128,-1,47
 848 61 848 61 847 27 c 1,48,49
 815 18 815 18 779 10 c 0,50,51
 748 3 748 3 709 -4 c 128,-1,52
 670 -11 670 -11 630 -16 c 1,53,-1
 630 -196 l 1,54,55
 617 -200 617 -200 602 -203 c 0,56,57
 589 -206 589 -206 573.5 -208 c 128,-1,58
 558 -210 558 -210 543 -210 c 0,59,60
 524 -210 524 -210 499.5 -206.5 c 128,-1,61
 475 -203 475 -203 446 -192 c 1,62,-1
 446 -10 l 1,63,64
 90 50 90 50 90 513 c 0,0,1
EndSplineSet
EndChar

StartChar: sterling
Encoding: 163 163 149
Width: 1058
Flags: W
LayerCount: 2
Fore
SplineSet
70 611 m 1,0,1
 62 639 62 639 59 658.5 c 128,-1,2
 56 678 56 678 56 693 c 0,3,4
 56 709 56 709 58 723.5 c 128,-1,5
 60 738 60 738 63 750 c 0,6,7
 66 763 66 763 70 776 c 1,8,-1
 222 776 l 1,9,10
 212 833 212 833 205 898.5 c 128,-1,11
 198 964 198 964 198 1048 c 0,12,13
 198 1117 198 1117 225.5 1182.5 c 128,-1,14
 253 1248 253 1248 309 1298.5 c 128,-1,15
 365 1349 365 1349 449.5 1379.5 c 128,-1,16
 534 1410 534 1410 648 1410 c 0,17,18
 722 1410 722 1410 777.5 1393.5 c 128,-1,19
 833 1377 833 1377 871 1357 c 0,20,21
 915 1333 915 1333 947 1304 c 1,22,23
 942 1284 942 1284 931 1263 c 0,24,25
 922 1245 922 1245 906 1224 c 128,-1,26
 890 1203 890 1203 864 1183 c 1,27,-1
 836 1182 l 1,28,29
 791 1215 791 1215 745.5 1231 c 128,-1,30
 700 1247 700 1247 637 1247 c 0,31,32
 532 1247 532 1247 477.5 1193 c 128,-1,33
 423 1139 423 1139 423 1042 c 0,34,35
 423 963 423 963 430 898 c 128,-1,36
 437 833 437 833 446 776 c 1,37,-1
 750 776 l 1,38,39
 757 750 757 750 759.5 729.5 c 128,-1,40
 762 709 762 709 762 694 c 0,41,42
 762 678 762 678 760 663.5 c 128,-1,43
 758 649 758 649 756 637 c 0,44,45
 753 623 753 623 750 611 c 1,46,-1
 465 611 l 1,47,-1
 465 592 l 2,48,49
 465 508 465 508 448.5 436.5 c 128,-1,50
 432 365 432 365 409.5 310.5 c 128,-1,51
 387 256 387 256 365 219.5 c 128,-1,52
 343 183 343 183 333 170 c 1,53,-1
 334 170 l 1,54,55
 345 177 345 177 363 185.5 c 128,-1,56
 381 194 381 194 403.5 201.5 c 128,-1,57
 426 209 426 209 452.5 214.5 c 128,-1,58
 479 220 479 220 508 220 c 0,59,60
 531 220 531 220 546 220.5 c 128,-1,61
 561 221 561 221 573 220 c 128,-1,62
 585 219 585 219 597 216 c 128,-1,63
 609 213 609 213 626 207 c 1,64,-1
 625 207 l 1,65,66
 657 195 657 195 690.5 184.5 c 128,-1,67
 724 174 724 174 766 174 c 0,68,69
 792 174 792 174 822.5 192 c 128,-1,70
 853 210 853 210 879 233 c 0,71,72
 910 259 910 259 940 293 c 1,73,74
 978 278 978 278 1003.5 261 c 128,-1,75
 1029 244 1029 244 1045 230 c 0,76,77
 1063 213 1063 213 1074 198 c 1,78,79
 1046 137 1046 137 1003 89 c 0,80,81
 985 68 985 68 961 48.5 c 128,-1,82
 937 29 937 29 908 14 c 128,-1,83
 879 -1 879 -1 844 -10.5 c 128,-1,84
 809 -20 809 -20 769 -20 c 0,85,86
 709 -20 709 -20 662 -8 c 128,-1,87
 615 4 615 4 574 18 c 0,88,89
 542 28 542 28 505.5 37.5 c 128,-1,90
 469 47 469 47 434 47 c 0,91,92
 383 47 383 47 331 28 c 128,-1,93
 279 9 279 9 231 -20 c 1,94,95
 208 -14 208 -14 187.5 -3 c 128,-1,96
 167 8 167 8 150 21.5 c 128,-1,97
 133 35 133 35 121 48 c 128,-1,98
 109 61 109 61 104 72 c 1,99,100
 144 146 144 146 177 228 c 1,101,102
 190 263 190 263 203.5 302.5 c 128,-1,103
 217 342 217 342 227 384.5 c 128,-1,104
 237 427 237 427 243.5 471 c 128,-1,105
 250 515 250 515 250 559 c 0,106,107
 250 584 250 584 247 611 c 1,108,-1
 70 611 l 1,109,-1
 70 611 l 1,0,1
EndSplineSet
EndChar

StartChar: currency
Encoding: 164 164 153
Width: 1314
Flags: W
LayerCount: 2
Fore
SplineSet
257 377 m 1,0,1
 219 431 219 431 199.5 503.5 c 128,-1,2
 180 576 180 576 180 670 c 0,3,4
 180 756 180 756 198 824.5 c 128,-1,5
 216 893 216 893 251 946 c 1,6,-1
 90 1105 l 1,7,8
 102 1126 102 1126 120 1146 c 0,9,10
 136 1163 136 1163 161 1183 c 128,-1,11
 186 1203 186 1203 221 1220 c 1,12,-1
 375 1063 l 1,13,14
 434 1097 434 1097 505.5 1113 c 128,-1,15
 577 1129 577 1129 661 1129 c 0,16,17
 747 1129 747 1129 819 1114.5 c 128,-1,18
 891 1100 891 1100 948 1068 c 1,19,-1
 1097 1219 l 1,20,21
 1126 1204 1126 1204 1151 1186 c 0,22,23
 1172 1170 1172 1170 1192.5 1148 c 128,-1,24
 1213 1126 1213 1126 1223 1100 c 1,25,-1
 1072 951 l 1,26,27
 1104 900 1104 900 1120 834.5 c 128,-1,28
 1136 769 1136 769 1136 684 c 0,29,30
 1136 589 1136 589 1115.5 514 c 128,-1,31
 1095 439 1095 439 1056 382 c 1,32,-1
 1224 216 l 1,33,34
 1211 192 1211 192 1193 171 c 0,35,36
 1177 153 1177 153 1152.5 133.5 c 128,-1,37
 1128 114 1128 114 1093 102 c 1,38,-1
 929 268 l 1,39,40
 874 238 874 238 806.5 223.5 c 128,-1,41
 739 209 739 209 661 209 c 0,42,43
 580 209 580 209 511 222.5 c 128,-1,44
 442 236 442 236 386 265 c 1,45,-1
 219 95 l 1,46,47
 194 110 194 110 170 128 c 0,48,49
 150 144 150 144 128.5 166 c 128,-1,50
 107 188 107 188 94 216 c 1,51,-1
 257 377 l 1,0,1
661 370 m 0,52,53
 728 370 728 370 775.5 392 c 128,-1,54
 823 414 823 414 854 455 c 128,-1,55
 885 496 885 496 899.5 554 c 128,-1,56
 914 612 914 612 914 684 c 0,57,58
 914 760 914 760 899.5 815 c 128,-1,59
 885 870 885 870 854 905 c 128,-1,60
 823 940 823 940 775.5 956.5 c 128,-1,61
 728 973 728 973 661 973 c 256,62,63
 594 973 594 973 545.5 952 c 128,-1,64
 497 931 497 931 465.5 892 c 128,-1,65
 434 853 434 853 418.5 797 c 128,-1,66
 403 741 403 741 403 670 c 0,67,68
 403 514 403 514 465 442 c 128,-1,69
 527 370 527 370 661 370 c 0,52,53
EndSplineSet
EndChar

StartChar: yen
Encoding: 165 165 151
Width: 1175
Flags: W
LayerCount: 2
Fore
SplineSet
220 505 m 1,0,1
 212 532 212 532 209.5 552 c 128,-1,2
 207 572 207 572 207 587 c 0,3,4
 207 603 207 603 209 616.5 c 128,-1,5
 211 630 211 630 213 640 c 0,6,7
 216 651 216 651 220 661 c 1,8,-1
 492 661 l 1,9,-1
 50 1350 l 1,10,-1
 293 1350 l 1,11,-1
 564 850 l 1,12,-1
 587 793 l 1,13,-1
 608 850 l 1,14,-1
 883 1350 l 1,15,-1
 1125 1350 l 1,16,-1
 675 661 l 1,17,-1
 956 661 l 1,18,19
 963 635 963 635 965.5 619 c 128,-1,20
 968 603 968 603 968 588 c 0,21,22
 968 572 968 572 966 557.5 c 128,-1,23
 964 543 964 543 962 531 c 0,24,25
 959 517 959 517 956 505 c 1,26,-1
 692 505 l 1,27,-1
 692 351 l 1,28,-1
 956 351 l 1,29,30
 963 325 963 325 965.5 304 c 128,-1,31
 968 283 968 283 968 269 c 0,32,33
 968 253 968 253 966 240 c 128,-1,34
 964 227 964 227 962 216 c 0,35,36
 959 204 959 204 956 194 c 1,37,-1
 692 194 l 1,38,-1
 692 0 l 1,39,-1
 486 0 l 1,40,-1
 486 194 l 1,41,-1
 220 194 l 1,42,43
 212 221 212 221 209.5 236.5 c 128,-1,44
 207 252 207 252 207 268 c 256,45,46
 207 284 207 284 209 298.5 c 128,-1,47
 211 313 211 313 213 325 c 0,48,49
 216 338 216 338 220 351 c 1,50,-1
 486 351 l 1,51,-1
 486 505 l 1,52,-1
 220 505 l 1,53,-1
 220 505 l 1,0,1
EndSplineSet
EndChar

StartChar: brokenbar
Encoding: 166 166 114
Width: 518
Flags: W
LayerCount: 2
Fore
SplineSet
152 1517 m 1,0,-1
 366 1517 l 1,1,-1
 366 829 l 1,2,-1
 152 829 l 1,3,-1
 152 1517 l 1,0,-1
152 523 m 1,4,-1
 366 523 l 1,5,-1
 366 -166 l 1,6,-1
 152 -166 l 1,7,-1
 152 523 l 1,4,-1
EndSplineSet
EndChar

StartChar: section
Encoding: 167 167 159
Width: 1024
Flags: W
LayerCount: 2
Fore
SplineSet
177 20 m 1,0,1
 211 2 211 2 253 -12 c 0,2,3
 289 -24 289 -24 337.5 -33.5 c 128,-1,4
 386 -43 386 -43 443 -43 c 0,5,6
 487 -43 487 -43 526 -38 c 128,-1,7
 565 -33 565 -33 593.5 -18.5 c 128,-1,8
 622 -4 622 -4 638.5 22.5 c 128,-1,9
 655 49 655 49 655 93 c 0,10,11
 655 123 655 123 640.5 148.5 c 128,-1,12
 626 174 626 174 599.5 197.5 c 128,-1,13
 573 221 573 221 535.5 244.5 c 128,-1,14
 498 268 498 268 452 294 c 0,15,16
 355 349 355 349 294 392.5 c 128,-1,17
 233 436 233 436 199 475.5 c 128,-1,18
 165 515 165 515 152.5 555 c 128,-1,19
 140 595 140 595 140 643 c 256,20,21
 140 691 140 691 159 729 c 128,-1,22
 178 767 178 767 201 794 c 0,23,24
 227 826 227 826 262 850 c 1,25,26
 212 879 212 879 178 929.5 c 128,-1,27
 144 980 144 980 144 1049 c 0,28,29
 144 1132 144 1132 173 1193 c 128,-1,30
 202 1254 202 1254 256.5 1294.5 c 128,-1,31
 311 1335 311 1335 388.5 1354.5 c 128,-1,32
 466 1374 466 1374 563 1374 c 0,33,34
 630 1374 630 1374 683 1365 c 128,-1,35
 736 1356 736 1356 773 1345 c 0,36,37
 816 1332 816 1332 848 1316 c 1,38,39
 845 1294 845 1294 837 1269 c 0,40,41
 830 1248 830 1248 818.5 1220.5 c 128,-1,42
 807 1193 807 1193 787 1164 c 1,43,44
 760 1179 760 1179 726 1191 c 0,45,46
 697 1201 697 1201 654.5 1209.5 c 128,-1,47
 612 1218 612 1218 558 1218 c 0,48,49
 518 1218 518 1218 483 1213 c 128,-1,50
 448 1208 448 1208 422 1194.5 c 128,-1,51
 396 1181 396 1181 381 1158 c 128,-1,52
 366 1135 366 1135 366 1099 c 0,53,54
 366 1064 366 1064 378.5 1038.5 c 128,-1,55
 391 1013 391 1013 416.5 990 c 128,-1,56
 442 967 442 967 480 943.5 c 128,-1,57
 518 920 518 920 569 891 c 0,58,59
 670 832 670 832 730 790.5 c 128,-1,60
 790 749 790 749 821.5 711.5 c 128,-1,61
 853 674 853 674 862.5 634.5 c 128,-1,62
 872 595 872 595 872 542 c 0,63,64
 872 494 872 494 855 456 c 128,-1,65
 838 418 838 418 817 391 c 128,-1,66
 796 364 796 364 778 349 c 128,-1,67
 760 334 760 334 757 333 c 1,68,69
 821 291 821 291 849 243.5 c 128,-1,70
 877 196 877 196 877 135 c 0,71,72
 877 50 877 50 846.5 -13 c 128,-1,73
 816 -76 816 -76 759 -117 c 128,-1,74
 702 -158 702 -158 620.5 -178.5 c 128,-1,75
 539 -199 539 -199 438 -199 c 0,76,77
 383 -199 383 -199 330 -191 c 128,-1,78
 277 -183 277 -183 235 -172 c 1,79,80
 186 -161 186 -161 141 -145 c 1,81,82
 140 -122 140 -122 144 -95 c 0,83,84
 147 -72 147 -72 154 -42 c 128,-1,85
 161 -12 161 -12 177 20 c 1,0,1
336 663 m 0,86,87
 336 646 336 646 338 631 c 128,-1,88
 340 616 340 616 349.5 600 c 128,-1,89
 359 584 359 584 378 566 c 128,-1,90
 397 548 397 548 430.5 525.5 c 128,-1,91
 464 503 464 503 514.5 473.5 c 128,-1,92
 565 444 565 444 638 406 c 1,93,94
 656 426 656 426 665.5 454.5 c 128,-1,95
 675 483 675 483 675 512 c 0,96,97
 675 546 675 546 668.5 571.5 c 128,-1,98
 662 597 662 597 633.5 625.5 c 128,-1,99
 605 654 605 654 545.5 689.5 c 128,-1,100
 486 725 486 725 380 779 c 1,101,102
 360 758 360 758 348 727.5 c 128,-1,103
 336 697 336 697 336 663 c 0,86,87
EndSplineSet
EndChar

StartChar: dieresis
Encoding: 168 168 91
Width: 1022
Flags: W
LayerCount: 2
Fore
SplineSet
287 1225 m 256,0,1
 259 1225 259 1225 234.5 1235 c 128,-1,2
 210 1245 210 1245 191.5 1262 c 128,-1,3
 173 1279 173 1279 162.5 1301.5 c 128,-1,4
 152 1324 152 1324 152 1350 c 0,5,6
 152 1377 152 1377 162.5 1400 c 128,-1,7
 173 1423 173 1423 191.5 1440 c 128,-1,8
 210 1457 210 1457 234.5 1466.5 c 128,-1,9
 259 1476 259 1476 287 1476 c 256,10,11
 315 1476 315 1476 340 1466.5 c 128,-1,12
 365 1457 365 1457 384 1440 c 128,-1,13
 403 1423 403 1423 414 1400 c 128,-1,14
 425 1377 425 1377 425 1350 c 0,15,16
 425 1324 425 1324 414 1301.5 c 128,-1,17
 403 1279 403 1279 384 1262 c 128,-1,18
 365 1245 365 1245 340 1235 c 128,-1,19
 315 1225 315 1225 287 1225 c 256,0,1
718 1225 m 256,20,21
 690 1225 690 1225 665.5 1235 c 128,-1,22
 641 1245 641 1245 622.5 1262 c 128,-1,23
 604 1279 604 1279 593.5 1301.5 c 128,-1,24
 583 1324 583 1324 583 1350 c 0,25,26
 583 1377 583 1377 593.5 1400 c 128,-1,27
 604 1423 604 1423 622.5 1440 c 128,-1,28
 641 1457 641 1457 665.5 1466.5 c 128,-1,29
 690 1476 690 1476 718 1476 c 256,30,31
 746 1476 746 1476 771 1466.5 c 128,-1,32
 796 1457 796 1457 815 1440 c 128,-1,33
 834 1423 834 1423 845 1400 c 128,-1,34
 856 1377 856 1377 856 1350 c 0,35,36
 856 1324 856 1324 845 1301.5 c 128,-1,37
 834 1279 834 1279 815 1262 c 128,-1,38
 796 1245 796 1245 771 1235 c 128,-1,39
 746 1225 746 1225 718 1225 c 256,20,21
EndSplineSet
EndChar

StartChar: copyright
Encoding: 169 169 168
Width: 1685
Flags: W
LayerCount: 2
Fore
SplineSet
505 682 m 0,0,1
 505 877 505 877 596 978 c 128,-1,2
 687 1079 687 1079 858 1079 c 0,3,4
 892 1079 892 1079 926.5 1073.5 c 128,-1,5
 961 1068 961 1068 990 1062 c 0,6,7
 1023 1055 1023 1055 1054 1046 c 1,8,9
 1053 1026 1053 1026 1049 1004 c 0,10,11
 1045 985 1045 985 1038.5 960.5 c 128,-1,12
 1032 936 1032 936 1021 911 c 1,13,14
 996 920 996 920 969 927 c 0,15,16
 946 933 946 933 916.5 938 c 128,-1,17
 887 943 887 943 858 943 c 0,18,19
 817 943 817 943 784 924.5 c 128,-1,20
 751 906 751 906 728.5 872 c 128,-1,21
 706 838 706 838 694 789.5 c 128,-1,22
 682 741 682 741 682 682 c 0,23,24
 682 564 682 564 728.5 502.5 c 128,-1,25
 775 441 775 441 858 441 c 0,26,27
 888 441 888 441 918.5 445.5 c 128,-1,28
 949 450 949 450 974 456 c 0,29,30
 1003 462 1003 462 1030 471 c 1,31,32
 1040 456 1040 456 1047 437 c 0,33,34
 1053 420 1053 420 1058 396 c 128,-1,35
 1063 372 1063 372 1062 343 c 1,36,37
 1029 331 1029 331 994 321 c 0,38,39
 964 313 964 313 928 306 c 128,-1,40
 892 299 892 299 858 299 c 0,41,42
 684 299 684 299 594.5 393.5 c 128,-1,43
 505 488 505 488 505 682 c 0,0,1
138 681 m 256,44,45
 138 777 138 777 163 865.5 c 128,-1,46
 188 954 188 954 234 1031 c 128,-1,47
 280 1108 280 1108 344.5 1171 c 128,-1,48
 409 1234 409 1234 487 1279.5 c 128,-1,49
 565 1325 565 1325 655 1349.5 c 128,-1,50
 745 1374 745 1374 842 1374 c 256,51,52
 939 1374 939 1374 1029 1349.5 c 128,-1,53
 1119 1325 1119 1325 1197.5 1279.5 c 128,-1,54
 1276 1234 1276 1234 1340.5 1171 c 128,-1,55
 1405 1108 1405 1108 1451 1031 c 128,-1,56
 1497 954 1497 954 1522 865.5 c 128,-1,57
 1547 777 1547 777 1547 681 c 256,58,59
 1547 585 1547 585 1522 496.5 c 128,-1,60
 1497 408 1497 408 1451 330.5 c 128,-1,61
 1405 253 1405 253 1340.5 190 c 128,-1,62
 1276 127 1276 127 1197.5 81.5 c 128,-1,63
 1119 36 1119 36 1029 11.5 c 128,-1,64
 939 -13 939 -13 842 -13 c 256,65,66
 745 -13 745 -13 655 11.5 c 128,-1,67
 565 36 565 36 487 81.5 c 128,-1,68
 409 127 409 127 344.5 190 c 128,-1,69
 280 253 280 253 234 330.5 c 128,-1,70
 188 408 188 408 163 496.5 c 128,-1,71
 138 585 138 585 138 681 c 256,44,45
278 681 m 0,72,73
 278 561 278 561 322 456 c 128,-1,74
 366 351 366 351 442.5 273 c 128,-1,75
 519 195 519 195 622 150 c 128,-1,76
 725 105 725 105 842 105 c 0,77,78
 920 105 920 105 992.5 125.5 c 128,-1,79
 1065 146 1065 146 1127.5 183.5 c 128,-1,80
 1190 221 1190 221 1241.5 273.5 c 128,-1,81
 1293 326 1293 326 1330 390 c 128,-1,82
 1367 454 1367 454 1387 527.5 c 128,-1,83
 1407 601 1407 601 1407 681 c 0,84,85
 1407 800 1407 800 1362.5 905 c 128,-1,86
 1318 1010 1318 1010 1241.5 1088 c 128,-1,87
 1165 1166 1165 1166 1062 1211 c 128,-1,88
 959 1256 959 1256 842 1256 c 256,89,90
 725 1256 725 1256 622 1211 c 128,-1,91
 519 1166 519 1166 442.5 1088 c 128,-1,92
 366 1010 366 1010 322 905 c 128,-1,93
 278 800 278 800 278 681 c 0,72,73
EndSplineSet
EndChar

StartChar: ordfeminine
Encoding: 170 170 173
Width: 839
Flags: W
LayerCount: 2
Fore
SplineSet
319 561 m 0,0,1
 267 561 267 561 225 584 c 128,-1,2
 183 607 183 607 153 643.5 c 128,-1,3
 123 680 123 680 107 725.5 c 128,-1,4
 91 771 91 771 91 816 c 0,5,6
 91 868 91 868 109.5 910.5 c 128,-1,7
 128 953 128 953 161 983 c 128,-1,8
 194 1013 194 1013 239 1031 c 128,-1,9
 284 1049 284 1049 337 1054 c 1,10,-1
 536 1062 l 1,11,-1
 536 1131 l 2,12,13
 536 1164 536 1164 524.5 1187.5 c 128,-1,14
 513 1211 513 1211 493 1226.5 c 128,-1,15
 473 1242 473 1242 446.5 1249 c 128,-1,16
 420 1256 420 1256 390 1256 c 0,17,18
 352 1256 352 1256 314 1247.5 c 128,-1,19
 276 1239 276 1239 246 1229 c 0,20,21
 211 1218 211 1218 178 1203 c 1,22,23
 162 1228 162 1228 152.5 1252.5 c 128,-1,24
 143 1277 143 1277 138 1297 c 0,25,26
 132 1320 132 1320 130 1342 c 1,27,28
 170 1358 170 1358 215 1370 c 0,29,30
 253 1381 253 1381 300.5 1389.5 c 128,-1,31
 348 1398 348 1398 397 1398 c 0,32,33
 555 1398 555 1398 630.5 1339.5 c 128,-1,34
 706 1281 706 1281 706 1170 c 2,35,-1
 706 685 l 1,36,-1
 773 620 l 1,37,-1
 773 573 l 1,38,-1
 614 573 l 1,39,-1
 562 618 l 1,40,-1
 548 618 l 1,41,42
 545 615 545 615 524 605.5 c 128,-1,43
 503 596 503 596 471.5 586.5 c 128,-1,44
 440 577 440 577 400.5 569 c 128,-1,45
 361 561 361 561 319 561 c 0,0,1
363 686 m 256,46,47
 386 686 386 686 415.5 691 c 128,-1,48
 445 696 445 696 472 703 c 0,49,50
 504 711 504 711 536 721 c 1,51,-1
 536 951 l 1,52,-1
 372 941 l 2,53,54
 347 939 347 939 327 927.5 c 128,-1,55
 307 916 307 916 293 898.5 c 128,-1,56
 279 881 279 881 271.5 861 c 128,-1,57
 264 841 264 841 264 822 c 0,58,59
 264 797 264 797 271 772.5 c 128,-1,60
 278 748 278 748 291 729 c 128,-1,61
 304 710 304 710 322 698 c 128,-1,62
 340 686 340 686 363 686 c 256,46,47
EndSplineSet
EndChar

StartChar: logicalnot
Encoding: 172 172 154
Width: 1535
Flags: W
LayerCount: 2
Fore
SplineSet
193 685 m 1,0,-1
 1303 685 l 1,1,-1
 1303 177 l 1,2,-1
 1107 177 l 1,3,-1
 1107 510 l 1,4,-1
 193 510 l 1,5,-1
 193 685 l 1,0,-1
EndSplineSet
EndChar

StartChar: registered
Encoding: 174 174 169
Width: 1685
Flags: W
LayerCount: 2
Fore
SplineSet
573 1063 m 1,0,-1
 880 1063 l 2,1,2
 1008 1063 1008 1063 1072.5 1003 c 128,-1,3
 1137 943 1137 943 1137 843 c 0,4,5
 1137 771 1137 771 1100.5 715.5 c 128,-1,6
 1064 660 1064 660 987 631 c 1,7,8
 1031 551 1031 551 1078 473 c 128,-1,9
 1125 395 1125 395 1168 317 c 1,10,-1
 981 317 l 1,11,-1
 827 609 l 1,12,13
 803 609 803 609 787 609 c 128,-1,14
 771 609 771 609 761 610 c 0,15,16
 750 611 750 611 743 612 c 1,17,-1
 743 317 l 1,18,-1
 573 317 l 1,19,-1
 573 1063 l 1,0,-1
743 731 m 1,20,21
 755 729 755 729 771.5 728.5 c 128,-1,22
 788 728 788 728 815 728 c 0,23,24
 881 728 881 728 918.5 755 c 128,-1,25
 956 782 956 782 956 840 c 0,26,27
 956 889 956 889 927.5 915 c 128,-1,28
 899 941 899 941 845 941 c 2,29,-1
 743 941 l 1,30,-1
 743 731 l 1,20,21
138 681 m 256,31,32
 138 777 138 777 163 865.5 c 128,-1,33
 188 954 188 954 234 1031 c 128,-1,34
 280 1108 280 1108 344.5 1171 c 128,-1,35
 409 1234 409 1234 487 1279.5 c 128,-1,36
 565 1325 565 1325 655 1349.5 c 128,-1,37
 745 1374 745 1374 842 1374 c 256,38,39
 939 1374 939 1374 1029 1349.5 c 128,-1,40
 1119 1325 1119 1325 1197.5 1279.5 c 128,-1,41
 1276 1234 1276 1234 1340.5 1171 c 128,-1,42
 1405 1108 1405 1108 1451 1031 c 128,-1,43
 1497 954 1497 954 1522 865.5 c 128,-1,44
 1547 777 1547 777 1547 681 c 256,45,46
 1547 585 1547 585 1522 496.5 c 128,-1,47
 1497 408 1497 408 1451 330.5 c 128,-1,48
 1405 253 1405 253 1340.5 190 c 128,-1,49
 1276 127 1276 127 1197.5 81.5 c 128,-1,50
 1119 36 1119 36 1029 11.5 c 128,-1,51
 939 -13 939 -13 842 -13 c 256,52,53
 745 -13 745 -13 655 11.5 c 128,-1,54
 565 36 565 36 487 81.5 c 128,-1,55
 409 127 409 127 344.5 190 c 128,-1,56
 280 253 280 253 234 330.5 c 128,-1,57
 188 408 188 408 163 496.5 c 128,-1,58
 138 585 138 585 138 681 c 256,31,32
278 681 m 0,59,60
 278 561 278 561 322 456 c 128,-1,61
 366 351 366 351 442.5 273 c 128,-1,62
 519 195 519 195 622 150 c 128,-1,63
 725 105 725 105 842 105 c 0,64,65
 920 105 920 105 992.5 125.5 c 128,-1,66
 1065 146 1065 146 1127.5 183.5 c 128,-1,67
 1190 221 1190 221 1241.5 273.5 c 128,-1,68
 1293 326 1293 326 1330 390 c 128,-1,69
 1367 454 1367 454 1387 527.5 c 128,-1,70
 1407 601 1407 601 1407 681 c 0,71,72
 1407 800 1407 800 1362.5 905 c 128,-1,73
 1318 1010 1318 1010 1241.5 1088 c 128,-1,74
 1165 1166 1165 1166 1062 1211 c 128,-1,75
 959 1256 959 1256 842 1256 c 256,76,77
 725 1256 725 1256 622 1211 c 128,-1,78
 519 1166 519 1166 442.5 1088 c 128,-1,79
 366 1010 366 1010 322 905 c 128,-1,80
 278 800 278 800 278 681 c 0,59,60
EndSplineSet
EndChar

StartChar: macron
Encoding: 175 175 100
Width: 1024
Flags: W
LayerCount: 2
Fore
SplineSet
185 1301 m 1,0,1
 172 1349 172 1349 172 1380 c 0,2,3
 172 1398 172 1398 175 1418 c 128,-1,4
 178 1438 178 1438 186 1459 c 1,5,-1
 831 1459 l 1,6,7
 836 1439 836 1439 838 1421 c 128,-1,8
 840 1403 840 1403 840 1389 c 0,9,10
 840 1369 840 1369 836.5 1346.5 c 128,-1,11
 833 1324 833 1324 825 1301 c 1,12,-1
 185 1301 l 1,13,-1
 185 1301 l 1,0,1
EndSplineSet
EndChar

StartChar: degree
Encoding: 176 176 155
Width: 771
Flags: W
LayerCount: 2
Fore
SplineSet
383 1158 m 0,0,1
 417 1158 417 1158 446 1169.5 c 128,-1,2
 475 1181 475 1181 496 1204 c 128,-1,3
 517 1227 517 1227 529 1261 c 128,-1,4
 541 1295 541 1295 541 1340 c 0,5,6
 541 1384 541 1384 529 1418.5 c 128,-1,7
 517 1453 517 1453 496 1476.5 c 128,-1,8
 475 1500 475 1500 446 1512 c 128,-1,9
 417 1524 417 1524 383 1524 c 0,10,11
 351 1524 351 1524 323.5 1512 c 128,-1,12
 296 1500 296 1500 275.5 1476.5 c 128,-1,13
 255 1453 255 1453 243.5 1418.5 c 128,-1,14
 232 1384 232 1384 232 1340 c 0,15,16
 232 1295 232 1295 243.5 1261 c 128,-1,17
 255 1227 255 1227 275.5 1204 c 128,-1,18
 296 1181 296 1181 323.5 1169.5 c 128,-1,19
 351 1158 351 1158 383 1158 c 0,0,1
383 1019 m 0,20,21
 316 1019 316 1019 257.5 1039 c 128,-1,22
 199 1059 199 1059 155.5 1099.5 c 128,-1,23
 112 1140 112 1140 87 1200 c 128,-1,24
 62 1260 62 1260 62 1340 c 0,25,26
 62 1419 62 1419 87 1479.5 c 128,-1,27
 112 1540 112 1540 155.5 1580.5 c 128,-1,28
 199 1621 199 1621 257.5 1641.5 c 128,-1,29
 316 1662 316 1662 383 1662 c 0,30,31
 454 1662 454 1662 514 1641.5 c 128,-1,32
 574 1621 574 1621 617.5 1580.5 c 128,-1,33
 661 1540 661 1540 685 1479.5 c 128,-1,34
 709 1419 709 1419 709 1340 c 0,35,36
 709 1259 709 1259 685 1199 c 128,-1,37
 661 1139 661 1139 617.5 1099 c 128,-1,38
 574 1059 574 1059 514 1039 c 128,-1,39
 454 1019 454 1019 383 1019 c 0,20,21
EndSplineSet
EndChar

StartChar: plusminus
Encoding: 177 177 116
Width: 1535
Flags: W
LayerCount: 2
Fore
SplineSet
203 848 m 1,0,-1
 661 848 l 1,1,-1
 661 1328 l 1,2,-1
 857 1328 l 1,3,-1
 857 848 l 1,4,-1
 1313 848 l 1,5,-1
 1313 674 l 1,6,-1
 857 674 l 1,7,-1
 857 328 l 1,8,-1
 661 328 l 1,9,-1
 661 674 l 1,10,-1
 203 674 l 1,11,-1
 203 848 l 1,0,-1
203 175 m 1,12,-1
 1313 175 l 1,13,-1
 1313 0 l 1,14,-1
 203 0 l 1,15,-1
 203 175 l 1,12,-1
EndSplineSet
EndChar

StartChar: two.superior
Encoding: 178 178 449
Width: 1195
Flags: W
LayerCount: 2
Fore
SplineSet
336 998 m 1,0,-1
 444 1109 l 2,1,2
 506 1173 506 1173 549.5 1219 c 128,-1,3
 593 1265 593 1265 620 1301 c 128,-1,4
 647 1337 647 1337 659 1365 c 128,-1,5
 671 1393 671 1393 671 1421 c 0,6,7
 671 1475 671 1475 651 1502 c 128,-1,8
 631 1529 631 1529 595 1529 c 0,9,10
 553 1529 553 1529 517 1517.5 c 128,-1,11
 481 1506 481 1506 454 1492 c 0,12,13
 422 1476 422 1476 396 1456 c 1,14,15
 373 1477 373 1477 360 1497.5 c 128,-1,16
 347 1518 347 1518 340 1534 c 0,17,18
 332 1552 332 1552 329 1570 c 1,19,20
 364 1594 364 1594 405 1612 c 0,21,22
 440 1628 440 1628 487.5 1641 c 128,-1,23
 535 1654 535 1654 592 1654 c 0,24,25
 712 1654 712 1654 777 1599 c 128,-1,26
 842 1544 842 1544 842 1432 c 0,27,28
 842 1387 842 1387 824 1345 c 128,-1,29
 806 1303 806 1303 771.5 1257.5 c 128,-1,30
 737 1212 737 1212 686.5 1159.5 c 128,-1,31
 636 1107 636 1107 570 1042 c 1,32,-1
 547 1020 l 1,33,34
 601 1022 601 1022 657 1026 c 128,-1,35
 713 1030 713 1030 760 1035 c 0,36,37
 815 1040 815 1040 865 1047 c 1,38,39
 865 1039 865 1039 866 1030 c 0,40,41
 866 1022 866 1022 866.5 1013.5 c 128,-1,42
 867 1005 867 1005 867 998 c 0,43,44
 867 975 867 975 863.5 946 c 128,-1,45
 860 917 860 917 848 896 c 1,46,-1
 336 896 l 1,47,-1
 336 998 l 1,0,-1
EndSplineSet
EndChar

StartChar: three.superior
Encoding: 179 179 450
Width: 1195
Flags: W
LayerCount: 2
Fore
SplineSet
318 927 m 1,0,1
 320 943 320 943 326 961 c 0,2,3
 331 977 331 977 340 998.5 c 128,-1,4
 349 1020 349 1020 364 1045 c 1,5,6
 391 1031 391 1031 421 1020 c 0,7,8
 447 1011 447 1011 479 1003.5 c 128,-1,9
 511 996 511 996 545 996 c 0,10,11
 575 996 575 996 600.5 1004.5 c 128,-1,12
 626 1013 626 1013 644.5 1029 c 128,-1,13
 663 1045 663 1045 674 1068 c 128,-1,14
 685 1091 685 1091 685 1121 c 0,15,16
 685 1139 685 1139 677 1157 c 128,-1,17
 669 1175 669 1175 654 1189.5 c 128,-1,18
 639 1204 639 1204 617 1213 c 128,-1,19
 595 1222 595 1222 568 1222 c 2,20,-1
 489 1222 l 1,21,22
 484 1239 484 1239 482 1258.5 c 128,-1,23
 480 1278 480 1278 480 1288 c 0,24,25
 480 1296 480 1296 480.5 1305 c 128,-1,26
 481 1314 481 1314 482 1322 c 0,27,28
 483 1332 483 1332 485 1342 c 1,29,-1
 568 1342 l 2,30,31
 586 1342 586 1342 604 1348.5 c 128,-1,32
 622 1355 622 1355 635.5 1368.5 c 128,-1,33
 649 1382 649 1382 657.5 1403.5 c 128,-1,34
 666 1425 666 1425 666 1454 c 0,35,36
 666 1492 666 1492 637 1512.5 c 128,-1,37
 608 1533 608 1533 559 1533 c 0,38,39
 527 1533 527 1533 497.5 1526.5 c 128,-1,40
 468 1520 468 1520 445 1512 c 0,41,42
 419 1502 419 1502 395 1491 c 1,43,44
 376 1512 376 1512 365.5 1532 c 128,-1,45
 355 1552 355 1552 350 1568 c 0,46,47
 344 1586 344 1586 342 1604 c 1,48,49
 373 1618 373 1618 410 1629 c 0,50,51
 441 1638 441 1638 481.5 1646 c 128,-1,52
 522 1654 522 1654 567 1654 c 0,53,54
 630 1654 630 1654 680 1641.5 c 128,-1,55
 730 1629 730 1629 765 1604.5 c 128,-1,56
 800 1580 800 1580 818.5 1542.5 c 128,-1,57
 837 1505 837 1505 837 1454 c 0,58,59
 837 1387 837 1387 803.5 1346 c 128,-1,60
 770 1305 770 1305 711 1285 c 1,61,62
 777 1269 777 1269 818.5 1224.5 c 128,-1,63
 860 1180 860 1180 860 1114 c 0,64,65
 860 1055 860 1055 838 1011 c 128,-1,66
 816 967 816 967 775.5 937.5 c 128,-1,67
 735 908 735 908 679 893 c 128,-1,68
 623 878 623 878 556 878 c 0,69,70
 509 878 509 878 466 885.5 c 128,-1,71
 423 893 423 893 390 902 c 0,72,73
 351 913 351 913 318 927 c 1,0,1
EndSplineSet
EndChar

StartChar: acute
Encoding: 180 180 37
Width: 567
Flags: W
LayerCount: 2
Fore
SplineSet
354 1169 m 1,0,1
 339 1175 339 1175 322.5 1185.5 c 128,-1,2
 306 1196 306 1196 291 1208 c 128,-1,3
 276 1220 276 1220 265 1233.5 c 128,-1,4
 254 1247 254 1247 249 1259 c 1,5,-1
 494 1605 l 1,6,7
 512 1600 512 1600 539.5 1583.5 c 128,-1,8
 567 1567 567 1567 594 1546.5 c 128,-1,9
 621 1526 621 1526 642.5 1504.5 c 128,-1,10
 664 1483 664 1483 671 1468 c 1,11,-1
 354 1169 l 1,12,-1
 354 1169 l 1,0,1
EndSplineSet
EndChar

StartChar: paragraph
Encoding: 182 182 90
Width: 1366
Flags: W
LayerCount: 2
Fore
SplineSet
599 514 m 1,0,1
 489 519 489 519 404 554.5 c 128,-1,2
 319 590 319 590 260 646.5 c 128,-1,3
 201 703 201 703 170.5 776.5 c 128,-1,4
 140 850 140 850 140 933 c 0,5,6
 140 1028 140 1028 172.5 1106.5 c 128,-1,7
 205 1185 205 1185 264 1241 c 128,-1,8
 323 1297 323 1297 405.5 1327.5 c 128,-1,9
 488 1358 488 1358 587 1358 c 2,10,-1
 1192 1358 l 1,11,-1
 1192 -156 l 1,12,-1
 977 -156 l 1,13,-1
 977 1185 l 1,14,-1
 805 1185 l 1,15,-1
 805 -156 l 1,16,-1
 599 -156 l 1,17,-1
 599 514 l 1,0,1
EndSplineSet
EndChar

StartChar: periodcentered
Encoding: 183 183 87
Width: 452
Flags: W
LayerCount: 2
Fore
SplineSet
226 414 m 256,0,1
 195 414 195 414 168 425 c 128,-1,2
 141 436 141 436 121 455 c 128,-1,3
 101 474 101 474 89.5 499 c 128,-1,4
 78 524 78 524 78 553 c 0,5,6
 78 581 78 581 89.5 606 c 128,-1,7
 101 631 101 631 121 650 c 128,-1,8
 141 669 141 669 168 679.5 c 128,-1,9
 195 690 195 690 226 690 c 256,10,11
 257 690 257 690 284 679.5 c 128,-1,12
 311 669 311 669 331 650 c 128,-1,13
 351 631 351 631 362.5 606 c 128,-1,14
 374 581 374 581 374 553 c 0,15,16
 374 524 374 524 362.5 499 c 128,-1,17
 351 474 351 474 331 455 c 128,-1,18
 311 436 311 436 284 425 c 128,-1,19
 257 414 257 414 226 414 c 256,0,1
EndSplineSet
EndChar

StartChar: cedilla
Encoding: 184 184 109
Width: 512
Flags: W
LayerCount: 2
Fore
SplineSet
167 32 m 1,0,-1
 308 32 l 1,1,2
 317 -1 317 -1 325 -34 c 0,3,4
 332 -63 332 -63 337.5 -98 c 128,-1,5
 343 -133 343 -133 343 -166 c 0,6,7
 343 -220 343 -220 324.5 -268.5 c 128,-1,8
 306 -317 306 -317 270 -354 c 128,-1,9
 234 -391 234 -391 181.5 -412.5 c 128,-1,10
 129 -434 129 -434 62 -434 c 0,11,12
 27 -434 27 -434 2 -429 c 0,13,14
 -11 -426 -11 -426 -21 -423 c 1,15,16
 -25 -410 -25 -410 -28 -394 c 0,17,18
 -31 -380 -31 -380 -33 -362.5 c 128,-1,19
 -35 -345 -35 -345 -35 -324 c 0,20,21
 -35 -302 -35 -302 -31.5 -276 c 128,-1,22
 -28 -250 -28 -250 -19 -218 c 1,23,24
 4 -223 4 -223 21.5 -227 c 128,-1,25
 39 -231 39 -231 47 -231 c 0,26,27
 75 -231 75 -231 95.5 -221.5 c 128,-1,28
 116 -212 116 -212 129.5 -196.5 c 128,-1,29
 143 -181 143 -181 149.5 -160 c 128,-1,30
 156 -139 156 -139 156 -116 c 0,31,32
 156 -96 156 -96 154 -72.5 c 128,-1,33
 152 -49 152 -49 150 -29 c 0,34,35
 147 -6 147 -6 144 16 c 1,36,-1
 167 32 l 1,0,-1
EndSplineSet
EndChar

StartChar: one.superior
Encoding: 185 185 448
Width: 856
Flags: W
LayerCount: 2
Fore
SplineSet
360 1464 m 1,0,1
 343 1457 343 1457 320 1448.5 c 128,-1,2
 297 1440 297 1440 274 1435 c 1,3,-1
 257 1436 l 1,4,5
 234 1448 234 1448 222.5 1467 c 128,-1,6
 211 1486 211 1486 206 1504 c 0,7,8
 200 1525 200 1525 200 1547 c 1,9,10
 242 1563 242 1563 278.5 1579 c 128,-1,11
 315 1595 315 1595 342 1608 c 0,12,13
 374 1623 374 1623 401 1636 c 1,14,-1
 525 1636 l 1,15,-1
 525 896 l 1,16,-1
 360 896 l 1,17,-1
 360 1464 l 1,0,1
EndSplineSet
EndChar

StartChar: ordmasculine
Encoding: 186 186 174
Width: 911
Flags: W
LayerCount: 2
Fore
SplineSet
458 557 m 0,0,1
 380 557 380 557 319 583 c 128,-1,2
 258 609 258 609 216 662 c 128,-1,3
 174 715 174 715 151.5 796 c 128,-1,4
 129 877 129 877 129 987 c 256,5,6
 129 1097 129 1097 152.5 1175 c 128,-1,7
 176 1253 176 1253 219.5 1303 c 128,-1,8
 263 1353 263 1353 323.5 1376 c 128,-1,9
 384 1399 384 1399 458 1399 c 0,10,11
 534 1399 534 1399 594 1377.5 c 128,-1,12
 654 1356 654 1356 696 1308 c 128,-1,13
 738 1260 738 1260 760 1184 c 128,-1,14
 782 1108 782 1108 782 999 c 0,15,16
 782 889 782 889 759.5 806 c 128,-1,17
 737 723 737 723 695 667.5 c 128,-1,18
 653 612 653 612 593 584.5 c 128,-1,19
 533 557 533 557 458 557 c 0,0,1
458 683 m 256,20,21
 497 683 497 683 525 708 c 128,-1,22
 553 733 553 733 570.5 776.5 c 128,-1,23
 588 820 588 820 596.5 877 c 128,-1,24
 605 934 605 934 605 999 c 0,25,26
 605 1137 605 1137 570.5 1207.5 c 128,-1,27
 536 1278 536 1278 458 1278 c 0,28,29
 419 1278 419 1278 390 1256.5 c 128,-1,30
 361 1235 361 1235 342 1196 c 128,-1,31
 323 1157 323 1157 314 1103.5 c 128,-1,32
 305 1050 305 1050 305 987 c 0,33,34
 305 918 305 918 314 861.5 c 128,-1,35
 323 805 323 805 342 765.5 c 128,-1,36
 361 726 361 726 390 704.5 c 128,-1,37
 419 683 419 683 458 683 c 256,20,21
EndSplineSet
EndChar

StartChar: onequarter
Encoding: 188 188 170
Width: 1612
Flags: W
LayerCount: 2
Fore
SplineSet
1160 773 m 1,0,1
 1193 763 1193 763 1222 752 c 0,2,3
 1247 743 1247 743 1270 732 c 128,-1,4
 1293 721 1293 721 1303 710 c 1,5,-1
 1305 695 l 1,6,7
 1265 634 1265 634 1223 566 c 0,8,9
 1187 507 1187 507 1142 433 c 128,-1,10
 1097 359 1097 359 1053 281 c 1,11,-1
 1229 281 l 1,12,-1
 1229 405 l 1,13,14
 1249 421 1249 421 1277 434 c 128,-1,15
 1305 447 1305 447 1331 455 c 0,16,17
 1362 465 1362 465 1394 472 c 1,18,-1
 1394 281 l 1,19,-1
 1507 281 l 1,20,21
 1508 260 1508 260 1507 240 c 0,22,23
 1506 223 1506 223 1502.5 202.5 c 128,-1,24
 1499 182 1499 182 1490 165 c 1,25,-1
 1394 165 l 1,26,-1
 1394 0 l 1,27,-1
 1229 0 l 1,28,-1
 1229 165 l 1,29,-1
 927 165 l 1,30,31
 904 179 904 179 892.5 196.5 c 128,-1,32
 881 214 881 214 876 230 c 0,33,34
 870 248 870 248 870 267 c 1,35,-1
 1160 773 l 1,0,1
919 1405 m 1,36,37
 942 1404 942 1404 966 1397 c 0,38,39
 986 1391 986 1391 1009 1378.5 c 128,-1,40
 1032 1366 1032 1366 1052 1343 c 1,41,-1
 516 2 l 1,42,43
 496 3 496 3 474 10 c 0,44,45
 454 16 454 16 429.5 28.5 c 128,-1,46
 405 41 405 41 379 64 c 1,47,-1
 919 1405 l 1,36,37
261 1345 m 1,48,49
 244 1338 244 1338 221 1329.5 c 128,-1,50
 198 1321 198 1321 175 1316 c 1,51,-1
 158 1317 l 1,52,53
 135 1329 135 1329 123.5 1348 c 128,-1,54
 112 1367 112 1367 107 1385 c 0,55,56
 101 1406 101 1406 101 1428 c 1,57,58
 143 1444 143 1444 179.5 1460 c 128,-1,59
 216 1476 216 1476 243 1489 c 0,60,61
 275 1504 275 1504 302 1517 c 1,62,-1
 426 1517 l 1,63,-1
 426 777 l 1,64,-1
 261 777 l 1,65,-1
 261 1345 l 1,48,49
EndSplineSet
EndChar

StartChar: threequarters
Encoding: 190 190 172
Width: 1688
Flags: W
LayerCount: 2
Fore
SplineSet
1236 773 m 1,0,1
 1269 763 1269 763 1298 752 c 0,2,3
 1323 743 1323 743 1346 732 c 128,-1,4
 1369 721 1369 721 1379 710 c 1,5,-1
 1381 695 l 1,6,7
 1341 634 1341 634 1299 566 c 0,8,9
 1263 507 1263 507 1218 433 c 128,-1,10
 1173 359 1173 359 1129 281 c 1,11,-1
 1305 281 l 1,12,-1
 1305 395 l 1,13,14
 1325 411 1325 411 1353 424 c 128,-1,15
 1381 437 1381 437 1407 445 c 0,16,17
 1438 455 1438 455 1470 462 c 1,18,-1
 1470 281 l 1,19,-1
 1583 281 l 1,20,21
 1584 260 1584 260 1583 240 c 0,22,23
 1582 223 1582 223 1578.5 202.5 c 128,-1,24
 1575 182 1575 182 1566 165 c 1,25,-1
 1470 165 l 1,26,-1
 1470 0 l 1,27,-1
 1305 0 l 1,28,-1
 1305 165 l 1,29,-1
 1003 165 l 1,30,31
 980 179 980 179 968.5 196.5 c 128,-1,32
 957 214 957 214 952 230 c 0,33,34
 946 248 946 248 946 267 c 1,35,-1
 1236 773 l 1,0,1
995 1405 m 1,36,37
 1018 1404 1018 1404 1042 1397 c 0,38,39
 1062 1391 1062 1391 1085 1378.5 c 128,-1,40
 1108 1366 1108 1366 1128 1343 c 1,41,-1
 592 2 l 1,42,43
 572 3 572 3 550 10 c 0,44,45
 530 16 530 16 505.5 28.5 c 128,-1,46
 481 41 481 41 455 64 c 1,47,-1
 995 1405 l 1,36,37
67 801 m 1,48,49
 69 817 69 817 75 835 c 0,50,51
 80 851 80 851 89 872.5 c 128,-1,52
 98 894 98 894 113 919 c 1,53,54
 140 905 140 905 170 894 c 0,55,56
 196 885 196 885 228 877.5 c 128,-1,57
 260 870 260 870 294 870 c 0,58,59
 324 870 324 870 349.5 878.5 c 128,-1,60
 375 887 375 887 393.5 903 c 128,-1,61
 412 919 412 919 423 942 c 128,-1,62
 434 965 434 965 434 995 c 0,63,64
 434 1013 434 1013 426 1031 c 128,-1,65
 418 1049 418 1049 403 1063.5 c 128,-1,66
 388 1078 388 1078 366 1087 c 128,-1,67
 344 1096 344 1096 317 1096 c 2,68,-1
 238 1096 l 1,69,70
 233 1113 233 1113 231 1132.5 c 128,-1,71
 229 1152 229 1152 229 1162 c 0,72,73
 229 1170 229 1170 229.5 1179 c 128,-1,74
 230 1188 230 1188 231 1196 c 0,75,76
 232 1206 232 1206 234 1216 c 1,77,-1
 317 1216 l 2,78,79
 335 1216 335 1216 353 1222.5 c 128,-1,80
 371 1229 371 1229 384.5 1242.5 c 128,-1,81
 398 1256 398 1256 406.5 1277.5 c 128,-1,82
 415 1299 415 1299 415 1328 c 0,83,84
 415 1366 415 1366 386 1386.5 c 128,-1,85
 357 1407 357 1407 308 1407 c 0,86,87
 276 1407 276 1407 246.5 1400.5 c 128,-1,88
 217 1394 217 1394 194 1386 c 0,89,90
 168 1376 168 1376 144 1365 c 1,91,92
 125 1386 125 1386 114.5 1406 c 128,-1,93
 104 1426 104 1426 99 1442 c 0,94,95
 93 1460 93 1460 91 1478 c 1,96,97
 122 1492 122 1492 159 1503 c 0,98,99
 190 1512 190 1512 230.5 1520 c 128,-1,100
 271 1528 271 1528 316 1528 c 0,101,102
 379 1528 379 1528 429 1515.5 c 128,-1,103
 479 1503 479 1503 514 1478.5 c 128,-1,104
 549 1454 549 1454 567.5 1416.5 c 128,-1,105
 586 1379 586 1379 586 1328 c 0,106,107
 586 1261 586 1261 552.5 1220 c 128,-1,108
 519 1179 519 1179 460 1159 c 1,109,110
 526 1143 526 1143 567.5 1098.5 c 128,-1,111
 609 1054 609 1054 609 988 c 0,112,113
 609 929 609 929 587 885 c 128,-1,114
 565 841 565 841 524.5 811.5 c 128,-1,115
 484 782 484 782 428 767 c 128,-1,116
 372 752 372 752 305 752 c 0,117,118
 258 752 258 752 215 759.5 c 128,-1,119
 172 767 172 767 139 776 c 0,120,121
 100 787 100 787 67 801 c 1,48,49
EndSplineSet
EndChar

StartChar: AE
Encoding: 198 198 152
Width: 1423
Flags: W
LayerCount: 2
Fore
SplineSet
373 1358 m 1,0,-1
 1341 1358 l 1,1,2
 1341 1351 1341 1351 1342 1343 c 0,3,4
 1343 1336 1343 1336 1343.5 1327 c 128,-1,5
 1344 1318 1344 1318 1344 1308 c 0,6,7
 1344 1291 1344 1291 1337.5 1256 c 128,-1,8
 1331 1221 1331 1221 1308 1176 c 1,9,10
 1237 1178 1237 1178 1161 1180 c 0,11,12
 1095 1182 1095 1182 1016 1183.5 c 128,-1,13
 937 1185 937 1185 859 1185 c 1,14,-1
 859 726 l 1,15,16
 884 726 884 726 916 726.5 c 128,-1,17
 948 727 948 727 983 727.5 c 128,-1,18
 1018 728 1018 728 1054.5 729 c 128,-1,19
 1091 730 1091 730 1125 731 c 0,20,21
 1205 733 1205 733 1289 736 c 1,22,23
 1289 724 1289 724 1290 713 c 256,24,25
 1291 702 1291 702 1291.5 690 c 128,-1,26
 1292 678 1292 678 1292 666 c 0,27,28
 1292 659 1292 659 1287.5 636.5 c 128,-1,29
 1283 614 1283 614 1268 558 c 1,30,-1
 1105 558 l 2,31,32
 1072 558 1072 558 1037 558 c 128,-1,33
 1002 558 1002 558 969.5 558.5 c 128,-1,34
 937 559 937 559 908.5 559 c 128,-1,35
 880 559 880 559 859 559 c 1,36,-1
 859 171 l 1,37,38
 936 171 936 171 1022 173.5 c 128,-1,39
 1108 176 1108 176 1181 179 c 0,40,41
 1266 183 1266 183 1349 186 c 1,42,43
 1349 178 1349 178 1350 168 c 0,44,45
 1351 160 1351 160 1351.5 148.5 c 128,-1,46
 1352 137 1352 137 1352 126 c 0,47,48
 1352 106 1352 106 1349 71.5 c 128,-1,49
 1346 37 1346 37 1336 0 c 1,50,-1
 632 0 l 1,51,-1
 632 458 l 1,52,-1
 323 458 l 1,53,-1
 197 0 l 1,54,-1
 -27 0 l 1,55,-1
 373 1358 l 1,0,-1
632 632 m 1,56,-1
 632 1193 l 1,57,-1
 526 1193 l 1,58,-1
 374 632 l 1,59,-1
 632 632 l 1,56,-1
EndSplineSet
EndChar

StartChar: Ccedilla
Encoding: 199 199 242
Width: 1069
Flags: W
LayerCount: 2
Fore
SplineSet
51 667 m 0,0,1
 51 838 51 838 91 971.5 c 128,-1,2
 131 1105 131 1105 209 1196.5 c 128,-1,3
 287 1288 287 1288 401 1336 c 128,-1,4
 515 1384 515 1384 663 1384 c 0,5,6
 722 1384 722 1384 779 1375.5 c 128,-1,7
 836 1367 836 1367 883 1356 c 0,8,9
 937 1344 937 1344 987 1329 c 1,10,11
 984 1303 984 1303 978 1274 c 0,12,13
 973 1248 973 1248 962.5 1215.5 c 128,-1,14
 952 1183 952 1183 935 1148 c 1,15,16
 898 1163 898 1163 854 1174 c 0,17,18
 816 1184 816 1184 767 1192 c 128,-1,19
 718 1200 718 1200 663 1200 c 0,20,21
 574 1200 574 1200 502.5 1164 c 128,-1,22
 431 1128 431 1128 380.5 1059.5 c 128,-1,23
 330 991 330 991 303 892 c 128,-1,24
 276 793 276 793 276 667 c 0,25,26
 276 542 276 542 303 447 c 128,-1,27
 330 352 330 352 380.5 288 c 128,-1,28
 431 224 431 224 502.5 191.5 c 128,-1,29
 574 159 574 159 663 159 c 0,30,31
 719 159 719 159 770 167 c 128,-1,32
 821 175 821 175 860 185 c 0,33,34
 906 196 906 196 945 212 c 1,35,36
 956 189 956 189 964 161 c 0,37,38
 971 137 971 137 976.5 103.5 c 128,-1,39
 982 70 982 70 980 28 c 1,40,41
 941 16 941 16 898 5 c 0,42,43
 860 -4 860 -4 812.5 -12.5 c 128,-1,44
 765 -21 765 -21 712 -24 c 1,45,46
 720 -54 720 -54 726 -92.5 c 128,-1,47
 732 -131 732 -131 732 -166 c 0,48,49
 732 -220 732 -220 713.5 -268.5 c 128,-1,50
 695 -317 695 -317 659 -354 c 128,-1,51
 623 -391 623 -391 570.5 -412.5 c 128,-1,52
 518 -434 518 -434 451 -434 c 0,53,54
 416 -434 416 -434 391 -429 c 0,55,56
 378 -426 378 -426 368 -423 c 1,57,58
 364 -410 364 -410 361 -394 c 0,59,60
 358 -380 358 -380 356 -362.5 c 128,-1,61
 354 -345 354 -345 354 -324 c 0,62,63
 354 -302 354 -302 357.5 -276 c 128,-1,64
 361 -250 361 -250 370 -218 c 1,65,66
 393 -223 393 -223 410.5 -227 c 128,-1,67
 428 -231 428 -231 436 -231 c 0,68,69
 464 -231 464 -231 484.5 -221.5 c 128,-1,70
 505 -212 505 -212 518.5 -196.5 c 128,-1,71
 532 -181 532 -181 538.5 -160 c 128,-1,72
 545 -139 545 -139 545 -116 c 0,73,74
 545 -105 545 -105 544.5 -91 c 128,-1,75
 544 -77 544 -77 543 -63.5 c 128,-1,76
 542 -50 542 -50 540.5 -38 c 128,-1,77
 539 -26 539 -26 537 -17 c 1,78,79
 296 17 296 17 173.5 189 c 128,-1,80
 51 361 51 361 51 667 c 0,0,1
EndSplineSet
EndChar

StartChar: Eth
Encoding: 208 208 119
Width: 1265
Flags: W
LayerCount: 2
Fore
SplineSet
56 773 m 1,0,1
 83 773 83 773 111 773.5 c 128,-1,2
 139 774 139 774 168 775 c 1,3,-1
 168 1357 l 1,4,5
 219 1359 219 1359 281 1362 c 0,6,7
 335 1364 335 1364 407.5 1366 c 128,-1,8
 480 1368 480 1368 567 1368 c 0,9,10
 723 1368 723 1368 843 1326.5 c 128,-1,11
 963 1285 963 1285 1045.5 1201 c 128,-1,12
 1128 1117 1128 1117 1170.5 990 c 128,-1,13
 1213 863 1213 863 1213 692 c 256,14,15
 1213 521 1213 521 1167 391.5 c 128,-1,16
 1121 262 1121 262 1035.5 175 c 128,-1,17
 950 88 950 88 828 44 c 128,-1,18
 706 0 706 0 553 0 c 2,19,-1
 168 0 l 1,20,-1
 168 617 l 1,21,-1
 56 617 l 1,22,-1
 56 773 l 1,0,1
587 175 m 2,23,24
 680 175 680 175 753 214.5 c 128,-1,25
 826 254 826 254 877 323.5 c 128,-1,26
 928 393 928 393 955 486.5 c 128,-1,27
 982 580 982 580 982 688 c 0,28,29
 982 813 982 813 955 907.5 c 128,-1,30
 928 1002 928 1002 877 1066 c 128,-1,31
 826 1130 826 1130 753 1162 c 128,-1,32
 680 1194 680 1194 587 1194 c 0,33,34
 536 1194 536 1194 499 1193 c 128,-1,35
 462 1192 462 1192 439 1191 c 0,36,37
 412 1189 412 1189 394 1188 c 1,38,-1
 394 779 l 1,39,40
 460 780 460 780 518 781 c 128,-1,41
 576 782 576 782 620 783 c 0,42,43
 671 784 671 784 714 784 c 1,44,45
 714 776 714 776 715 767 c 0,46,47
 716 759 716 759 716.5 748.5 c 128,-1,48
 717 738 717 738 717 727 c 0,49,50
 717 707 717 707 714 677.5 c 128,-1,51
 711 648 711 648 700 613 c 1,52,53
 658 613 658 613 610 614 c 0,54,55
 568 615 568 615 512.5 615 c 128,-1,56
 457 615 457 615 394 616 c 1,57,-1
 394 175 l 1,58,-1
 587 175 l 2,23,24
EndSplineSet
EndChar

StartChar: multiply
Encoding: 215 215 136
Width: 1368
Flags: W
LayerCount: 2
Fore
SplineSet
553 612 m 1,0,-1
 182 988 l 1,1,-1
 307 1113 l 1,2,-1
 672 721 l 1,3,-1
 1037 1113 l 1,4,-1
 1172 978 l 1,5,-1
 800 592 l 1,6,-1
 1162 216 l 1,7,-1
 1037 92 l 1,8,-1
 682 483 l 1,9,-1
 317 92 l 1,10,-1
 182 226 l 1,11,-1
 553 612 l 1,0,-1
EndSplineSet
EndChar

StartChar: Oslash
Encoding: 216 216 127
Width: 1290
Flags: W
LayerCount: 2
Fore
SplineSet
649 -26 m 0,0,1
 577 -26 577 -26 515.5 -14.5 c 128,-1,2
 454 -3 454 -3 401 18 c 1,3,-1
 307 -180 l 1,4,5
 290 -176 290 -176 272 -168 c 0,6,7
 256 -161 256 -161 236 -149 c 128,-1,8
 216 -137 216 -137 196 -117 c 1,9,-1
 292 83 l 1,10,11
 183 171 183 171 133 322 c 128,-1,12
 83 473 83 473 83 679 c 0,13,14
 83 843 83 843 116.5 974 c 128,-1,15
 150 1105 150 1105 219.5 1196 c 128,-1,16
 289 1287 289 1287 396 1335.5 c 128,-1,17
 503 1384 503 1384 649 1384 c 0,18,19
 777 1384 777 1384 877 1350 c 1,20,-1
 958 1520 l 1,21,22
 978 1517 978 1517 997 1509 c 0,23,24
 1014 1502 1014 1502 1032.5 1490 c 128,-1,25
 1051 1478 1051 1478 1066 1458 c 1,26,-1
 988 1294 l 1,27,28
 1105 1213 1105 1213 1156 1061.5 c 128,-1,29
 1207 910 1207 910 1207 698 c 0,30,31
 1207 533 1207 533 1175 399.5 c 128,-1,32
 1143 266 1143 266 1075 171.5 c 128,-1,33
 1007 77 1007 77 901.5 25.5 c 128,-1,34
 796 -26 796 -26 649 -26 c 0,0,1
649 149 m 0,35,36
 744 149 744 149 807.5 189 c 128,-1,37
 871 229 871 229 909.5 301.5 c 128,-1,38
 948 374 948 374 964.5 475 c 128,-1,39
 981 576 981 576 981 698 c 0,40,41
 981 844 981 844 961 946 c 128,-1,42
 941 1048 941 1048 892 1111 c 1,43,-1
 477 191 l 1,44,45
 546 149 546 149 649 149 c 0,35,36
308 679 m 0,46,47
 308 544 308 544 327.5 442 c 128,-1,48
 347 340 347 340 393 271 c 1,49,-1
 807 1180 l 1,50,51
 775 1195 775 1195 736 1203 c 128,-1,52
 697 1211 697 1211 649 1211 c 0,53,54
 554 1211 554 1211 488.5 1175.5 c 128,-1,55
 423 1140 423 1140 383 1071.5 c 128,-1,56
 343 1003 343 1003 325.5 904 c 128,-1,57
 308 805 308 805 308 679 c 0,46,47
EndSplineSet
EndChar

StartChar: Thorn
Encoding: 222 222 118
Width: 1116
Flags: W
LayerCount: 2
Fore
SplineSet
153 1358 m 1,0,-1
 382 1358 l 1,1,-1
 382 1114 l 1,2,-1
 658 1114 l 2,3,4
 758 1114 758 1114 835 1084.5 c 128,-1,5
 912 1055 912 1055 963.5 1001 c 128,-1,6
 1015 947 1015 947 1041.5 870 c 128,-1,7
 1068 793 1068 793 1068 697 c 0,8,9
 1068 610 1068 610 1036.5 532 c 128,-1,10
 1005 454 1005 454 943.5 394.5 c 128,-1,11
 882 335 882 335 791.5 300 c 128,-1,12
 701 265 701 265 582 265 c 0,13,14
 539 265 539 265 502.5 267 c 128,-1,15
 466 269 466 269 439 272 c 0,16,17
 407 276 407 276 380 280 c 1,18,-1
 380 0 l 1,19,-1
 153 0 l 1,20,-1
 153 1358 l 1,0,-1
380 443 m 1,21,22
 398 441 398 441 433 438.5 c 128,-1,23
 468 436 468 436 517 436 c 0,24,25
 585 436 585 436 642.5 449.5 c 128,-1,26
 700 463 700 463 742 494 c 128,-1,27
 784 525 784 525 807.5 573.5 c 128,-1,28
 831 622 831 622 831 693 c 0,29,30
 831 749 831 749 818 795.5 c 128,-1,31
 805 842 805 842 778 875 c 128,-1,32
 751 908 751 908 710 926.5 c 128,-1,33
 669 945 669 945 614 945 c 2,34,-1
 380 945 l 1,35,-1
 380 443 l 1,21,22
EndSplineSet
EndChar

StartChar: germandbls
Encoding: 223 223 146
Width: 1141
Flags: W
LayerCount: 2
Fore
SplineSet
149 926 m 2,0,1
 149 1011 149 1011 175.5 1093.5 c 128,-1,2
 202 1176 202 1176 255.5 1240.5 c 128,-1,3
 309 1305 309 1305 390 1344.5 c 128,-1,4
 471 1384 471 1384 580 1384 c 0,5,6
 630 1384 630 1384 690.5 1372 c 128,-1,7
 751 1360 751 1360 804 1329.5 c 128,-1,8
 857 1299 857 1299 892.5 1247.5 c 128,-1,9
 928 1196 928 1196 928 1117 c 0,10,11
 928 1064 928 1064 916 1025.5 c 128,-1,12
 904 987 904 987 885.5 957 c 128,-1,13
 867 927 867 927 844.5 904 c 128,-1,14
 822 881 822 881 800 860 c 0,15,16
 786 846 786 846 771.5 831.5 c 128,-1,17
 757 817 757 817 745.5 800.5 c 128,-1,18
 734 784 734 784 726.5 766 c 128,-1,19
 719 748 719 748 719 729 c 0,20,21
 719 708 719 708 724.5 696 c 128,-1,22
 730 684 730 684 744 675 c 128,-1,23
 758 666 758 666 780.5 657 c 128,-1,24
 803 648 803 648 838 633 c 0,25,26
 916 599 916 599 966 564 c 128,-1,27
 1016 529 1016 529 1044 487.5 c 128,-1,28
 1072 446 1072 446 1082.5 396 c 128,-1,29
 1093 346 1093 346 1093 282 c 0,30,31
 1093 213 1093 213 1064.5 157.5 c 128,-1,32
 1036 102 1036 102 986.5 62.5 c 128,-1,33
 937 23 937 23 870 1.5 c 128,-1,34
 803 -20 803 -20 725 -20 c 0,35,36
 668 -20 668 -20 621.5 -11.5 c 128,-1,37
 575 -3 575 -3 542 8 c 0,38,39
 503 20 503 20 473 37 c 1,40,41
 473 63 473 63 478 92 c 0,42,43
 483 116 483 116 492 146.5 c 128,-1,44
 501 177 501 177 519 208 c 1,45,46
 551 195 551 195 585 184 c 0,47,48
 614 175 614 175 649.5 167.5 c 128,-1,49
 685 160 685 160 719 160 c 0,50,51
 746 160 746 160 772.5 164 c 128,-1,52
 799 168 799 168 820 181 c 128,-1,53
 841 194 841 194 854.5 216.5 c 128,-1,54
 868 239 868 239 868 277 c 0,55,56
 868 332 868 332 836 378 c 128,-1,57
 804 424 804 424 739 452 c 0,58,59
 677 479 677 479 633 502.5 c 128,-1,60
 589 526 589 526 561 554.5 c 128,-1,61
 533 583 533 583 520 619.5 c 128,-1,62
 507 656 507 656 507 708 c 0,63,64
 507 746 507 746 516 773.5 c 128,-1,65
 525 801 525 801 539.5 823 c 128,-1,66
 554 845 554 845 572.5 863 c 128,-1,67
 591 881 591 881 611 900 c 0,68,69
 628 916 628 916 646 935 c 128,-1,70
 664 954 664 954 678.5 977 c 128,-1,71
 693 1000 693 1000 702.5 1029 c 128,-1,72
 712 1058 712 1058 712 1095 c 0,73,74
 712 1150 712 1150 675.5 1185.5 c 128,-1,75
 639 1221 639 1221 569 1221 c 0,76,77
 522 1221 522 1221 482.5 1197.5 c 128,-1,78
 443 1174 443 1174 414.5 1135.5 c 128,-1,79
 386 1097 386 1097 370 1048.5 c 128,-1,80
 354 1000 354 1000 354 950 c 2,81,-1
 354 0 l 1,82,-1
 149 0 l 1,83,-1
 149 926 l 2,0,1
EndSplineSet
EndChar

StartChar: ae
Encoding: 230 230 40
Width: 1577
Flags: W
LayerCount: 2
Fore
SplineSet
67 317 m 0,0,1
 67 390 67 390 96 443 c 128,-1,2
 125 496 125 496 172.5 530.5 c 128,-1,3
 220 565 220 565 281 583.5 c 128,-1,4
 342 602 342 602 407 607 c 1,5,6
 474 609 474 609 533 611.5 c 128,-1,7
 592 614 592 614 660 616 c 1,8,-1
 660 701 l 2,9,10
 660 752 660 752 651 788 c 128,-1,11
 642 824 642 824 620 846.5 c 128,-1,12
 598 869 598 869 560.5 879 c 128,-1,13
 523 889 523 889 466 889 c 0,14,15
 414 889 414 889 368 879 c 128,-1,16
 322 869 322 869 287 858 c 1,17,18
 247 844 247 844 212 827 c 1,19,20
 189 856 189 856 177 882.5 c 128,-1,21
 165 909 165 909 159 930 c 0,22,23
 152 955 152 955 150 976 c 1,24,25
 196 996 196 996 248 1013 c 0,26,27
 293 1027 293 1027 349.5 1038.5 c 128,-1,28
 406 1050 406 1050 466 1050 c 0,29,30
 547 1050 547 1050 604.5 1041 c 128,-1,31
 662 1032 662 1032 701.5 1015 c 128,-1,32
 741 998 741 998 766.5 974.5 c 128,-1,33
 792 951 792 951 810 922 c 1,34,35
 836 950 836 950 870 973.5 c 128,-1,36
 904 997 904 997 942.5 1014 c 128,-1,37
 981 1031 981 1031 1022.5 1040.5 c 128,-1,38
 1064 1050 1064 1050 1105 1050 c 0,39,40
 1198 1050 1198 1050 1271 1023 c 128,-1,41
 1344 996 1344 996 1394.5 945.5 c 128,-1,42
 1445 895 1445 895 1472 823.5 c 128,-1,43
 1499 752 1499 752 1499 663 c 0,44,45
 1499 631 1499 631 1497.5 603 c 128,-1,46
 1496 575 1496 575 1494 554 c 0,47,48
 1492 529 1492 529 1490 509 c 1,49,-1
 859 489 l 1,50,51
 861 320 861 320 932 234 c 128,-1,52
 1003 148 1003 148 1135 148 c 0,53,54
 1189 148 1189 148 1237.5 157.5 c 128,-1,55
 1286 167 1286 167 1324 178 c 0,56,57
 1368 191 1368 191 1406 209 c 1,58,59
 1422 172 1422 172 1431.5 142.5 c 128,-1,60
 1441 113 1441 113 1446 91 c 0,61,62
 1452 65 1452 65 1454 46 c 1,63,64
 1411 27 1411 27 1361 13 c 0,65,66
 1317 0 1317 0 1259.5 -10 c 128,-1,67
 1202 -20 1202 -20 1135 -20 c 0,68,69
 1011 -20 1011 -20 925 17.5 c 128,-1,70
 839 55 839 55 778 127 c 1,71,-1
 757 127 l 1,72,73
 751 119 751 119 729 95.5 c 128,-1,74
 707 72 707 72 665 46 c 128,-1,75
 623 20 623 20 560.5 0 c 128,-1,76
 498 -20 498 -20 412 -20 c 0,77,78
 337 -20 337 -20 273.5 3 c 128,-1,79
 210 26 210 26 164.5 69.5 c 128,-1,80
 119 113 119 113 93 175.5 c 128,-1,81
 67 238 67 238 67 317 c 0,0,1
285 326 m 0,82,83
 285 279 285 279 300.5 245 c 128,-1,84
 316 211 316 211 343 188.5 c 128,-1,85
 370 166 370 166 406 155 c 128,-1,86
 442 144 442 144 483 144 c 256,87,88
 524 144 524 144 559.5 155 c 128,-1,89
 595 166 595 166 624 181 c 128,-1,90
 653 196 653 196 674 212 c 128,-1,91
 695 228 695 228 707 239 c 1,92,93
 688 286 688 286 675 346 c 128,-1,94
 662 406 662 406 660 472 c 1,95,-1
 428 462 l 2,96,97
 349 458 349 458 317 424 c 128,-1,98
 285 390 285 390 285 326 c 0,82,83
868 628 m 1,99,100
 925 630 925 630 979.5 632.5 c 128,-1,101
 1034 635 1034 635 1088 637.5 c 128,-1,102
 1142 640 1142 640 1197 642.5 c 128,-1,103
 1252 645 1252 645 1310 647 c 1,104,105
 1310 708 1310 708 1296.5 753.5 c 128,-1,106
 1283 799 1283 799 1259 829 c 128,-1,107
 1235 859 1235 859 1201.5 874 c 128,-1,108
 1168 889 1168 889 1128 889 c 0,109,110
 1020 889 1020 889 953.5 822 c 128,-1,111
 887 755 887 755 868 628 c 1,99,100
EndSplineSet
EndChar

StartChar: ccedilla
Encoding: 231 231 182
Width: 858
Flags: W
LayerCount: 2
Fore
SplineSet
79 513 m 0,0,1
 79 645 79 645 111 745 c 128,-1,2
 143 845 143 845 204.5 913 c 128,-1,3
 266 981 266 981 355.5 1015.5 c 128,-1,4
 445 1050 445 1050 560 1050 c 0,5,6
 602 1050 602 1050 645 1042 c 128,-1,7
 688 1034 688 1034 723 1025 c 0,8,9
 763 1014 763 1014 801 1000 c 1,10,11
 798 972 798 972 792 942 c 0,12,13
 787 916 787 916 777.5 885.5 c 128,-1,14
 768 855 768 855 754 826 c 1,15,16
 727 837 727 837 696 847 c 0,17,18
 669 855 669 855 634 862 c 128,-1,19
 599 869 599 869 560 869 c 0,20,21
 493 869 493 869 443.5 844.5 c 128,-1,22
 394 820 394 820 361 774 c 128,-1,23
 328 728 328 728 312 662 c 128,-1,24
 296 596 296 596 296 514 c 0,25,26
 296 334 296 334 365.5 241 c 128,-1,27
 435 148 435 148 570 148 c 0,28,29
 610 148 610 148 646 154.5 c 128,-1,30
 682 161 682 161 711 169 c 0,31,32
 744 179 744 179 773 191 c 1,33,34
 783 169 783 169 791 143 c 0,35,36
 798 120 798 120 803.5 90.5 c 128,-1,37
 809 61 809 61 808 27 c 1,38,39
 781 17 781 17 749 8 c 0,40,41
 722 0 722 0 687.5 -7 c 128,-1,42
 653 -14 653 -14 616 -17 c 1,43,44
 624 -48 624 -48 630.5 -89.5 c 128,-1,45
 637 -131 637 -131 637 -166 c 0,46,47
 637 -220 637 -220 618.5 -268.5 c 128,-1,48
 600 -317 600 -317 564 -354 c 128,-1,49
 528 -391 528 -391 475.5 -412.5 c 128,-1,50
 423 -434 423 -434 356 -434 c 0,51,52
 321 -434 321 -434 296 -429 c 0,53,54
 283 -426 283 -426 273 -423 c 1,55,56
 269 -410 269 -410 266 -394 c 0,57,58
 263 -380 263 -380 261 -362.5 c 128,-1,59
 259 -345 259 -345 259 -324 c 0,60,61
 259 -302 259 -302 262.5 -276 c 128,-1,62
 266 -250 266 -250 275 -218 c 1,63,64
 298 -223 298 -223 315.5 -227 c 128,-1,65
 333 -231 333 -231 341 -231 c 0,66,67
 369 -231 369 -231 389.5 -221.5 c 128,-1,68
 410 -212 410 -212 423.5 -196.5 c 128,-1,69
 437 -181 437 -181 443.5 -160 c 128,-1,70
 450 -139 450 -139 450 -116 c 0,71,72
 450 -105 450 -105 449 -90.5 c 128,-1,73
 448 -76 448 -76 446.5 -60.5 c 128,-1,74
 445 -45 445 -45 443.5 -31 c 128,-1,75
 442 -17 442 -17 440 -8 c 1,76,77
 265 25 265 25 172 155.5 c 128,-1,78
 79 286 79 286 79 513 c 0,0,1
EndSplineSet
EndChar

StartChar: eth
Encoding: 240 240 107
Width: 1135
Flags: W
LayerCount: 2
Fore
SplineSet
439 1308 m 1,0,-1
 578 1423 l 1,1,2
 551 1449 551 1449 517.5 1470.5 c 128,-1,3
 484 1492 484 1492 450.5 1507.5 c 128,-1,4
 417 1523 417 1523 388 1533 c 128,-1,5
 359 1543 359 1543 342 1546 c 1,6,7
 349 1584 349 1584 357 1611.5 c 128,-1,8
 365 1639 365 1639 372 1658 c 0,9,10
 380 1680 380 1680 387 1695 c 1,11,12
 420 1695 420 1695 464 1678 c 128,-1,13
 508 1661 508 1661 552 1635.5 c 128,-1,14
 596 1610 596 1610 634 1581 c 128,-1,15
 672 1552 672 1552 693 1528 c 1,16,-1
 825 1681 l 1,17,-1
 935 1554 l 1,18,-1
 799 1425 l 1,19,20
 843 1372 843 1372 889.5 1302.5 c 128,-1,21
 936 1233 936 1233 974.5 1138.5 c 128,-1,22
 1013 1044 1013 1044 1038 919.5 c 128,-1,23
 1063 795 1063 795 1064 631 c 0,24,25
 1064 543 1064 543 1052.5 460.5 c 128,-1,26
 1041 378 1041 378 1015 305 c 128,-1,27
 989 232 989 232 949 171 c 128,-1,28
 909 110 909 110 853 66.5 c 128,-1,29
 797 23 797 23 724 -1.5 c 128,-1,30
 651 -26 651 -26 561 -26 c 0,31,32
 455 -26 455 -26 367.5 18 c 128,-1,33
 280 62 280 62 217.5 136 c 128,-1,34
 155 210 155 210 120.5 306.5 c 128,-1,35
 86 403 86 403 86 508 c 0,36,37
 86 654 86 654 124 756.5 c 128,-1,38
 162 859 162 859 223.5 924 c 128,-1,39
 285 989 285 989 363.5 1019 c 128,-1,40
 442 1049 442 1049 523 1049 c 0,41,42
 587 1049 587 1049 641 1036.5 c 128,-1,43
 695 1024 695 1024 737 1003 c 128,-1,44
 779 982 779 982 810 954 c 128,-1,45
 841 926 841 926 861 895 c 1,46,47
 865 921 865 921 858.5 958 c 128,-1,48
 852 995 852 995 838 1037.5 c 128,-1,49
 824 1080 824 1080 804.5 1123 c 128,-1,50
 785 1166 785 1166 763 1203.5 c 128,-1,51
 741 1241 741 1241 718 1269.5 c 128,-1,52
 695 1298 695 1298 676 1311 c 1,53,-1
 554 1190 l 1,54,-1
 439 1308 l 1,0,-1
311 492 m 0,55,56
 311 432 311 432 325 369.5 c 128,-1,57
 339 307 339 307 370 255.5 c 128,-1,58
 401 204 401 204 450 171 c 128,-1,59
 499 138 499 138 569 138 c 0,60,61
 613 138 613 138 650.5 154.5 c 128,-1,62
 688 171 688 171 718 199 c 128,-1,63
 748 227 748 227 771 263.5 c 128,-1,64
 794 300 794 300 809 340 c 128,-1,65
 824 380 824 380 832 420 c 128,-1,66
 840 460 840 460 840 496 c 0,67,68
 840 505 840 505 840 530 c 128,-1,69
 840 555 840 555 840 582.5 c 128,-1,70
 840 610 840 610 839 634.5 c 128,-1,71
 838 659 838 659 837 668 c 0,72,73
 830 713 830 713 804 754 c 128,-1,74
 778 795 778 795 740 826.5 c 128,-1,75
 702 858 702 858 655.5 876.5 c 128,-1,76
 609 895 609 895 561 895 c 0,77,78
 502 895 502 895 455.5 866.5 c 128,-1,79
 409 838 409 838 377 785.5 c 128,-1,80
 345 733 345 733 328 658.5 c 128,-1,81
 311 584 311 584 311 492 c 0,55,56
EndSplineSet
EndChar

StartChar: divide
Encoding: 247 247 137
Width: 1535
Flags: W
LayerCount: 2
Fore
SplineSet
203 685 m 1,0,-1
 1313 685 l 1,1,-1
 1313 510 l 1,2,-1
 203 510 l 1,3,-1
 203 685 l 1,0,-1
613 151 m 0,4,5
 613 179 613 179 624.5 204 c 128,-1,6
 636 229 636 229 656 248 c 128,-1,7
 676 267 676 267 703 277.5 c 128,-1,8
 730 288 730 288 761 288 c 256,9,10
 792 288 792 288 819 277.5 c 128,-1,11
 846 267 846 267 866 248 c 128,-1,12
 886 229 886 229 897.5 204 c 128,-1,13
 909 179 909 179 909 151 c 0,14,15
 909 122 909 122 897.5 96.5 c 128,-1,16
 886 71 886 71 866 52.5 c 128,-1,17
 846 34 846 34 819 23 c 128,-1,18
 792 12 792 12 761 12 c 256,19,20
 730 12 730 12 703 23 c 128,-1,21
 676 34 676 34 656 52.5 c 128,-1,22
 636 71 636 71 624.5 96.5 c 128,-1,23
 613 122 613 122 613 151 c 0,4,5
613 1064 m 0,24,25
 613 1092 613 1092 624.5 1117 c 128,-1,26
 636 1142 636 1142 656 1161 c 128,-1,27
 676 1180 676 1180 703 1190.5 c 128,-1,28
 730 1201 730 1201 761 1201 c 256,29,30
 792 1201 792 1201 819 1190.5 c 128,-1,31
 846 1180 846 1180 866 1161 c 128,-1,32
 886 1142 886 1142 897.5 1117 c 128,-1,33
 909 1092 909 1092 909 1064 c 0,34,35
 909 1035 909 1035 897.5 1009.5 c 128,-1,36
 886 984 886 984 866 965.5 c 128,-1,37
 846 947 846 947 819 936 c 128,-1,38
 792 925 792 925 761 925 c 256,39,40
 730 925 730 925 703 936 c 128,-1,41
 676 947 676 947 656 965.5 c 128,-1,42
 636 984 636 984 624.5 1009.5 c 128,-1,43
 613 1035 613 1035 613 1064 c 0,24,25
EndSplineSet
EndChar

StartChar: oslash
Encoding: 248 248 41
Width: 1118
Flags: W
LayerCount: 2
Fore
SplineSet
76 523 m 0,0,1
 76 655 76 655 111.5 754 c 128,-1,2
 147 853 147 853 211.5 918.5 c 128,-1,3
 276 984 276 984 365.5 1017 c 128,-1,4
 455 1050 455 1050 563 1050 c 0,5,6
 609 1050 609 1050 650 1044.5 c 128,-1,7
 691 1039 691 1039 729 1028 c 1,8,-1
 803 1172 l 1,9,10
 828 1177 828 1177 852 1176 c 0,11,12
 872 1175 872 1175 894.5 1167.5 c 128,-1,13
 917 1160 917 1160 932 1140 c 1,14,-1
 844 975 l 1,15,16
 889 944 889 944 926 902.5 c 128,-1,17
 963 861 963 861 988.5 807 c 128,-1,18
 1014 753 1014 753 1028 686 c 128,-1,19
 1042 619 1042 619 1042 537 c 0,20,21
 1042 405 1042 405 1008.5 301 c 128,-1,22
 975 197 975 197 912.5 126 c 128,-1,23
 850 55 850 55 761.5 17.5 c 128,-1,24
 673 -20 673 -20 563 -20 c 0,25,26
 461 -20 461 -20 382 7 c 1,27,-1
 297 -159 l 1,28,29
 275 -161 275 -161 252 -157 c 0,30,31
 232 -154 232 -154 209 -145 c 128,-1,32
 186 -136 186 -136 166 -116 c 1,33,-1
 267 67 l 1,34,35
 178 134 178 134 127 248 c 128,-1,36
 76 362 76 362 76 523 c 0,0,1
563 145 m 256,37,38
 629 145 629 145 677.5 175 c 128,-1,39
 726 205 726 205 757 258 c 128,-1,40
 788 311 788 311 803 382.5 c 128,-1,41
 818 454 818 454 818 537 c 0,42,43
 818 633 818 633 798 697 c 128,-1,44
 778 761 778 761 744 808 c 1,45,-1
 451 169 l 1,46,47
 497 145 497 145 563 145 c 256,37,38
300 523 m 0,48,49
 300 432 300 432 319.5 362 c 128,-1,50
 339 292 339 292 370 244 c 1,51,-1
 663 873 l 1,52,53
 619 891 619 891 563 891 c 0,54,55
 496 891 496 891 446.5 864.5 c 128,-1,56
 397 838 397 838 364.5 789.5 c 128,-1,57
 332 741 332 741 316 673 c 128,-1,58
 300 605 300 605 300 523 c 0,48,49
EndSplineSet
EndChar

StartChar: thorn
Encoding: 254 254 108
Width: 1089
Flags: W
LayerCount: 2
Fore
SplineSet
348 1439 m 1,0,-1
 348 962 l 1,1,-1
 354 962 l 1,2,3
 361 968 361 968 382 983 c 128,-1,4
 403 998 403 998 436.5 1013 c 128,-1,5
 470 1028 470 1028 514.5 1039.5 c 128,-1,6
 559 1051 559 1051 615 1051 c 0,7,8
 691 1051 691 1051 762.5 1027 c 128,-1,9
 834 1003 834 1003 889 944 c 128,-1,10
 944 885 944 885 977 784.5 c 128,-1,11
 1010 684 1010 684 1010 531 c 0,12,13
 1010 393 1010 393 970 290 c 128,-1,14
 930 187 930 187 862 118 c 128,-1,15
 794 49 794 49 703.5 14.5 c 128,-1,16
 613 -20 613 -20 512 -20 c 0,17,18
 466 -20 466 -20 425.5 -18 c 128,-1,19
 385 -16 385 -16 350 -13 c 1,20,-1
 351 -405 l 1,21,-1
 136 -405 l 1,22,-1
 136 1439 l 1,23,-1
 348 1439 l 1,0,-1
348 157 m 1,24,25
 362 151 362 151 391.5 143 c 128,-1,26
 421 135 421 135 467 135 c 0,27,28
 622 135 622 135 703.5 238 c 128,-1,29
 785 341 785 341 785 531 c 0,30,31
 785 637 785 637 765.5 706 c 128,-1,32
 746 775 746 775 710 815.5 c 128,-1,33
 674 856 674 856 622.5 872 c 128,-1,34
 571 888 571 888 506 888 c 0,35,36
 479 888 479 888 451 879.5 c 128,-1,37
 423 871 423 871 400 860 c 0,38,39
 373 848 373 848 348 833 c 1,40,-1
 348 157 l 1,24,25
EndSplineSet
EndChar

StartChar: Aogonek
Encoding: 260 260 254
Width: 1121
Flags: W
LayerCount: 2
Fore
SplineSet
384 1358 m 1,0,-1
 725 1358 l 1,1,-1
 1131 0 l 1,2,-1
 997 0 l 1,3,4
 968 -11 968 -11 950 -34 c 128,-1,5
 932 -57 932 -57 932 -94 c 0,6,7
 932 -124 932 -124 964 -142 c 128,-1,8
 996 -160 996 -160 1053 -160 c 0,9,10
 1073 -160 1073 -160 1087.5 -158 c 128,-1,11
 1102 -156 1102 -156 1119 -151 c 1,12,13
 1128 -183 1128 -183 1131.5 -207.5 c 128,-1,14
 1135 -232 1135 -232 1135 -253 c 256,15,16
 1135 -274 1135 -274 1132.5 -291 c 128,-1,17
 1130 -308 1130 -308 1128 -319 c 0,18,19
 1125 -333 1125 -333 1122 -343 c 1,20,21
 1111 -346 1111 -346 1098 -349 c 0,22,23
 1073 -354 1073 -354 1037 -354 c 0,24,25
 969 -354 969 -354 916.5 -337.5 c 128,-1,26
 864 -321 864 -321 828 -291.5 c 128,-1,27
 792 -262 792 -262 773.5 -221.5 c 128,-1,28
 755 -181 755 -181 755 -133 c 0,29,30
 755 -82 755 -82 785 -26.5 c 128,-1,31
 815 29 815 29 882 73 c 1,32,-1
 780 415 l 1,33,-1
 341 415 l 1,34,-1
 223 0 l 1,35,-1
 -10 0 l 1,36,-1
 384 1358 l 1,0,-1
733 589 m 1,37,-1
 550 1255 l 1,38,-1
 385 589 l 1,39,-1
 733 589 l 1,37,-1
EndSplineSet
EndChar

StartChar: aogonek
Encoding: 261 261 249
Width: 992
Flags: W
LayerCount: 2
Fore
SplineSet
64 292 m 0,0,1
 64 375 64 375 88 433 c 128,-1,2
 112 491 112 491 158.5 528 c 128,-1,3
 205 565 205 565 271.5 583.5 c 128,-1,4
 338 602 338 602 424 607 c 2,5,-1
 647 619 l 1,6,-1
 647 699 l 2,7,8
 647 753 647 753 637.5 788 c 128,-1,9
 628 823 628 823 606 844 c 128,-1,10
 584 865 584 865 547.5 873.5 c 128,-1,11
 511 882 511 882 457 882 c 256,12,13
 403 882 403 882 354.5 870 c 128,-1,14
 306 858 306 858 270 844 c 0,15,16
 227 827 227 827 191 806 c 1,17,18
 169 837 169 837 156 865.5 c 128,-1,19
 143 894 143 894 136 917 c 0,20,21
 127 943 127 943 124 967 c 1,22,23
 172 991 172 991 227 1009 c 0,24,25
 275 1025 275 1025 337.5 1038 c 128,-1,26
 400 1051 400 1051 469 1051 c 0,27,28
 583 1051 583 1051 658 1031 c 128,-1,29
 733 1011 733 1011 777.5 970.5 c 128,-1,30
 822 930 822 930 839.5 868.5 c 128,-1,31
 857 807 857 807 857 723 c 2,32,-1
 857 165 l 1,33,-1
 941 63 l 1,34,-1
 941 0 l 1,35,-1
 858 0 l 1,36,37
 829 -11 829 -11 811 -34 c 128,-1,38
 793 -57 793 -57 793 -94 c 0,39,40
 793 -124 793 -124 822.5 -142 c 128,-1,41
 852 -160 852 -160 909 -160 c 0,42,43
 929 -160 929 -160 943.5 -158 c 128,-1,44
 958 -156 958 -156 975 -151 c 1,45,46
 984 -183 984 -183 987.5 -207.5 c 128,-1,47
 991 -232 991 -232 991 -253 c 256,48,49
 991 -274 991 -274 988.5 -291 c 128,-1,50
 986 -308 986 -308 984 -319 c 0,51,52
 981 -333 981 -333 978 -343 c 1,53,54
 967 -346 967 -346 954 -349 c 0,55,56
 929 -354 929 -354 893 -354 c 0,57,58
 825 -354 825 -354 773.5 -337.5 c 128,-1,59
 722 -321 722 -321 687 -291.5 c 128,-1,60
 652 -262 652 -262 634 -221.5 c 128,-1,61
 616 -181 616 -181 616 -133 c 0,62,63
 616 -108 616 -108 624 -82 c 128,-1,64
 632 -56 632 -56 645.5 -32 c 128,-1,65
 659 -8 659 -8 676 13 c 128,-1,66
 693 34 693 34 711 51 c 1,67,-1
 679 89 l 1,68,-1
 643 89 l 1,69,70
 638 84 638 84 616.5 66.5 c 128,-1,71
 595 49 595 49 561.5 29.5 c 128,-1,72
 528 10 528 10 485.5 -5 c 128,-1,73
 443 -20 443 -20 395 -20 c 0,74,75
 320 -20 320 -20 259 2.5 c 128,-1,76
 198 25 198 25 154.5 66.5 c 128,-1,77
 111 108 111 108 87.5 165.5 c 128,-1,78
 64 223 64 223 64 292 c 0,0,1
282 310 m 0,79,80
 282 264 282 264 295 233.5 c 128,-1,81
 308 203 308 203 331.5 185 c 128,-1,82
 355 167 355 167 388.5 160 c 128,-1,83
 422 153 422 153 463 153 c 0,84,85
 501 153 501 153 534.5 162.5 c 128,-1,86
 568 172 568 172 593 184 c 0,87,88
 622 197 622 197 647 215 c 1,89,-1
 647 484 l 1,90,-1
 446 471 l 2,91,92
 399 468 399 468 367.5 455 c 128,-1,93
 336 442 336 442 317 421 c 128,-1,94
 298 400 298 400 290 371.5 c 128,-1,95
 282 343 282 343 282 310 c 0,79,80
EndSplineSet
EndChar

StartChar: dcaron
Encoding: 271 271 379
Width: 1317
Flags: W
LayerCount: 2
Fore
SplineSet
1073 1014 m 1,0,1
 1080 1042 1080 1042 1086 1075 c 0,2,3
 1091 1104 1091 1104 1095.5 1141.5 c 128,-1,4
 1100 1179 1100 1179 1100 1224 c 0,5,6
 1100 1265 1100 1265 1094 1311 c 128,-1,7
 1088 1357 1088 1357 1074 1405 c 1,8,9
 1075 1405 1075 1405 1087 1409.5 c 128,-1,10
 1099 1414 1099 1414 1116.5 1419.5 c 128,-1,11
 1134 1425 1134 1425 1156 1429 c 128,-1,12
 1178 1433 1178 1433 1200 1433 c 0,13,14
 1225 1433 1225 1433 1251.5 1426.5 c 128,-1,15
 1278 1420 1278 1420 1304 1402 c 1,16,17
 1309 1376 1309 1376 1311.5 1350 c 128,-1,18
 1314 1324 1314 1324 1314 1298 c 0,19,20
 1314 1234 1314 1234 1301 1179 c 128,-1,21
 1288 1124 1288 1124 1272 1082 c 0,22,23
 1254 1034 1254 1034 1230 992 c 1,24,25
 1219 989 1219 989 1208 986 c 0,26,27
 1198 984 1198 984 1185.5 982 c 128,-1,28
 1173 980 1173 980 1162 980 c 0,29,30
 1142 980 1142 980 1121 984 c 128,-1,31
 1100 988 1100 988 1083 1000 c 1,32,-1
 1073 1014 l 1,0,1
79 493 m 0,33,34
 79 636 79 636 119 741 c 128,-1,35
 159 846 159 846 227.5 915 c 128,-1,36
 296 984 296 984 386 1017.5 c 128,-1,37
 476 1051 476 1051 577 1051 c 0,38,39
 615 1051 615 1051 645 1047.5 c 128,-1,40
 675 1044 675 1044 696 1039 c 0,41,42
 721 1034 721 1034 740 1027 c 1,43,-1
 740 1439 l 1,44,-1
 953 1439 l 1,45,-1
 953 165 l 1,46,-1
 1041 63 l 1,47,-1
 1041 0 l 1,48,-1
 841 0 l 1,49,-1
 772 79 l 1,50,-1
 738 79 l 1,51,52
 733 74 733 74 717.5 58 c 128,-1,53
 702 42 702 42 673.5 25 c 128,-1,54
 645 8 645 8 603.5 -6 c 128,-1,55
 562 -20 562 -20 506 -20 c 0,56,57
 432 -20 432 -20 356 10 c 128,-1,58
 280 40 280 40 218.5 103 c 128,-1,59
 157 166 157 166 118 262.5 c 128,-1,60
 79 359 79 359 79 493 c 0,33,34
303 493 m 0,61,62
 303 400 303 400 322.5 334 c 128,-1,63
 342 268 342 268 378 225.5 c 128,-1,64
 414 183 414 183 466 163.5 c 128,-1,65
 518 144 518 144 583 144 c 0,66,67
 608 144 608 144 636 152 c 128,-1,68
 664 160 664 160 687 171 c 1,69,70
 714 182 714 182 740 198 c 1,71,-1
 740 874 l 1,72,73
 727 882 727 882 701.5 890 c 128,-1,74
 676 898 676 898 631 898 c 0,75,76
 474 898 474 898 388.5 794.5 c 128,-1,77
 303 691 303 691 303 493 c 0,61,62
EndSplineSet
EndChar

StartChar: dcroat
Encoding: 273 273 385
Width: 1091
Flags: W
LayerCount: 2
Fore
SplineSet
586 1131 m 1,0,1
 579 1156 579 1156 576 1177 c 128,-1,2
 573 1198 573 1198 573 1213 c 0,3,4
 573 1246 573 1246 586 1289 c 1,5,-1
 742 1289 l 1,6,-1
 742 1452 l 1,7,-1
 955 1452 l 1,8,-1
 955 1289 l 1,9,-1
 1084 1289 l 1,10,11
 1089 1269 1089 1269 1090.5 1251 c 128,-1,12
 1092 1233 1092 1233 1092 1219 c 0,13,14
 1092 1199 1092 1199 1088.5 1176.5 c 128,-1,15
 1085 1154 1085 1154 1077 1131 c 1,16,-1
 955 1131 l 1,17,-1
 955 178 l 1,18,-1
 1043 76 l 1,19,-1
 1043 13 l 1,20,-1
 843 13 l 1,21,-1
 774 92 l 1,22,-1
 740 92 l 1,23,24
 735 87 735 87 719.5 71 c 128,-1,25
 704 55 704 55 675.5 38 c 128,-1,26
 647 21 647 21 605.5 7 c 128,-1,27
 564 -7 564 -7 508 -7 c 0,28,29
 434 -7 434 -7 358 23 c 128,-1,30
 282 53 282 53 220.5 116 c 128,-1,31
 159 179 159 179 120 275.5 c 128,-1,32
 81 372 81 372 81 506 c 0,33,34
 81 649 81 649 121 751.5 c 128,-1,35
 161 854 161 854 229.5 920 c 128,-1,36
 298 986 298 986 388 1017 c 128,-1,37
 478 1048 478 1048 579 1048 c 0,38,39
 617 1048 617 1048 647 1044.5 c 128,-1,40
 677 1041 677 1041 698 1036 c 0,41,42
 723 1031 723 1031 742 1024 c 1,43,-1
 742 1131 l 1,44,-1
 586 1131 l 1,0,1
305 506 m 0,45,46
 305 413 305 413 324.5 347 c 128,-1,47
 344 281 344 281 380 238.5 c 128,-1,48
 416 196 416 196 468 176.5 c 128,-1,49
 520 157 520 157 585 157 c 0,50,51
 610 157 610 157 638 165 c 128,-1,52
 666 173 666 173 689 184 c 1,53,54
 716 195 716 195 742 211 c 1,55,-1
 742 871 l 1,56,57
 729 879 729 879 703.5 887 c 128,-1,58
 678 895 678 895 633 895 c 0,59,60
 477 895 477 895 391 799 c 128,-1,61
 305 703 305 703 305 506 c 0,45,46
EndSplineSet
EndChar

StartChar: Eogonek
Encoding: 280 280 253
Width: 1020
Flags: W
LayerCount: 2
Fore
SplineSet
158 1358 m 1,0,-1
 937 1358 l 1,1,2
 937 1351 937 1351 938 1343 c 0,3,4
 939 1336 939 1336 939.5 1327.5 c 128,-1,5
 940 1319 940 1319 940 1309 c 0,6,7
 940 1292 940 1292 933.5 1257.5 c 128,-1,8
 927 1223 927 1223 905 1178 c 1,9,10
 822 1181 822 1181 733 1184 c 0,11,12
 657 1186 657 1186 565 1188.5 c 128,-1,13
 473 1191 473 1191 385 1191 c 1,14,-1
 385 781 l 1,15,16
 414 781 414 781 450.5 781.5 c 128,-1,17
 487 782 487 782 526.5 783 c 128,-1,18
 566 784 566 784 606 785 c 128,-1,19
 646 786 646 786 684 787 c 0,20,21
 772 790 772 790 865 792 c 1,22,23
 865 784 865 784 866 775 c 0,24,25
 867 767 867 767 867.5 756.5 c 128,-1,26
 868 746 868 746 868 735 c 0,27,28
 868 730 868 730 866.5 715.5 c 128,-1,29
 865 701 865 701 861.5 683 c 128,-1,30
 858 665 858 665 853.5 647 c 128,-1,31
 849 629 849 629 843 617 c 1,32,33
 750 617 750 617 664 618 c 0,34,35
 627 618 627 618 588 618 c 128,-1,36
 549 618 549 618 512.5 618.5 c 128,-1,37
 476 619 476 619 443 619 c 128,-1,38
 410 619 410 619 385 619 c 1,39,-1
 385 171 l 1,40,41
 473 171 473 171 570.5 174 c 128,-1,42
 668 177 668 177 752 180 c 0,43,44
 850 184 850 184 945 189 c 1,45,46
 945 180 945 180 946 170 c 0,47,48
 947 162 947 162 947.5 150.5 c 128,-1,49
 948 139 948 139 948 128 c 0,50,51
 948 107 948 107 945 73 c 128,-1,52
 942 39 942 39 932 0 c 1,53,-1
 818 0 l 1,54,55
 789 -11 789 -11 771 -34 c 128,-1,56
 753 -57 753 -57 753 -94 c 0,57,58
 753 -124 753 -124 785 -142 c 128,-1,59
 817 -160 817 -160 874 -160 c 0,60,61
 894 -160 894 -160 908.5 -158 c 128,-1,62
 923 -156 923 -156 940 -151 c 1,63,64
 949 -183 949 -183 952.5 -207.5 c 128,-1,65
 956 -232 956 -232 956 -253 c 256,66,67
 956 -274 956 -274 953.5 -291 c 128,-1,68
 951 -308 951 -308 949 -319 c 0,69,70
 946 -333 946 -333 943 -343 c 1,71,72
 932 -346 932 -346 919 -349 c 0,73,74
 894 -354 894 -354 858 -354 c 0,75,76
 790 -354 790 -354 737.5 -337.5 c 128,-1,77
 685 -321 685 -321 649 -291.5 c 128,-1,78
 613 -262 613 -262 594.5 -221.5 c 128,-1,79
 576 -181 576 -181 576 -133 c 0,80,81
 576 -101 576 -101 587.5 -67 c 128,-1,82
 599 -33 599 -33 623 0 c 1,83,-1
 158 0 l 1,84,-1
 158 1358 l 1,0,-1
EndSplineSet
EndChar

StartChar: eogonek
Encoding: 281 281 250
Width: 1043
Flags: W
LayerCount: 2
Fore
SplineSet
77 511 m 0,0,1
 77 655 77 655 112 757.5 c 128,-1,2
 147 860 147 860 210 925 c 128,-1,3
 273 990 273 990 360.5 1020 c 128,-1,4
 448 1050 448 1050 553 1050 c 0,5,6
 650 1050 650 1050 726.5 1019 c 128,-1,7
 803 988 803 988 856 931 c 128,-1,8
 909 874 909 874 937 793.5 c 128,-1,9
 965 713 965 713 965 614 c 0,10,11
 965 580 965 580 962 551 c 128,-1,12
 959 522 959 522 955 501 c 0,13,14
 951 476 951 476 946 456 c 1,15,-1
 290 459 l 1,16,17
 291 370 291 370 309 310 c 128,-1,18
 327 250 327 250 362.5 214 c 128,-1,19
 398 178 398 178 452 163 c 128,-1,20
 506 148 506 148 580 148 c 0,21,22
 643 148 643 148 693 156 c 128,-1,23
 743 164 743 164 778 175 c 0,24,25
 818 187 818 187 850 203 c 1,26,27
 865 168 865 168 873.5 138 c 128,-1,28
 882 108 882 108 886 86 c 0,29,30
 890 60 890 60 892 40 c 1,31,32
 871 30 871 30 843 20 c 0,33,34
 819 12 819 12 784.5 3 c 128,-1,35
 750 -6 750 -6 705 -12 c 1,36,37
 685 -25 685 -25 674 -45 c 128,-1,38
 663 -65 663 -65 663 -94 c 0,39,40
 663 -124 663 -124 695 -142 c 128,-1,41
 727 -160 727 -160 784 -160 c 0,42,43
 804 -160 804 -160 818.5 -158 c 128,-1,44
 833 -156 833 -156 850 -151 c 1,45,46
 859 -183 859 -183 862.5 -207.5 c 128,-1,47
 866 -232 866 -232 866 -253 c 256,48,49
 866 -274 866 -274 863.5 -291 c 128,-1,50
 861 -308 861 -308 859 -319 c 0,51,52
 856 -333 856 -333 853 -343 c 1,53,54
 842 -346 842 -346 829 -349 c 0,55,56
 804 -354 804 -354 768 -354 c 0,57,58
 700 -354 700 -354 647.5 -337.5 c 128,-1,59
 595 -321 595 -321 559 -291.5 c 128,-1,60
 523 -262 523 -262 504.5 -221.5 c 128,-1,61
 486 -181 486 -181 486 -133 c 0,62,63
 486 -106 486 -106 494.5 -76.5 c 128,-1,64
 503 -47 503 -47 521 -18 c 1,65,66
 415 -11 415 -11 332.5 21.5 c 128,-1,67
 250 54 250 54 193 117.5 c 128,-1,68
 136 181 136 181 106.5 278 c 128,-1,69
 77 375 77 375 77 511 c 0,0,1
751 605 m 1,70,-1
 751 639 l 2,71,72
 751 702 751 702 735.5 749 c 128,-1,73
 720 796 720 796 693 827 c 128,-1,74
 666 858 666 858 629 873.5 c 128,-1,75
 592 889 592 889 549 889 c 0,76,77
 486 889 486 889 438 874 c 128,-1,78
 390 859 390 859 357.5 825.5 c 128,-1,79
 325 792 325 792 309 737.5 c 128,-1,80
 293 683 293 683 293 605 c 1,81,-1
 751 605 l 1,70,-1
EndSplineSet
EndChar

StartChar: Hbar
Encoding: 294 294 387
Width: 1309
Flags: W
LayerCount: 2
Fore
SplineSet
48 963 m 1,0,1
 35 1012 35 1012 35 1043 c 0,2,3
 35 1060 35 1060 38 1075.5 c 128,-1,4
 41 1091 41 1091 49 1112 c 1,5,-1
 163 1112 l 1,6,-1
 163 1371 l 1,7,-1
 390 1371 l 1,8,-1
 390 1112 l 1,9,-1
 920 1112 l 1,10,-1
 920 1371 l 1,11,-1
 1146 1371 l 1,12,-1
 1146 1112 l 1,13,-1
 1255 1112 l 1,14,15
 1260 1092 1260 1092 1262 1079 c 128,-1,16
 1264 1066 1264 1066 1264 1052 c 0,17,18
 1264 1032 1264 1032 1260.5 1014.5 c 128,-1,19
 1257 997 1257 997 1249 973 c 1,20,-1
 1146 973 l 1,21,-1
 1146 13 l 1,22,-1
 920 13 l 1,23,-1
 920 560 l 1,24,-1
 390 560 l 1,25,-1
 390 13 l 1,26,-1
 163 13 l 1,27,-1
 163 973 l 1,28,-1
 48 973 l 1,29,-1
 48 963 l 1,0,1
920 734 m 1,30,-1
 920 973 l 1,31,-1
 390 973 l 1,32,-1
 390 734 l 1,33,-1
 920 734 l 1,30,-1
EndSplineSet
EndChar

StartChar: hbar
Encoding: 295 295 102
Width: 1127
Flags: W
LayerCount: 2
Fore
SplineSet
9 1173 m 1,0,1
 -4 1221 -4 1221 -4 1249 c 0,2,3
 -4 1266 -4 1266 -1 1281.5 c 128,-1,4
 2 1297 2 1297 10 1318 c 1,5,-1
 136 1318 l 1,6,-1
 136 1440 l 1,7,-1
 351 1440 l 1,8,-1
 351 1318 l 1,9,-1
 541 1318 l 1,10,11
 542 1308 542 1308 544 1297 c 0,12,13
 545 1287 545 1287 546 1275.5 c 128,-1,14
 547 1264 547 1264 547 1253 c 0,15,16
 547 1236 547 1236 544 1218.5 c 128,-1,17
 541 1201 541 1201 532 1178 c 1,18,-1
 351 1178 l 1,19,-1
 351 1117 l 1,20,-1
 341 964 l 1,21,-1
 347 964 l 1,22,23
 354 970 354 970 380.5 986.5 c 128,-1,24
 407 1003 407 1003 446.5 1020 c 128,-1,25
 486 1037 486 1037 535.5 1050 c 128,-1,26
 585 1063 585 1063 638 1063 c 0,27,28
 722 1063 722 1063 786.5 1038 c 128,-1,29
 851 1013 851 1013 895 966.5 c 128,-1,30
 939 920 939 920 961.5 855 c 128,-1,31
 984 790 984 790 984 709 c 2,32,-1
 984 0 l 1,33,-1
 769 0 l 1,34,-1
 769 688 l 2,35,36
 769 797 769 797 725.5 848.5 c 128,-1,37
 682 900 682 900 582 900 c 0,38,39
 534 900 534 900 492.5 891.5 c 128,-1,40
 451 883 451 883 419 872 c 0,41,42
 382 860 382 860 351 844 c 1,43,-1
 351 0 l 1,44,-1
 136 0 l 1,45,-1
 136 1178 l 1,46,-1
 9 1178 l 1,47,-1
 9 1173 l 1,0,1
EndSplineSet
EndChar

StartChar: Iogonek
Encoding: 302 302 252
Width: 542
Flags: W
LayerCount: 2
Fore
SplineSet
276 0 m 1,0,1
 247 -11 247 -11 229 -34 c 128,-1,2
 211 -57 211 -57 211 -94 c 0,3,4
 211 -124 211 -124 243 -142 c 128,-1,5
 275 -160 275 -160 332 -160 c 0,6,7
 352 -160 352 -160 366.5 -158 c 128,-1,8
 381 -156 381 -156 398 -151 c 1,9,10
 407 -183 407 -183 410.5 -207.5 c 128,-1,11
 414 -232 414 -232 414 -253 c 256,12,13
 414 -274 414 -274 411.5 -291 c 128,-1,14
 409 -308 409 -308 407 -319 c 0,15,16
 404 -333 404 -333 401 -343 c 1,17,18
 390 -346 390 -346 377 -349 c 0,19,20
 352 -354 352 -354 316 -354 c 0,21,22
 248 -354 248 -354 195.5 -337.5 c 128,-1,23
 143 -321 143 -321 107 -291.5 c 128,-1,24
 71 -262 71 -262 52.5 -221.5 c 128,-1,25
 34 -181 34 -181 34 -133 c 0,26,27
 34 -108 34 -108 41 -81 c 128,-1,28
 48 -54 48 -54 63 -27.5 c 128,-1,29
 78 -1 78 -1 101.5 24.5 c 128,-1,30
 125 50 125 50 158 71 c 1,31,-1
 158 1358 l 1,32,-1
 384 1358 l 1,33,-1
 384 0 l 1,34,-1
 276 0 l 1,0,1
EndSplineSet
EndChar

StartChar: iogonek
Encoding: 303 303 247
Width: 521
Flags: W
LayerCount: 2
Fore
SplineSet
141 1022 m 1,0,-1
 349 1022 l 1,1,-1
 349 168 l 1,2,-1
 408 126 l 1,3,-1
 408 0 l 1,4,-1
 351 0 l 1,5,-1
 349 2 l 1,6,-1
 349 0 l 1,7,8
 330 0 330 0 313 1.5 c 128,-1,9
 296 3 296 3 280 5 c 1,10,11
 244 -4 244 -4 221.5 -28 c 128,-1,12
 199 -52 199 -52 199 -94 c 0,13,14
 199 -124 199 -124 231 -142 c 128,-1,15
 263 -160 263 -160 320 -160 c 0,16,17
 340 -160 340 -160 354.5 -158 c 128,-1,18
 369 -156 369 -156 386 -151 c 1,19,20
 395 -183 395 -183 398.5 -207.5 c 128,-1,21
 402 -232 402 -232 402 -253 c 256,22,23
 402 -274 402 -274 399.5 -291 c 128,-1,24
 397 -308 397 -308 395 -319 c 0,25,26
 392 -333 392 -333 389 -343 c 1,27,28
 378 -346 378 -346 365 -349 c 0,29,30
 340 -354 340 -354 304 -354 c 0,31,32
 236 -354 236 -354 183.5 -337.5 c 128,-1,33
 131 -321 131 -321 95 -291.5 c 128,-1,34
 59 -262 59 -262 40.5 -221.5 c 128,-1,35
 22 -181 22 -181 22 -133 c 0,36,37
 22 -80 22 -80 54.5 -22 c 128,-1,38
 87 36 87 36 161 80 c 1,39,40
 141 118 141 118 141 172 c 2,41,-1
 141 1022 l 1,0,-1
256 1195 m 256,42,43
 228 1195 228 1195 203.5 1205 c 128,-1,44
 179 1215 179 1215 160.5 1232 c 128,-1,45
 142 1249 142 1249 131 1271.5 c 128,-1,46
 120 1294 120 1294 120 1320 c 0,47,48
 120 1347 120 1347 131 1370 c 128,-1,49
 142 1393 142 1393 160.5 1410 c 128,-1,50
 179 1427 179 1427 203.5 1436.5 c 128,-1,51
 228 1446 228 1446 256 1446 c 256,52,53
 284 1446 284 1446 309 1436.5 c 128,-1,54
 334 1427 334 1427 352.5 1410 c 128,-1,55
 371 1393 371 1393 382 1370 c 128,-1,56
 393 1347 393 1347 393 1320 c 0,57,58
 393 1294 393 1294 382 1271.5 c 128,-1,59
 371 1249 371 1249 352.5 1232 c 128,-1,60
 334 1215 334 1215 309 1205 c 128,-1,61
 284 1195 284 1195 256 1195 c 256,42,43
EndSplineSet
EndChar

StartChar: dotlessi
Encoding: 305 305 93
Width: 521
Flags: W
LayerCount: 2
Fore
SplineSet
141 1022 m 1,0,-1
 349 1022 l 1,1,-1
 349 168 l 1,2,-1
 408 126 l 1,3,-1
 408 0 l 1,4,-1
 351 0 l 1,5,-1
 349 2 l 1,6,-1
 349 0 l 1,7,8
 250 0 250 0 195.5 40 c 128,-1,9
 141 80 141 80 141 172 c 2,10,-1
 141 1022 l 1,0,-1
EndSplineSet
EndChar

StartChar: kgreenlandic
Encoding: 312 312 103
Width: 929
Flags: W
LayerCount: 2
Fore
SplineSet
72 1020 m 1,0,-1
 276 1020 l 1,1,-1
 276 679 l 1,2,-1
 266 534 l 1,3,-1
 319 597 l 1,4,-1
 640 1022 l 1,5,-1
 882 1022 l 1,6,-1
 557 610 l 1,7,-1
 474 531 l 1,8,-1
 539 472 l 1,9,-1
 900 0 l 1,10,-1
 657 0 l 1,11,-1
 313 462 l 1,12,-1
 266 522 l 1,13,-1
 276 340 l 1,14,-1
 276 0 l 1,15,-1
 72 0 l 1,16,-1
 72 1020 l 1,0,-1
EndSplineSet
EndChar

StartChar: Lcaron
Encoding: 317 317 381
Width: 993
Flags: W
LayerCount: 2
Fore
SplineSet
556 1020 m 1,0,1
 564 1048 564 1048 570 1081 c 0,2,3
 575 1110 575 1110 579.5 1148 c 128,-1,4
 584 1186 584 1186 584 1231 c 0,5,6
 584 1273 584 1273 578 1319.5 c 128,-1,7
 572 1366 572 1366 557 1414 c 1,8,9
 558 1414 558 1414 570 1418.5 c 128,-1,10
 582 1423 582 1423 600 1428 c 128,-1,11
 618 1433 618 1433 640 1437 c 128,-1,12
 662 1441 662 1441 684 1441 c 0,13,14
 709 1441 709 1441 735.5 1435 c 128,-1,15
 762 1429 762 1429 789 1411 c 1,16,17
 794 1385 794 1385 796.5 1358.5 c 128,-1,18
 799 1332 799 1332 799 1306 c 0,19,20
 799 1242 799 1242 785.5 1186 c 128,-1,21
 772 1130 772 1130 756 1088 c 0,22,23
 738 1039 738 1039 714 998 c 1,24,25
 702 995 702 995 691 992 c 0,26,27
 681 990 681 990 669 988 c 128,-1,28
 657 986 657 986 645 986 c 0,29,30
 626 986 626 986 605 990 c 128,-1,31
 584 994 584 994 566 1006 c 1,32,-1
 556 1020 l 1,0,1
158 1371 m 1,33,-1
 385 1371 l 1,34,-1
 385 201 l 1,35,36
 427 201 427 201 472.5 202 c 128,-1,37
 518 203 518 203 563.5 204 c 128,-1,38
 609 205 609 205 652.5 206.5 c 128,-1,39
 696 208 696 208 735 210 c 0,40,41
 827 214 827 214 915 218 c 1,42,43
 915 201 915 201 910.5 167 c 128,-1,44
 906 133 906 133 900 98.5 c 128,-1,45
 894 64 894 64 888.5 38.5 c 128,-1,46
 883 13 883 13 880 13 c 2,47,-1
 158 13 l 1,48,-1
 158 1371 l 1,33,-1
EndSplineSet
EndChar

StartChar: lcaron
Encoding: 318 318 380
Width: 684
Flags: W
LayerCount: 2
Fore
SplineSet
460 1014 m 1,0,1
 467 1042 467 1042 473 1075 c 0,2,3
 478 1104 478 1104 482.5 1141.5 c 128,-1,4
 487 1179 487 1179 487 1224 c 0,5,6
 487 1265 487 1265 481 1311 c 128,-1,7
 475 1357 475 1357 461 1405 c 1,8,9
 462 1405 462 1405 474 1409.5 c 128,-1,10
 486 1414 486 1414 503.5 1419.5 c 128,-1,11
 521 1425 521 1425 543 1429 c 128,-1,12
 565 1433 565 1433 587 1433 c 0,13,14
 612 1433 612 1433 638.5 1426.5 c 128,-1,15
 665 1420 665 1420 691 1402 c 1,16,17
 696 1376 696 1376 698.5 1350 c 128,-1,18
 701 1324 701 1324 701 1298 c 0,19,20
 701 1234 701 1234 688 1179 c 128,-1,21
 675 1124 675 1124 659 1082 c 0,22,23
 641 1034 641 1034 617 992 c 1,24,25
 606 989 606 989 595 986 c 0,26,27
 585 984 585 984 572.5 982 c 128,-1,28
 560 980 560 980 549 980 c 0,29,30
 529 980 529 980 508 984 c 128,-1,31
 487 988 487 988 470 1000 c 1,32,-1
 460 1014 l 1,0,1
124 1452 m 1,33,-1
 331 1452 l 1,34,-1
 331 181 l 1,35,-1
 390 139 l 1,36,-1
 390 13 l 1,37,-1
 333 13 l 1,38,-1
 331 15 l 1,39,-1
 331 13 l 1,40,41
 232 13 232 13 178 53 c 128,-1,42
 124 93 124 93 124 185 c 2,43,-1
 124 1452 l 1,33,-1
EndSplineSet
EndChar

StartChar: Lslash
Encoding: 321 321 120
Width: 993
Flags: W
LayerCount: 2
Fore
SplineSet
-5 621 m 1,0,-1
 158 677 l 1,1,-1
 158 1358 l 1,2,-1
 385 1358 l 1,3,-1
 385 757 l 1,4,-1
 731 877 l 1,5,-1
 731 708 l 1,6,-1
 385 588 l 1,7,-1
 385 188 l 1,8,9
 427 188 427 188 472.5 189 c 128,-1,10
 518 190 518 190 563.5 191 c 128,-1,11
 609 192 609 192 652.5 193.5 c 128,-1,12
 696 195 696 195 735 197 c 0,13,14
 827 201 827 201 915 205 c 1,15,16
 915 188 915 188 910.5 154 c 128,-1,17
 906 120 906 120 900 85.5 c 128,-1,18
 894 51 894 51 888.5 25.5 c 128,-1,19
 883 0 883 0 880 0 c 2,20,-1
 158 0 l 1,21,-1
 158 508 l 1,22,-1
 -5 452 l 1,23,-1
 -5 621 l 1,0,-1
EndSplineSet
EndChar

StartChar: lslash
Encoding: 322 322 105
Width: 511
Flags: W
LayerCount: 2
Fore
SplineSet
13 697 m 1,0,-1
 142 764 l 1,1,-1
 142 1452 l 1,2,-1
 349 1452 l 1,3,-1
 349 872 l 1,4,-1
 507 954 l 1,5,-1
 507 781 l 1,6,-1
 349 699 l 1,7,-1
 349 181 l 1,8,-1
 408 139 l 1,9,-1
 408 13 l 1,10,-1
 351 13 l 1,11,-1
 349 15 l 1,12,-1
 349 13 l 1,13,14
 250 13 250 13 196 53 c 128,-1,15
 142 93 142 93 142 185 c 2,16,-1
 142 592 l 1,17,-1
 13 525 l 1,18,-1
 13 697 l 1,0,-1
EndSplineSet
EndChar

StartChar: Eng
Encoding: 330 330 393
Width: 1351
Flags: W
LayerCount: 2
Fore
SplineSet
1193 0 m 1,0,-1
 1193 -130 l 2,1,2
 1193 -211 1193 -211 1178.5 -272.5 c 128,-1,3
 1164 -334 1164 -334 1129 -379 c 128,-1,4
 1094 -424 1094 -424 1035 -454.5 c 128,-1,5
 976 -485 976 -485 887 -505 c 1,6,7
 867 -476 867 -476 856.5 -445 c 128,-1,8
 846 -414 846 -414 840 -388 c 0,9,10
 833 -358 833 -358 831 -330 c 1,11,12
 875 -321 875 -321 901.5 -306.5 c 128,-1,13
 928 -292 928 -292 942.5 -265 c 128,-1,14
 957 -238 957 -238 962 -194 c 128,-1,15
 967 -150 967 -150 967 -80 c 2,16,-1
 967 13 l 1,17,-1
 1193 0 l 1,0,-1
158 1358 m 1,18,-1
 517 1358 l 1,19,-1
 860 510 l 1,20,-1
 997 124 l 1,21,-1
 984 510 l 1,22,-1
 977 1358 l 1,23,-1
 1193 1358 l 1,24,-1
 1193 0 l 1,25,-1
 843 0 l 1,26,-1
 492 850 l 1,27,-1
 355 1242 l 1,28,-1
 368 850 l 1,29,-1
 375 0 l 1,30,-1
 158 0 l 1,31,-1
 158 1358 l 1,18,-1
EndSplineSet
EndChar

StartChar: eng
Encoding: 331 331 392
Width: 1132
Flags: W
LayerCount: 2
Fore
SplineSet
152 899 m 1,0,-1
 73 980 l 1,1,-1
 73 1043 l 1,2,-1
 267 1043 l 1,3,-1
 335 974 l 1,4,-1
 372 974 l 1,5,6
 379 980 379 980 401 995 c 128,-1,7
 423 1010 423 1010 456.5 1025 c 128,-1,8
 490 1040 490 1040 535 1051.5 c 128,-1,9
 580 1063 580 1063 633 1063 c 0,10,11
 717 1063 717 1063 783.5 1038 c 128,-1,12
 850 1013 850 1013 895.5 966.5 c 128,-1,13
 941 920 941 920 965 855 c 128,-1,14
 989 790 989 790 989 709 c 2,15,-1
 989 0 l 1,16,-1
 774 0 l 1,17,-1
 774 688 l 2,18,19
 774 797 774 797 726 848.5 c 128,-1,20
 678 900 678 900 579 900 c 0,21,22
 530 900 530 900 491 891.5 c 128,-1,23
 452 883 452 883 424 872 c 0,24,25
 391 860 391 860 366 844 c 1,26,-1
 366 0 l 1,27,-1
 152 0 l 1,28,-1
 152 899 l 1,0,-1
637 -235 m 1,29,30
 674 -228 674 -228 700 -217 c 128,-1,31
 726 -206 726 -206 742.5 -188 c 128,-1,32
 759 -170 759 -170 766.5 -141.5 c 128,-1,33
 774 -113 774 -113 774 -70 c 2,34,-1
 774 13 l 1,35,-1
 895 250 l 1,36,-1
 989 13 l 1,37,-1
 990 -98 l 2,38,39
 990 -161 990 -161 974 -210.5 c 128,-1,40
 958 -260 958 -260 922.5 -298.5 c 128,-1,41
 887 -337 887 -337 830.5 -364.5 c 128,-1,42
 774 -392 774 -392 693 -410 c 1,43,44
 674 -381 674 -381 663.5 -350 c 128,-1,45
 653 -319 653 -319 647 -293 c 0,46,47
 640 -263 640 -263 637 -235 c 1,29,30
EndSplineSet
EndChar

StartChar: OE
Encoding: 338 338 147
Width: 1853
Flags: W
LayerCount: 2
Fore
SplineSet
659 -26 m 0,0,1
 509 -26 509 -26 400 22.5 c 128,-1,2
 291 71 291 71 220.5 162.5 c 128,-1,3
 150 254 150 254 116.5 384.5 c 128,-1,4
 83 515 83 515 83 679 c 256,5,6
 83 843 83 843 118.5 974 c 128,-1,7
 154 1105 154 1105 225.5 1196 c 128,-1,8
 297 1287 297 1287 405 1335.5 c 128,-1,9
 513 1384 513 1384 659 1384 c 0,10,11
 774 1384 774 1384 855.5 1356 c 128,-1,12
 937 1328 937 1328 992 1276 c 1,13,-1
 992 1358 l 1,14,-1
 1771 1358 l 1,15,16
 1771 1351 1771 1351 1772 1343 c 0,17,18
 1773 1336 1773 1336 1773.5 1327.5 c 128,-1,19
 1774 1319 1774 1319 1774 1309 c 0,20,21
 1774 1292 1774 1292 1767.5 1257 c 128,-1,22
 1761 1222 1761 1222 1739 1177 c 1,23,24
 1655 1179 1655 1179 1565 1181 c 0,25,26
 1488 1183 1488 1183 1395.5 1184.5 c 128,-1,27
 1303 1186 1303 1186 1215 1186 c 1,28,-1
 1215 785 l 1,29,30
 1244 785 1244 785 1281.5 785.5 c 128,-1,31
 1319 786 1319 786 1360 786.5 c 128,-1,32
 1401 787 1401 787 1443.5 788 c 128,-1,33
 1486 789 1486 789 1526 790 c 0,34,35
 1619 792 1619 792 1719 794 c 1,36,37
 1719 783 1719 783 1720 772 c 0,38,39
 1721 762 1721 762 1721.5 750 c 128,-1,40
 1722 738 1722 738 1722 727 c 0,41,42
 1722 718 1722 718 1717.5 694.5 c 128,-1,43
 1713 671 1713 671 1697 617 c 1,44,45
 1598 617 1598 617 1506 618 c 0,46,47
 1467 618 1467 618 1426 618 c 128,-1,48
 1385 618 1385 618 1346.5 618.5 c 128,-1,49
 1308 619 1308 619 1274 619 c 128,-1,50
 1240 619 1240 619 1215 619 c 1,51,-1
 1215 171 l 1,52,53
 1303 171 1303 171 1401 173.5 c 128,-1,54
 1499 176 1499 176 1584 179 c 0,55,56
 1683 183 1683 183 1779 186 c 1,57,58
 1779 175 1779 175 1780 164 c 0,59,60
 1781 154 1781 154 1781.5 141.5 c 128,-1,61
 1782 129 1782 129 1782 118 c 0,62,63
 1782 97 1782 97 1779 68 c 128,-1,64
 1776 39 1776 39 1766 0 c 1,65,-1
 992 0 l 1,66,-1
 992 100 l 1,67,68
 936 44 936 44 852 9 c 128,-1,69
 768 -26 768 -26 659 -26 c 0,0,1
659 159 m 256,70,71
 750 159 750 159 813.5 200 c 128,-1,72
 877 241 877 241 917 313.5 c 128,-1,73
 957 386 957 386 974.5 484.5 c 128,-1,74
 992 583 992 583 992 698 c 0,75,76
 992 822 992 822 974.5 916 c 128,-1,77
 957 1010 957 1010 917 1073 c 128,-1,78
 877 1136 877 1136 813.5 1168 c 128,-1,79
 750 1200 750 1200 659 1200 c 256,80,81
 568 1200 568 1200 503.5 1163 c 128,-1,82
 439 1126 439 1126 398 1058 c 128,-1,83
 357 990 357 990 338 894 c 128,-1,84
 319 798 319 798 319 679 c 256,85,86
 319 560 319 560 338 464 c 128,-1,87
 357 368 357 368 398 300 c 128,-1,88
 439 232 439 232 503.5 195.5 c 128,-1,89
 568 159 568 159 659 159 c 256,70,71
EndSplineSet
EndChar

StartChar: oe
Encoding: 339 339 106
Width: 1751
Flags: W
LayerCount: 2
Fore
SplineSet
81 523 m 256,0,1
 81 655 81 655 116 754 c 128,-1,2
 151 853 151 853 214.5 918.5 c 128,-1,3
 278 984 278 984 366.5 1017 c 128,-1,4
 455 1050 455 1050 562 1050 c 0,5,6
 646 1050 646 1050 708.5 1029.5 c 128,-1,7
 771 1009 771 1009 815.5 979.5 c 128,-1,8
 860 950 860 950 887.5 917.5 c 128,-1,9
 915 885 915 885 930 860 c 1,10,11
 947 884 947 884 976 917 c 128,-1,12
 1005 950 1005 950 1047 979.5 c 128,-1,13
 1089 1009 1089 1009 1144.5 1029.5 c 128,-1,14
 1200 1050 1200 1050 1270 1050 c 0,15,16
 1365 1050 1365 1050 1440 1021.5 c 128,-1,17
 1515 993 1515 993 1566.5 941 c 128,-1,18
 1618 889 1618 889 1645.5 816 c 128,-1,19
 1673 743 1673 743 1673 654 c 0,20,21
 1673 622 1673 622 1672 594 c 128,-1,22
 1671 566 1671 566 1669 544 c 0,23,24
 1667 518 1667 518 1666 496 c 1,25,-1
 1028 496 l 1,26,27
 1030 322 1030 322 1100 235 c 128,-1,28
 1170 148 1170 148 1298 148 c 0,29,30
 1352 148 1352 148 1400.5 157.5 c 128,-1,31
 1449 167 1449 167 1487 178 c 0,32,33
 1531 191 1531 191 1569 209 c 1,34,35
 1585 172 1585 172 1594.5 142 c 128,-1,36
 1604 112 1604 112 1609 91 c 0,37,38
 1615 65 1615 65 1617 46 c 1,39,40
 1575 27 1575 27 1524 13 c 0,41,42
 1480 0 1480 0 1422 -10 c 128,-1,43
 1364 -20 1364 -20 1298 -20 c 0,44,45
 1257 -20 1257 -20 1219 -11.5 c 128,-1,46
 1181 -3 1181 -3 1146.5 11 c 128,-1,47
 1112 25 1112 25 1081.5 43 c 128,-1,48
 1051 61 1051 61 1025 80 c 0,49,50
 964 124 964 124 915 181 c 1,51,52
 898 155 898 155 868.5 120.5 c 128,-1,53
 839 86 839 86 795.5 55 c 128,-1,54
 752 24 752 24 693.5 2 c 128,-1,55
 635 -20 635 -20 562 -20 c 0,56,57
 448 -20 448 -20 359 15.5 c 128,-1,58
 270 51 270 51 208 119.5 c 128,-1,59
 146 188 146 188 113.5 289.5 c 128,-1,60
 81 391 81 391 81 523 c 256,0,1
562 145 m 0,61,62
 629 145 629 145 677.5 175 c 128,-1,63
 726 205 726 205 758 258 c 128,-1,64
 790 311 790 311 805.5 382.5 c 128,-1,65
 821 454 821 454 821 537 c 0,66,67
 821 717 821 717 758.5 804 c 128,-1,68
 696 891 696 891 562 891 c 0,69,70
 496 891 496 891 447.5 864.5 c 128,-1,71
 399 838 399 838 367.5 789.5 c 128,-1,72
 336 741 336 741 320.5 673 c 128,-1,73
 305 605 305 605 305 523 c 0,74,75
 305 343 305 343 367 244 c 128,-1,76
 429 145 429 145 562 145 c 0,61,62
1463 645 m 1,77,78
 1463 697 1463 697 1450 741.5 c 128,-1,79
 1437 786 1437 786 1412 819 c 128,-1,80
 1387 852 1387 852 1351 870.5 c 128,-1,81
 1315 889 1315 889 1270 889 c 0,82,83
 1226 889 1226 889 1186.5 872.5 c 128,-1,84
 1147 856 1147 856 1116.5 825 c 128,-1,85
 1086 794 1086 794 1065 748.5 c 128,-1,86
 1044 703 1044 703 1037 645 c 1,87,-1
 1463 645 l 1,77,78
EndSplineSet
EndChar

StartChar: Scedilla
Encoding: 350 350 280
Width: 1081
Flags: W
LayerCount: 2
Fore
SplineSet
107 49 m 1,0,1
 109 72 109 72 114 101 c 0,2,3
 119 125 119 125 127.5 158.5 c 128,-1,4
 136 192 136 192 153 231 c 1,5,6
 207 213 207 213 263 199 c 0,7,8
 311 187 311 187 368 177 c 128,-1,9
 425 167 425 167 477 167 c 0,10,11
 556 167 556 167 609.5 179 c 128,-1,12
 663 191 663 191 695.5 214.5 c 128,-1,13
 728 238 728 238 742 273.5 c 128,-1,14
 756 309 756 309 756 356 c 0,15,16
 756 409 756 409 741.5 446 c 128,-1,17
 727 483 727 483 697.5 510 c 128,-1,18
 668 537 668 537 622 556 c 128,-1,19
 576 575 576 575 513 593 c 0,20,21
 403 623 403 623 327 658.5 c 128,-1,22
 251 694 251 694 203.5 740 c 128,-1,23
 156 786 156 786 135 844.5 c 128,-1,24
 114 903 114 903 114 978 c 0,25,26
 114 1086 114 1086 147.5 1163 c 128,-1,27
 181 1240 181 1240 242.5 1289 c 128,-1,28
 304 1338 304 1338 391.5 1361 c 128,-1,29
 479 1384 479 1384 587 1384 c 0,30,31
 670 1384 670 1384 732.5 1371 c 128,-1,32
 795 1358 795 1358 838 1343 c 0,33,34
 888 1325 888 1325 925 1302 c 1,35,36
 922 1279 922 1279 913 1252 c 0,37,38
 905 1229 905 1229 891 1198 c 128,-1,39
 877 1167 877 1167 852 1131 c 1,40,41
 822 1151 822 1151 782 1167 c 0,42,43
 747 1181 747 1181 697.5 1192.5 c 128,-1,44
 648 1204 648 1204 583 1204 c 0,45,46
 512 1204 512 1204 463.5 1193 c 128,-1,47
 415 1182 415 1182 384 1158.5 c 128,-1,48
 353 1135 353 1135 339.5 1099.5 c 128,-1,49
 326 1064 326 1064 326 1015 c 0,50,51
 326 960 326 960 340 923.5 c 128,-1,52
 354 887 354 887 385 861.5 c 128,-1,53
 416 836 416 836 465.5 817 c 128,-1,54
 515 798 515 798 585 778 c 0,55,56
 690 749 690 749 764 716 c 128,-1,57
 838 683 838 683 884.5 639 c 128,-1,58
 931 595 931 595 952.5 534.5 c 128,-1,59
 974 474 974 474 974 389 c 0,60,61
 974 213 974 213 895 112.5 c 128,-1,62
 816 12 816 12 637 -15 c 1,63,64
 645 -45 645 -45 652 -85.5 c 128,-1,65
 659 -126 659 -126 659 -166 c 0,66,67
 659 -220 659 -220 640.5 -268.5 c 128,-1,68
 622 -317 622 -317 586 -354 c 128,-1,69
 550 -391 550 -391 497.5 -412.5 c 128,-1,70
 445 -434 445 -434 378 -434 c 0,71,72
 343 -434 343 -434 318 -429 c 0,73,74
 305 -426 305 -426 295 -423 c 1,75,76
 291 -410 291 -410 288 -394 c 0,77,78
 285 -380 285 -380 283 -362.5 c 128,-1,79
 281 -345 281 -345 281 -324 c 0,80,81
 281 -302 281 -302 284.5 -276 c 128,-1,82
 288 -250 288 -250 297 -218 c 1,83,84
 320 -223 320 -223 337.5 -227 c 128,-1,85
 355 -231 355 -231 363 -231 c 0,86,87
 391 -231 391 -231 411.5 -221.5 c 128,-1,88
 432 -212 432 -212 445.5 -196.5 c 128,-1,89
 459 -181 459 -181 465.5 -160 c 128,-1,90
 472 -139 472 -139 472 -116 c 0,91,92
 472 -94 472 -94 469.5 -70 c 128,-1,93
 467 -46 467 -46 465 -26 c 1,94,95
 390 -24 390 -24 325 -12.5 c 128,-1,96
 260 -1 260 -1 211 13 c 0,97,98
 154 29 154 29 107 49 c 1,0,1
EndSplineSet
EndChar

StartChar: scedilla
Encoding: 351 351 319
Width: 911
Flags: W
LayerCount: 2
Fore
SplineSet
86 46 m 1,0,1
 86 69 86 69 90 96 c 0,2,3
 93 119 93 119 99.5 148.5 c 128,-1,4
 106 178 106 178 119 210 c 1,5,6
 163 193 163 193 211 180 c 0,7,8
 252 169 252 169 300 159.5 c 128,-1,9
 348 150 348 150 395 150 c 0,10,11
 437 150 437 150 473 153 c 128,-1,12
 509 156 509 156 535.5 169.5 c 128,-1,13
 562 183 562 183 577 210.5 c 128,-1,14
 592 238 592 238 592 287 c 0,15,16
 592 346 592 346 555.5 380 c 128,-1,17
 519 414 519 414 429 431 c 0,18,19
 336 449 336 449 272.5 479 c 128,-1,20
 209 509 209 509 169.5 548.5 c 128,-1,21
 130 588 130 588 112.5 637 c 128,-1,22
 95 686 95 686 95 742 c 0,23,24
 95 826 95 826 122 885 c 128,-1,25
 149 944 149 944 200.5 980.5 c 128,-1,26
 252 1017 252 1017 328.5 1033.5 c 128,-1,27
 405 1050 405 1050 504 1050 c 0,28,29
 573 1050 573 1050 626.5 1040.5 c 128,-1,30
 680 1031 680 1031 716 1020 c 0,31,32
 758 1007 758 1007 789 990 c 1,33,34
 786 968 786 968 778 942 c 0,35,36
 771 920 771 920 759.5 892 c 128,-1,37
 748 864 748 864 729 835 c 1,38,39
 702 851 702 851 667 863 c 0,40,41
 637 874 637 874 595 882.5 c 128,-1,42
 553 891 553 891 499 891 c 0,43,44
 457 891 457 891 421.5 887 c 128,-1,45
 386 883 386 883 360.5 869 c 128,-1,46
 335 855 335 855 321 826.5 c 128,-1,47
 307 798 307 798 307 749 c 0,48,49
 307 725 307 725 313.5 705.5 c 128,-1,50
 320 686 320 686 339.5 670 c 128,-1,51
 359 654 359 654 394.5 640.5 c 128,-1,52
 430 627 430 627 489 614 c 0,53,54
 581 594 581 594 642.5 568 c 128,-1,55
 704 542 704 542 740.5 505 c 128,-1,56
 777 468 777 468 792.5 418.5 c 128,-1,57
 808 369 808 369 808 301 c 0,58,59
 808 241 808 241 792.5 190.5 c 128,-1,60
 777 140 777 140 745 100.5 c 128,-1,61
 713 61 713 61 662.5 33.5 c 128,-1,62
 612 6 612 6 542 -7 c 1,63,64
 550 -37 550 -37 558 -80 c 128,-1,65
 566 -123 566 -123 566 -166 c 0,66,67
 566 -220 566 -220 547.5 -268.5 c 128,-1,68
 529 -317 529 -317 493 -354 c 128,-1,69
 457 -391 457 -391 404.5 -412.5 c 128,-1,70
 352 -434 352 -434 285 -434 c 0,71,72
 250 -434 250 -434 225 -429 c 0,73,74
 212 -426 212 -426 202 -423 c 1,75,76
 198 -410 198 -410 195 -394 c 0,77,78
 192 -380 192 -380 190 -362.5 c 128,-1,79
 188 -345 188 -345 188 -324 c 0,80,81
 188 -302 188 -302 191.5 -276 c 128,-1,82
 195 -250 195 -250 204 -218 c 1,83,84
 227 -223 227 -223 244.5 -227 c 128,-1,85
 262 -231 262 -231 270 -231 c 0,86,87
 298 -231 298 -231 318.5 -221.5 c 128,-1,88
 339 -212 339 -212 352.5 -196.5 c 128,-1,89
 366 -181 366 -181 372.5 -160 c 128,-1,90
 379 -139 379 -139 379 -116 c 0,91,92
 379 -92 379 -92 376.5 -66 c 128,-1,93
 374 -40 374 -40 372 -19 c 1,94,95
 308 -17 308 -17 255.5 -6.5 c 128,-1,96
 203 4 203 4 165 16 c 0,97,98
 121 29 121 29 86 46 c 1,0,1
EndSplineSet
EndChar

StartChar: uni0162
Encoding: 354 354 412
Width: 963
Flags: W
LayerCount: 2
Fore
SplineSet
362 1190 m 1,0,1
 287 1189 287 1189 226.5 1188 c 128,-1,2
 166 1187 166 1187 123 1185 c 0,3,4
 73 1183 73 1183 34 1181 c 1,5,6
 32 1193 32 1193 31 1205 c 0,7,8
 28 1226 28 1226 28 1257 c 0,9,10
 28 1275 28 1275 30.5 1300.5 c 128,-1,11
 33 1326 33 1326 40 1358 c 1,12,-1
 930 1358 l 1,13,14
 931 1348 931 1348 932 1337 c 0,15,16
 933 1328 933 1328 934 1316.5 c 128,-1,17
 935 1305 935 1305 935 1294 c 0,18,19
 935 1274 935 1274 931.5 1242 c 128,-1,20
 928 1210 928 1210 919 1182 c 1,21,22
 911 1183 911 1183 877.5 1184.5 c 128,-1,23
 844 1186 844 1186 797 1187 c 128,-1,24
 750 1188 750 1188 695 1189 c 128,-1,25
 640 1190 640 1190 588 1190 c 1,26,-1
 588 0 l 1,27,-1
 570 0 l 1,28,29
 574 -15 574 -15 578 -34.5 c 128,-1,30
 582 -54 582 -54 586 -75.5 c 128,-1,31
 590 -97 590 -97 592.5 -120.5 c 128,-1,32
 595 -144 595 -144 595 -166 c 0,33,34
 595 -220 595 -220 576.5 -268.5 c 128,-1,35
 558 -317 558 -317 522 -354 c 128,-1,36
 486 -391 486 -391 433.5 -412.5 c 128,-1,37
 381 -434 381 -434 314 -434 c 0,38,39
 279 -434 279 -434 254 -429 c 0,40,41
 241 -426 241 -426 231 -423 c 1,42,43
 227 -410 227 -410 224 -394 c 0,44,45
 221 -380 221 -380 219 -362.5 c 128,-1,46
 217 -345 217 -345 217 -324 c 0,47,48
 217 -302 217 -302 220.5 -276 c 128,-1,49
 224 -250 224 -250 233 -218 c 1,50,51
 256 -223 256 -223 273.5 -227 c 128,-1,52
 291 -231 291 -231 299 -231 c 0,53,54
 327 -231 327 -231 347.5 -221.5 c 128,-1,55
 368 -212 368 -212 381.5 -196.5 c 128,-1,56
 395 -181 395 -181 401.5 -160 c 128,-1,57
 408 -139 408 -139 408 -116 c 0,58,59
 408 -87 408 -87 405 -53.5 c 128,-1,60
 402 -20 402 -20 399 0 c 1,61,-1
 362 0 l 1,62,-1
 362 1190 l 1,0,1
EndSplineSet
EndChar

StartChar: uni0163
Encoding: 355 355 413
Width: 743
Flags: W
LayerCount: 2
Fore
SplineSet
182 867 m 1,0,-1
 51 867 l 1,1,2
 50 878 50 878 49 891 c 0,3,4
 48 902 48 902 47.5 917 c 128,-1,5
 47 932 47 932 47 950 c 256,6,7
 47 968 47 968 48 983.5 c 128,-1,8
 49 999 49 999 51 1022 c 1,9,-1
 182 1022 l 1,10,-1
 182 1181 l 1,11,-1
 297 1311 l 1,12,-1
 386 1311 l 1,13,-1
 386 1022 l 1,14,-1
 669 1022 l 1,15,16
 671 1012 671 1012 672.5 998 c 128,-1,17
 674 984 674 984 674 971 c 0,18,19
 674 948 674 948 669.5 929 c 128,-1,20
 665 910 665 910 660 896 c 0,21,22
 654 880 654 880 646 867 c 1,23,-1
 386 867 l 1,24,-1
 386 287 l 2,25,26
 386 214 386 214 410.5 181 c 128,-1,27
 435 148 435 148 489 148 c 0,28,29
 512 148 512 148 537.5 153.5 c 128,-1,30
 563 159 563 159 586 167 c 0,31,32
 612 176 612 176 639 187 c 1,33,34
 659 161 659 161 670.5 136 c 128,-1,35
 682 111 682 111 687 91 c 0,36,37
 693 68 693 68 694 48 c 1,38,39
 667 29 667 29 632 14 c 0,40,41
 602 1 602 1 558 -9.5 c 128,-1,42
 514 -20 514 -20 459 -20 c 1,43,44
 467 -50 467 -50 473.5 -89 c 128,-1,45
 480 -128 480 -128 480 -166 c 0,46,47
 480 -220 480 -220 461.5 -268.5 c 128,-1,48
 443 -317 443 -317 407 -354 c 128,-1,49
 371 -391 371 -391 318.5 -412.5 c 128,-1,50
 266 -434 266 -434 199 -434 c 0,51,52
 164 -434 164 -434 139 -429 c 0,53,54
 126 -426 126 -426 116 -423 c 1,55,56
 112 -410 112 -410 109 -394 c 0,57,58
 106 -380 106 -380 104 -362.5 c 128,-1,59
 102 -345 102 -345 102 -324 c 0,60,61
 102 -302 102 -302 105.5 -276 c 128,-1,62
 109 -250 109 -250 118 -218 c 1,63,64
 141 -223 141 -223 158.5 -227 c 128,-1,65
 176 -231 176 -231 184 -231 c 0,66,67
 212 -231 212 -231 232.5 -221.5 c 128,-1,68
 253 -212 253 -212 266.5 -196.5 c 128,-1,69
 280 -181 280 -181 286.5 -160 c 128,-1,70
 293 -139 293 -139 293 -116 c 0,71,72
 293 -97 293 -97 291 -74.5 c 128,-1,73
 289 -52 289 -52 286.5 -31.5 c 128,-1,74
 284 -11 284 -11 282 4 c 128,-1,75
 280 19 280 19 279 24 c 1,76,77
 225 60 225 60 203.5 125.5 c 128,-1,78
 182 191 182 191 182 286 c 2,79,-1
 182 867 l 1,0,-1
EndSplineSet
EndChar

StartChar: tcaron
Encoding: 357 357 382
Width: 743
Flags: W
LayerCount: 2
Fore
SplineSet
563 1162 m 1,0,1
 570 1190 570 1190 576 1223 c 0,2,3
 581 1252 581 1252 585.5 1289.5 c 128,-1,4
 590 1327 590 1327 590 1372 c 0,5,6
 590 1414 590 1414 584 1459.5 c 128,-1,7
 578 1505 578 1505 564 1553 c 1,8,9
 565 1553 565 1553 577 1557.5 c 128,-1,10
 589 1562 589 1562 606.5 1567.5 c 128,-1,11
 624 1573 624 1573 646 1577 c 128,-1,12
 668 1581 668 1581 690 1581 c 0,13,14
 715 1581 715 1581 741.5 1574.5 c 128,-1,15
 768 1568 768 1568 794 1551 c 1,16,17
 799 1525 799 1525 801.5 1498.5 c 128,-1,18
 804 1472 804 1472 804 1446 c 0,19,20
 804 1382 804 1382 791 1327 c 128,-1,21
 778 1272 778 1272 762 1230 c 0,22,23
 744 1182 744 1182 720 1140 c 1,24,25
 709 1137 709 1137 698 1134 c 0,26,27
 688 1132 688 1132 675.5 1130 c 128,-1,28
 663 1128 663 1128 652 1128 c 0,29,30
 632 1128 632 1128 611 1132 c 128,-1,31
 590 1136 590 1136 573 1148 c 1,32,-1
 563 1162 l 1,0,1
182 880 m 1,33,-1
 51 880 l 1,34,35
 50 891 50 891 49 904 c 0,36,37
 48 915 48 915 47.5 930 c 128,-1,38
 47 945 47 945 47 963 c 256,39,40
 47 981 47 981 48 996.5 c 128,-1,41
 49 1012 49 1012 51 1035 c 1,42,-1
 182 1035 l 1,43,-1
 182 1194 l 1,44,-1
 297 1324 l 1,45,-1
 386 1324 l 1,46,-1
 386 1035 l 1,47,-1
 669 1035 l 1,48,49
 671 1025 671 1025 672.5 1011 c 128,-1,50
 674 997 674 997 674 984 c 0,51,52
 674 961 674 961 669.5 942 c 128,-1,53
 665 923 665 923 660 909 c 0,54,55
 654 893 654 893 646 880 c 1,56,-1
 386 880 l 1,57,-1
 386 300 l 2,58,59
 386 227 386 227 410.5 194 c 128,-1,60
 435 161 435 161 489 161 c 0,61,62
 512 161 512 161 537.5 166.5 c 128,-1,63
 563 172 563 172 586 180 c 0,64,65
 612 189 612 189 639 200 c 1,66,67
 659 174 659 174 670.5 149 c 128,-1,68
 682 124 682 124 687 104 c 0,69,70
 693 81 693 81 694 61 c 1,71,72
 666 42 666 42 631 27 c 0,73,74
 600 14 600 14 557 3.5 c 128,-1,75
 514 -7 514 -7 458 -7 c 0,76,77
 380 -7 380 -7 327.5 12.5 c 128,-1,78
 275 32 275 32 242.5 70.5 c 128,-1,79
 210 109 210 109 196 166.5 c 128,-1,80
 182 224 182 224 182 299 c 2,81,-1
 182 880 l 1,33,-1
EndSplineSet
EndChar

StartChar: Tbar
Encoding: 358 358 364
Width: 963
Flags: W
LayerCount: 2
Fore
SplineSet
160 625 m 1,0,1
 147 673 147 673 147 704 c 0,2,3
 147 722 147 722 150 742 c 128,-1,4
 153 762 153 762 161 783 c 1,5,-1
 362 783 l 1,6,-1
 362 1190 l 1,7,8
 287 1189 287 1189 226.5 1188 c 128,-1,9
 166 1187 166 1187 123 1185 c 0,10,11
 73 1183 73 1183 34 1181 c 1,12,13
 32 1193 32 1193 31 1205 c 0,14,15
 28 1226 28 1226 28 1257 c 0,16,17
 28 1275 28 1275 30.5 1300.5 c 128,-1,18
 33 1326 33 1326 40 1358 c 1,19,-1
 930 1358 l 1,20,21
 931 1348 931 1348 932 1337 c 0,22,23
 933 1328 933 1328 934 1316.5 c 128,-1,24
 935 1305 935 1305 935 1294 c 0,25,26
 935 1274 935 1274 931.5 1242 c 128,-1,27
 928 1210 928 1210 919 1182 c 1,28,29
 911 1183 911 1183 877.5 1184.5 c 128,-1,30
 844 1186 844 1186 797 1187 c 128,-1,31
 750 1188 750 1188 695 1189 c 128,-1,32
 640 1190 640 1190 588 1190 c 1,33,-1
 588 783 l 1,34,-1
 806 783 l 1,35,36
 811 763 811 763 813 745 c 128,-1,37
 815 727 815 727 815 713 c 0,38,39
 815 693 815 693 811.5 670.5 c 128,-1,40
 808 648 808 648 800 625 c 1,41,-1
 588 625 l 1,42,-1
 588 0 l 1,43,-1
 362 0 l 1,44,-1
 362 625 l 1,45,-1
 160 625 l 1,46,-1
 160 625 l 1,0,1
EndSplineSet
EndChar

StartChar: tbar
Encoding: 359 359 347
Width: 743
Flags: W
LayerCount: 2
Fore
SplineSet
66 498 m 1,0,1
 59 523 59 523 56.5 544 c 128,-1,2
 54 565 54 565 54 580 c 0,3,4
 54 597 54 597 56.5 615 c 128,-1,5
 59 633 59 633 66 656 c 1,6,-1
 182 656 l 1,7,-1
 182 867 l 1,8,-1
 51 867 l 1,9,10
 50 878 50 878 49 891 c 0,11,12
 48 902 48 902 47.5 917 c 128,-1,13
 47 932 47 932 47 950 c 256,14,15
 47 968 47 968 48 983.5 c 128,-1,16
 49 999 49 999 51 1022 c 1,17,-1
 182 1022 l 1,18,-1
 182 1181 l 1,19,-1
 297 1311 l 1,20,-1
 386 1311 l 1,21,-1
 386 1022 l 1,22,-1
 669 1022 l 1,23,24
 671 1012 671 1012 672.5 998 c 128,-1,25
 674 984 674 984 674 971 c 0,26,27
 674 948 674 948 669.5 929 c 128,-1,28
 665 910 665 910 660 896 c 0,29,30
 654 880 654 880 646 867 c 1,31,-1
 386 867 l 1,32,-1
 386 656 l 1,33,-1
 691 656 l 1,34,35
 700 617 700 617 700 586 c 0,36,37
 700 546 700 546 685 498 c 1,38,-1
 386 498 l 1,39,-1
 386 287 l 2,40,41
 386 214 386 214 410.5 181 c 128,-1,42
 435 148 435 148 489 148 c 0,43,44
 512 148 512 148 537.5 153.5 c 128,-1,45
 563 159 563 159 586 167 c 0,46,47
 612 176 612 176 639 187 c 1,48,49
 659 161 659 161 670.5 136 c 128,-1,50
 682 111 682 111 687 91 c 0,51,52
 693 68 693 68 694 48 c 1,53,54
 666 29 666 29 631 14 c 0,55,56
 600 1 600 1 557 -9.5 c 128,-1,57
 514 -20 514 -20 458 -20 c 0,58,59
 380 -20 380 -20 327.5 -0.5 c 128,-1,60
 275 19 275 19 242.5 57.5 c 128,-1,61
 210 96 210 96 196 153.5 c 128,-1,62
 182 211 182 211 182 286 c 2,63,-1
 182 498 l 1,64,-1
 66 498 l 1,65,-1
 66 498 l 1,0,1
EndSplineSet
EndChar

StartChar: Uogonek
Encoding: 370 370 251
Width: 1241
Flags: W
LayerCount: 2
Fore
SplineSet
117 530 m 0,0,1
 117 561 117 561 117 613.5 c 128,-1,2
 117 666 117 666 117.5 730 c 128,-1,3
 118 794 118 794 118.5 865.5 c 128,-1,4
 119 937 119 937 119 1007 c 0,5,6
 120 1171 120 1171 121 1358 c 1,7,-1
 343 1358 l 1,8,-1
 343 497 l 2,9,10
 343 420 343 420 358 358 c 128,-1,11
 373 296 373 296 406.5 252 c 128,-1,12
 440 208 440 208 493 184 c 128,-1,13
 546 160 546 160 623 160 c 0,14,15
 699 160 699 160 753 184 c 128,-1,16
 807 208 807 208 841 252 c 128,-1,17
 875 296 875 296 890.5 358 c 128,-1,18
 906 420 906 420 906 497 c 0,19,20
 906 519 906 519 906 568 c 128,-1,21
 906 617 906 617 905.5 681.5 c 128,-1,22
 905 746 905 746 904.5 821.5 c 128,-1,23
 904 897 904 897 904 972 c 0,24,25
 903 1148 903 1148 902 1358 c 1,26,-1
 1123 1358 l 1,27,-1
 1123 530 l 1,28,29
 1122 365 1122 365 1085.5 250 c 128,-1,30
 1049 135 1049 135 960 68 c 1,31,32
 940 49 940 49 923.5 35 c 128,-1,33
 907 21 907 21 895.5 6 c 128,-1,34
 884 -9 884 -9 877.5 -27.5 c 128,-1,35
 871 -46 871 -46 871 -74 c 0,36,37
 871 -89 871 -89 879 -104.5 c 128,-1,38
 887 -120 887 -120 903 -132 c 128,-1,39
 919 -144 919 -144 941 -152 c 128,-1,40
 963 -160 963 -160 992 -160 c 0,41,42
 1012 -160 1012 -160 1026.5 -158 c 128,-1,43
 1041 -156 1041 -156 1058 -151 c 1,44,45
 1067 -183 1067 -183 1070.5 -207.5 c 128,-1,46
 1074 -232 1074 -232 1074 -253 c 256,47,48
 1074 -274 1074 -274 1071.5 -291 c 128,-1,49
 1069 -308 1069 -308 1067 -319 c 0,50,51
 1064 -333 1064 -333 1061 -343 c 1,52,53
 1050 -346 1050 -346 1037 -349 c 0,54,55
 1012 -354 1012 -354 976 -354 c 0,56,57
 908 -354 908 -354 855.5 -337.5 c 128,-1,58
 803 -321 803 -321 767 -291.5 c 128,-1,59
 731 -262 731 -262 712.5 -221.5 c 128,-1,60
 694 -181 694 -181 694 -133 c 0,61,62
 694 -101 694 -101 704.5 -71.5 c 128,-1,63
 715 -42 715 -42 738 -13 c 1,64,65
 712 -17 712 -17 683 -18.5 c 128,-1,66
 654 -20 654 -20 623 -20 c 0,67,68
 484 -20 484 -20 387.5 15.5 c 128,-1,69
 291 51 291 51 231 120.5 c 128,-1,70
 171 190 171 190 144 293 c 128,-1,71
 117 396 117 396 117 530 c 0,0,1
EndSplineSet
EndChar
